<svg xmlns="http://www.w3.org/2000/svg" width="500" height="104.226" viewBox="0 0 500 104.226">
  <g id="Group_34" data-name="Group 34" transform="translate(-3663.702 -4213.615)">
    <g id="Group_31" data-name="Group 31" transform="translate(3663.702 4213.615)">
      <g id="Group_27" data-name="Group 27" transform="translate(0 9.824)">
        <g id="Group_25" data-name="Group 25">
          <path id="Path_7" data-name="Path 7" d="M3663.7,4286.856a557.408,557.408,0,0,0,102.743,28.587q2.014-33.544,4.027-67.086a532.526,532.526,0,0,1-98.176-27.315q4.611,19.041,9.556,38Q3672.925,4273.108,3663.7,4286.856Z" transform="translate(-3663.702 -4221.042)" fill="#ea4e5e"/>
        </g>
        <g id="Group_26" data-name="Group 26" transform="translate(9.299 9.487)">
          <path id="Path_8" data-name="Path 8" d="M3759.317,4305.141a554.657,554.657,0,0,1-88.585-24.461c4.436-6.714,8.834-13.506,13.135-20.279l1.754-2.763-.872-3.34c-2.249-8.627-4.47-17.359-6.634-26.084a538.374,538.374,0,0,0,84.435,23.07Z" transform="translate(-3670.732 -4228.214)" fill="none" stroke="#fff" stroke-miterlimit="10" stroke-width="0.75"/>
        </g>
        <path id="Path_9" data-name="Path 9" d="M3705.2,4269.1c15.709,11.145,31.613,21.19,47.857,30.827.4-6.709.805-14.207,1.208-20.914C3737.837,4276.129,3721.527,4273.591,3705.2,4269.1Z" transform="translate(-3650.31 -4205.529)" fill="#b60932"/>
      </g>
      <g id="Group_30" data-name="Group 30" transform="translate(393.229 9.824)">
        <g id="Group_28" data-name="Group 28">
          <path id="Path_10" data-name="Path 10" d="M4067.751,4286.856a557.443,557.443,0,0,1-102.745,28.587q-2.013-33.544-4.026-67.086a532.532,532.532,0,0,0,98.176-27.315q-4.611,19.041-9.554,38Q4058.526,4273.108,4067.751,4286.856Z" transform="translate(-3960.98 -4221.042)" fill="#ea4e5e"/>
        </g>
        <g id="Group_29" data-name="Group 29" transform="translate(5.652 9.487)">
          <path id="Path_11" data-name="Path 11" d="M3965.253,4251.284a538.307,538.307,0,0,0,84.435-23.07c-2.167,8.742-4.388,17.475-6.632,26.084l-.871,3.34,1.753,2.763c4.307,6.781,8.705,13.576,13.135,20.279a554.688,554.688,0,0,1-88.587,24.461Z" transform="translate(-3965.253 -4228.214)" fill="none" stroke="#fff" stroke-miterlimit="10" stroke-width="0.75"/>
        </g>
        <path id="Path_12" data-name="Path 12" d="M4012.177,4269.1c-15.708,11.145-31.614,21.19-47.858,30.827-.4-6.709-.805-14.207-1.208-20.914C3979.536,4276.129,3995.844,4273.591,4012.177,4269.1Z" transform="translate(-3960.292 -4205.529)" fill="#b60932"/>
      </g>
      <path id="Path_13" data-name="Path 13" d="M4095.525,4288.523a825.445,825.445,0,0,1-390.33,0q3.892-37.455,7.785-74.908a792.508,792.508,0,0,0,374.758,0Q4091.633,4251.07,4095.525,4288.523Z" transform="translate(-3650.31 -4213.615)" fill="#f27775"/>
      <path id="Path_14" data-name="Path 14" d="M3898.906,4302.943a828.142,828.142,0,0,1-189.207-22.106l6.42-61.763a796.54,796.54,0,0,0,365.575,0l6.42,61.763A828.137,828.137,0,0,1,3898.906,4302.943Z" transform="translate(-3648.855 -4211.854)" fill="none" stroke="#fff" stroke-miterlimit="10" stroke-width="0.75"/>
    </g>
    <g id="Group_33" data-name="Group 33" transform="translate(3749.36 4241.98)">
      <g id="Group_32" data-name="Group 32">
        <path id="Path_15" data-name="Path 15" d="M3755.152,4239.415l2.878.542a1.474,1.474,0,0,1,1.006.6,1.491,1.491,0,0,1,.2,1.154l-4.619,24.634a2.334,2.334,0,0,1-3.066,2.131,2.367,2.367,0,0,1-2.162-3.111l1.753-9.361q.385-2.046,2.49-9.3l-.189-.034q-2.6,4.652-9.372,16.091a2.251,2.251,0,0,1-2.566,1.128l-.114-.021a2.046,2.046,0,0,1-1.782-1.786l-1.946-11.389-1.009-7.172-.152-.028q-.665,7.525-1.049,9.572l-1.762,9.4a2.3,2.3,0,0,1-3.021,2.1,2.334,2.334,0,0,1-2.132-3.066l4.426-23.611a2.448,2.448,0,0,1,3.016-2.062l1.856.348a2.882,2.882,0,0,1,1.553.82,2.583,2.583,0,0,1,.751,1.535l2.033,12.385q.223,1.531.706,5.86l.189.035q.415-.749,1.335-2.517t1.447-2.691l6.3-10.821a2.583,2.583,0,0,1,1.257-1.156A2.87,2.87,0,0,1,3755.152,4239.415Z" transform="translate(-3728.459 -4234.831)" fill="#fff"/>
        <path id="Path_16" data-name="Path 16" d="M3770.6,4259.973l-12.312-1.883a6.353,6.353,0,0,0,1.342,4.359,6.043,6.043,0,0,0,3.88,2.058,8.7,8.7,0,0,0,3.142-.145,1.949,1.949,0,0,1,2.756,1.358,1.742,1.742,0,0,1-1.045,2.49,13.206,13.206,0,0,1-6.285.56,10.658,10.658,0,0,1-7.3-4.274,11.408,11.408,0,0,1-1.81-8.819,11.728,11.728,0,0,1,4.3-7.847,9.636,9.636,0,0,1,7.635-2.108,8.363,8.363,0,0,1,6.324,3.932,11.7,11.7,0,0,1,1.221,7.949q-.111.724-.327,1.627a1.1,1.1,0,0,1-.578.594A1.513,1.513,0,0,1,3770.6,4259.973Zm-11.811-5.668,8.918,1.364a5.528,5.528,0,0,0-.5-3.725,3.83,3.83,0,0,0-2.912-1.751,4.468,4.468,0,0,0-3.317.779A5.837,5.837,0,0,0,3758.794,4254.3Z" transform="translate(-3720.61 -4231.655)" fill="#fff"/>
        <path id="Path_17" data-name="Path 17" d="M3769.992,4266.551l2.149-16.713a2.114,2.114,0,0,1,2.709-2.022,2.231,2.231,0,0,1,2.249,2.466l-.067,1.739.153.02a9.822,9.822,0,0,1,3.27-2.9,5.883,5.883,0,0,1,3.533-.731l.5.063q2.044.731,1.186,3.184-.814,2.385-2.948,1.76l-.114-.015a4.617,4.617,0,0,0-2.927.692,7.527,7.527,0,0,0-2.677,2.98l-1.312,10.21q-.371,2.87-3.2,2.5A2.557,2.557,0,0,1,3769.992,4266.551Z" transform="translate(-3715.067 -4230.953)" fill="#fff"/>
        <path id="Path_18" data-name="Path 18" d="M3782.744,4268.163l1.806-16.754a2.112,2.112,0,0,1,2.665-2.077,2.234,2.234,0,0,1,2.3,2.418l-.032,1.744.153.014a9.844,9.844,0,0,1,3.21-2.97,5.893,5.893,0,0,1,3.518-.8l.5.054q2.06.687,1.25,3.159-.761,2.4-2.91,1.82l-.116-.014a4.615,4.615,0,0,0-2.913.753,7.509,7.509,0,0,0-2.614,3.034l-1.1,10.234q-.309,2.877-3.145,2.571A2.557,2.557,0,0,1,3782.744,4268.163Z" transform="translate(-3710.947 -4230.46)" fill="#fff"/>
        <path id="Path_19" data-name="Path 19" d="M3815.04,4255.029q-2.864,6.492-8.359,19a16.418,16.418,0,0,1-4.147,5.864,7.743,7.743,0,0,1-5.759,1.551,9.745,9.745,0,0,1-1.034-.126q-1.966-.552-1.094-3.11a2.416,2.416,0,0,1,.795-1.17,1.263,1.263,0,0,1,1.217-.209l.075.006q3.036.254,4.392-3l.532-1.271-5.736-18.857q-1.1-3.5,2.549-3.191a2.888,2.888,0,0,1,2.778,2.4l2.093,8.3q.2.831,1.324,6.379l.192.017q.317-1.02,1.029-3.048t1.067-3.046l3.1-7.866a2.707,2.707,0,0,1,3.022-1.913Q3816.377,4252.007,3815.04,4255.029Z" transform="translate(-3707.182 -4230.079)" fill="#fff"/>
        <path id="Path_20" data-name="Path 20" d="M3818.643,4261.457a16.074,16.074,0,0,1,4.228-10.777,12.429,12.429,0,0,1,10.029-3.89,11.48,11.48,0,0,1,6.909,2.651q1.48,1.453-.057,3.124a2.346,2.346,0,0,1-3.678.228,6.927,6.927,0,0,0-3.274-.991,6.833,6.833,0,0,0-5.684,2.475,11.432,11.432,0,0,0-2.494,7.246,12.076,12.076,0,0,0,1.739,7.542,6.626,6.626,0,0,0,5.449,2.955,7.71,7.71,0,0,0,4.1-1.019,2.284,2.284,0,0,1,3.646.466,2.143,2.143,0,0,1-.332,3.227,11.811,11.811,0,0,1-7.858,2.364,12.667,12.667,0,0,1-9.4-4.4Q3818.337,4268.506,3818.643,4261.457Z" transform="translate(-3699.358 -4231.277)" fill="#fff"/>
        <path id="Path_21" data-name="Path 21" d="M3838.34,4274.4l.306-25.716a2.555,2.555,0,0,1,2.926-2.858q2.853.035,2.819,2.925l-.061,5.05-.28,4.125q3.51-3.2,6.979-3.158,6.863.083,6.757,8.989l-.13,10.871a2.556,2.556,0,0,1-2.926,2.858q-2.93-.035-2.9-2.927l.122-10.179a6.518,6.518,0,0,0-.69-3.575,2.7,2.7,0,0,0-2.378-1.088,4.353,4.353,0,0,0-2.261.552,13.365,13.365,0,0,0-2.4,1.9l-.145,12.3q-.034,2.89-2.888,2.858A2.555,2.555,0,0,1,3838.34,4274.4Z" transform="translate(-3692.993 -4231.582)" fill="#fff"/>
        <path id="Path_22" data-name="Path 22" d="M3857.3,4272.427l-.239-16.849a2.113,2.113,0,0,1,2.395-2.386,2.233,2.233,0,0,1,2.575,2.124l.179,1.733.155,0a9.813,9.813,0,0,1,2.825-3.337,5.9,5.9,0,0,1,3.395-1.226l.5-.006q2.129.43,1.624,2.984-.467,2.475-2.669,2.159h-.116a4.609,4.609,0,0,0-2.8,1.1,7.507,7.507,0,0,0-2.228,3.329l.147,10.294q.04,2.892-2.812,2.933A2.557,2.557,0,0,1,3857.3,4272.427Z" transform="translate(-3686.95 -4229.436)" fill="#fff"/>
        <path id="Path_23" data-name="Path 23" d="M3869.092,4248.513a2.855,2.855,0,0,1,.91-2.307,3.674,3.674,0,0,1,2.458-.929,3.549,3.549,0,0,1,2.494.789,2.9,2.9,0,0,1,1.037,2.224,2.944,2.944,0,0,1-.912,2.285,3.467,3.467,0,0,1-2.417.983,3.511,3.511,0,0,1-2.515-.826A2.936,2.936,0,0,1,3869.092,4248.513Zm6.59,9.393.526,16.339q.094,2.892-2.759,2.983a2.557,2.557,0,0,1-2.983-2.8l-.526-16.339q-.089-2.854,2.8-2.946A2.523,2.523,0,0,1,3875.681,4257.905Z" transform="translate(-3683.068 -4231.761)" fill="#fff"/>
        <path id="Path_24" data-name="Path 24" d="M3894.378,4267.608a6.04,6.04,0,0,1-2.2,5.267,10.327,10.327,0,0,1-6.221,2.152,12.906,12.906,0,0,1-6.758-1.545,1.853,1.853,0,0,1-.655-2.938,2.3,2.3,0,0,1,3.479-.681,8.286,8.286,0,0,0,3.865.844,3.818,3.818,0,0,0,2.354-.756,2.065,2.065,0,0,0,.721-1.757,1.8,1.8,0,0,0-.1-.515,1.37,1.37,0,0,0-.274-.45,4.617,4.617,0,0,0-.367-.366,2.787,2.787,0,0,0-.54-.359c-.238-.13-.424-.237-.557-.319a3.755,3.755,0,0,0-.69-.292c-.328-.112-.565-.2-.708-.253s-.408-.146-.787-.268-.634-.207-.766-.251a17.592,17.592,0,0,1-2.205-.851,13,13,0,0,1-1.951-1.175,5.186,5.186,0,0,1-2.218-4.1,6.091,6.091,0,0,1,2-5,8.971,8.971,0,0,1,5.852-2.191,11.5,11.5,0,0,1,5.975,1.314q1.788.988.5,2.869a2.205,2.205,0,0,1-3.208.706,7.213,7.213,0,0,0-2.884-.546q-2.889.148-2.78,2.265a2.037,2.037,0,0,0,.13.631,1.191,1.191,0,0,0,.433.519l.541.4a3.416,3.416,0,0,0,.752.367l.808.307c.183.065.511.173.981.316s.8.248.982.316c.915.313,1.678.6,2.284.866a12.765,12.765,0,0,1,1.968,1.115,4.842,4.842,0,0,1,1.618,1.808A6.293,6.293,0,0,1,3894.378,4267.608Z" transform="translate(-3680.261 -4229.66)" fill="#fff"/>
        <path id="Path_25" data-name="Path 25" d="M3900.01,4257.3l.716,9.767q.274,3.732,3.272,3.511l.077-.007a1.906,1.906,0,0,1,2.663,1.507q.573,2.045-1.048,2.59a13.419,13.419,0,0,1-2.9.561q-7.268.532-7.873-7.735l-.716-9.768-.961.07a1.909,1.909,0,0,1-2.276-2.037,1.971,1.971,0,0,1,1.836-2.376l1.376-.216.153-3.723a2.261,2.261,0,0,1,2.374-2.418q2.539-.185,2.713,2.2l.26,3.536,3.153-.229a2.274,2.274,0,0,1,.333,4.535Z" transform="translate(-3676.011 -4231.2)" fill="#fff"/>
        <path id="Path_26" data-name="Path 26" d="M3906.342,4270.824l-1.783-16.756q-.25-2.334,2.205-2.6a2.245,2.245,0,0,1,2.754,1.838l.2.794.153-.017q2.962-3.843,6.377-4.208a6.157,6.157,0,0,1,6.47,3.229,18.04,18.04,0,0,1,3.089-3.217,6.67,6.67,0,0,1,3.476-1.4,5.992,5.992,0,0,1,5.364,1.755,10.9,10.9,0,0,1,2.4,6.374l1.153,10.812q.308,2.875-2.532,3.177-2.915.311-3.218-2.563l-1.08-10.123a6.388,6.388,0,0,0-1.125-3.467,2.666,2.666,0,0,0-2.431-.807q-1.881.2-3.992,2.946l1.3,12.231q.308,2.874-2.532,3.176-2.913.311-3.218-2.564l-1.079-10.122a6.36,6.36,0,0,0-1.125-3.467,2.663,2.663,0,0,0-2.433-.807q-1.877.2-3.991,2.944l1.3,12.23q.305,2.878-2.532,3.179A2.557,2.557,0,0,1,3906.342,4270.824Z" transform="translate(-3671.628 -4230.741)" fill="#fff"/>
        <path id="Path_27" data-name="Path 27" d="M3949.86,4268.023a2.413,2.413,0,0,1-2.967-1.949l-.116.015a10.308,10.308,0,0,1-6.191,3.813,6.343,6.343,0,0,1-4.957-1.158,6.444,6.444,0,0,1-2.463-4.4,6.17,6.17,0,0,1,2.213-5.868q2.72-2.358,9.217-4.033-.694-3.756-4.245-3.246a10.149,10.149,0,0,0-3.825,1.563q-1.947,1.369-3.257-.429a1.86,1.86,0,0,1,.357-2.934,15.832,15.832,0,0,1,7.093-2.967q4.158-.6,6.628,1.54t3.155,6.909l1.5,10.456Q3952.342,4267.667,3949.86,4268.023Zm-10.062-7.67a2.9,2.9,0,0,0-1.2,2.744q.357,2.483,3.22,2.069a6.249,6.249,0,0,0,3.925-2.783l-.632-4.389A15.542,15.542,0,0,0,3939.8,4260.354Z" transform="translate(-3662.531 -4231.43)" fill="#fff"/>
        <path id="Path_28" data-name="Path 28" d="M3966.573,4258.671a6.036,6.036,0,0,1-1.57,5.485,10.337,10.337,0,0,1-5.928,2.864,12.932,12.932,0,0,1-6.893-.745,1.855,1.855,0,0,1-.991-2.845,2.3,2.3,0,0,1,3.375-1.08,8.281,8.281,0,0,0,3.938.388,3.816,3.816,0,0,0,2.25-1.026,2.071,2.071,0,0,0,.511-1.827,1.756,1.756,0,0,0-.164-.5,1.334,1.334,0,0,0-.324-.413c-.136-.119-.272-.227-.406-.323a3.008,3.008,0,0,0-.578-.292c-.251-.1-.448-.184-.59-.251a3.728,3.728,0,0,0-.719-.211c-.338-.073-.582-.129-.733-.169s-.42-.1-.812-.174-.655-.131-.79-.161a17.193,17.193,0,0,1-2.29-.589,12.691,12.691,0,0,1-2.076-.937,5.2,5.2,0,0,1-2.682-3.809,6.094,6.094,0,0,1,1.406-5.205,8.974,8.974,0,0,1,5.556-2.858,11.517,11.517,0,0,1,6.087.607q1.893.775.826,2.794a2.2,2.2,0,0,1-3.1,1.073,7.21,7.21,0,0,0-2.928-.206q-2.853.485-2.5,2.574a1.979,1.979,0,0,0,.2.611,1.2,1.2,0,0,0,.491.466q.344.193.583.33a3.46,3.46,0,0,0,.791.277l.836.21c.19.045.529.112,1.012.2s.821.154,1.012.2q1.422.309,2.37.6a12.576,12.576,0,0,1,2.085.877,4.834,4.834,0,0,1,1.817,1.607A6.246,6.246,0,0,1,3966.573,4258.671Z" transform="translate(-3657.277 -4232.23)" fill="#fff"/>
        <path id="Path_29" data-name="Path 29" d="M3976.823,4247.245l.81,5.382a1.777,1.777,0,0,1-1.645,2.18,1.756,1.756,0,0,1-2.324-1.379l-3.2-12.374-.563-2.4q-.706-2.924,2.128-3.5,2.871-.58,3.353,2.392l.412,2.434Zm4.081,13.415a3.726,3.726,0,0,1-.488,2.851,3.49,3.49,0,0,1-2.355,1.579,3.354,3.354,0,0,1-2.73-.572,4.024,4.024,0,0,1-1.06-5.254,3.351,3.351,0,0,1,2.295-1.584,3.483,3.483,0,0,1,2.771.563A3.716,3.716,0,0,1,3980.9,4260.66Z" transform="translate(-3650.576 -4235.059)" fill="#fff"/>
      </g>
    </g>
  </g>
</svg>
