<svg xmlns="http://www.w3.org/2000/svg" xmlns:xlink="http://www.w3.org/1999/xlink" width="360" height="335" viewBox="0 0 360 335">
  <defs>
    <filter id="Rectangle_51" x="-11.405" y="-11.405" width="394.216" height="369.216" filterUnits="userSpaceOnUse">
      <feOffset dx="5.703" dy="5.703" input="SourceAlpha"/>
      <feGaussianBlur stdDeviation="5.703" result="blur"/>
      <feFlood flood-color="#f97d8f" flood-opacity="0.349"/>
      <feComposite operator="in" in2="blur"/>
      <feComposite in="SourceGraphic"/>
    </filter>
    <clipPath id="clip-path">
      <g transform="matrix(1, 0, 0, 1, 0, 0)" filter="url(#Rectangle_51)">
        <rect id="Rectangle_51-2" data-name="Rectangle 51" width="360" height="335" transform="translate(0 -0.15)" fill="#fcf7f0"/>
      </g>
    </clipPath>
  </defs>
  <g id="Mask_Group_7" data-name="Mask Group 7" transform="translate(0 0.151)" clip-path="url(#clip-path)">
    <path id="Path_1686" data-name="Path 1686" d="M1736.474,1495.024l4.9,0,9.473-9.474.657,11.523,3.658,3.262,3.257-3.655-1.008-17.694,4.809-4.809.542,9.514,3.657,3.261,3.259-3.658-.895-15.682,20.847-20.847-1.619,20.947h0a4.207,4.207,0,0,0,3.665,2.588l1.974.1,14.354-13.875,0,27.329-11.725,10.46-.275,4.893.109.115,4.778.161,7.11-6.342v6.8l-13.227,11.8-.277,4.889.117.123,4.771.158,8.615-7.686v13.4l3.463,3.463,3.465-3.463,0-13.4,8.615,7.683,2.5.876,2.388-1.153-.133-4.755-.15-.141-13.224-11.8v-6.8l7.111,6.345,4.892-.277-.135-4.756-.148-.139-11.721-10.456,0-27.548,14.33,14.073,1.036.128a4.2,4.2,0,0,0,4.069-1.921l.56-.882-.81-20.134,20.038,20.038-.893,15.686,3.264,3.656,3.65-3.265.543-9.514,4.808,4.808-1.009,17.694,3.263,3.657,3.652-3.262.658-11.524,10.38,10.38h4.9l.024-.024v-4.9l-10.38-10.379,11.524-.66,3.261-3.655-3.656-3.261-17.694,1.01-4.808-4.808,9.515-.543,3.263-3.651-3.658-3.262-15.684.893-20.038-20.036,20.133.807.878-.556a4.211,4.211,0,0,0,1.926-4.073l-.127-1.034-14.074-14.33h27.548l10.46,11.724.135.143,4.754.137.278-4.894-6.344-7.112h6.8l11.8,13.227.135.146,4.756.134.277-4.893-7.684-8.614h13.4l3.463-3.464-3.463-3.464h-13.4l7.686-8.614-.156-4.773-.116-.111-4.9.273-11.8,13.226h-6.8l6.344-7.11-.161-4.777-.106-.1-4.9.266-10.458,11.725h-27.332l13.878-14.355.122-1.033a4.2,4.2,0,0,0-1.936-4.05l-.88-.553-20.946,1.617,20.846-20.847,15.686.895,3.656-3.261-3.262-3.656-9.515-.543,4.808-4.808,17.7,1.007,3.655-3.259-3.264-3.657-11.522-.657,9.473-9.473v-4.9h-4.9l-9.473,9.473-.658-11.523-3.656-3.263-3.261,3.652,1.009,17.7-4.807,4.808-.543-9.514-3.655-3.262-3.262,3.657.895,15.684-20.846,20.846,1.618-20.94-.558-.881a4.206,4.206,0,0,0-4.07-1.923l-1.035.129-14.332,14.075v-27.553l11.722-10.461.281-4.89-.115-.121-4.776-.158-7.111,6.344v-6.8l13.228-11.8.279-4.889-.127-.134-4.765-.147-8.617,7.683,0-13.394-3.465-3.465-3.463,3.463v13.4l-8.612-7.685-4.892.281.135,4.754.149.139,13.221,11.8v6.8l-7.112-6.345-4.889.279.133,4.756.149.14,11.715,10.452v27.337l-14.356-13.881-1.033-.12a4.209,4.209,0,0,0-4.051,1.939l-.553.881.81,20.131-20.039-20.039.9-15.682-3.263-3.657-3.653,3.259-.542,9.517-4.81-4.81,1.01-17.693-3.263-3.657-3.653,3.259-.658,11.528-9.26-9.262-4.9,0-.025.025,0,4.9,9.261,9.262-11.527.656-3.261,3.654,1.009,2.253,2.649,1.01,17.692-1.011,4.81,4.81-9.517.542-3.259,3.655,3.657,3.262,15.681-.9,20.038,20.039-20.134-.81-.886.559a4.206,4.206,0,0,0-1.931,4.044l.121,1.035,13.883,14.358h-27.339l-10.455-11.721-.138-.144-4.754-.134-.279,4.89,6.344,7.112h-6.8l-11.8-13.227-.133-.144-4.756-.131-.277,4.887,7.683,8.615h-13.4l-3.465,3.464,3.465,3.466,13.4,0-7.683,8.617.148,4.765.124.119,4.9-.27,11.8-13.229h6.8l-6.344,7.109.16,4.776.111.106,4.9-.271,10.461-11.721h27.552l-14.076,14.333-.128,1.033a4.211,4.211,0,0,0,1.923,4.073l.879.558,20.943-1.62-20.847,20.846-15.685-.895-3.655,3.262,3.261,3.655,9.515.541-4.808,4.81-17.7-1.01-3.651,3.262,3.264,3.655,11.521.657-9.474,9.473v4.9Zm58.465-34.559,1.619-20.624,11.448-11.447v19.235l-13.066,12.837Zm-23.815-23.905,13.037-13.066h18.947l-11.448,11.448-20.536,1.616Zm12.753-19.995-12.842-13.068,19.813.81,12.259,12.259Zm31.054,30.779v-18.953l12.259,12.259.808,19.727-13.068-13.033Zm-19.163-47.957-.81-19.812,13.068,12.841v19.23l-12.259-12.259Zm24.084,24.084h18.953l13.033,13.068-19.727-.808-12.259-12.259Zm-4.9-11.824,0-18.946,13.068-13.039L1826.4,1400.2l-11.449,11.45Zm4.9,4.9L1831.3,1405.1l20.624-1.62-12.837,13.067Z" transform="translate(-1493.409 -1202.358)" fill="#fcf7f0"/>
    <path id="Path_1687" data-name="Path 1687" d="M-11.861,1371.74l-1.167.651-.785,1.815,10.686,19.382-7.832-5.667-1.261.747-.689,1.854,14.654,22.423-13.449-9.682-1.365.866.358,3.636,16.576,13.6,4.442,17.65-15.618-9.338-8.254-19.8-3.013-1.513-.365.121-1.392,3.38,5.567,13.349-18.716-20.557-.509.187-1.182,3.459,3.274,6.668-16.82-15.838-1.855,1.8,3.619,8.047-7.637-.028-1.951,2.467.729,1.838,21.263,6.148-7.959.35-1.951,2.6,27.042,7.292-14.774,1.484-1.935,2.759,2.825,2.318,21.342-2.1,15.625,9.341-17.651,4.442-21.448-8.278-1.76,1.523,0,1.978,14.776,6.9L-46.6,1447.54l-1.816,1.672,1.61,3.28,7.029,2.4-21.5-.486-1.856,1.8,1.779,3.192,6.7,1.9-5.785,6.666.729,1.839,2.488.706,18.71-10.608-5.055,5.441.134,3.652,2.392.612,21.886-14.577-9.174,11.179.358,3.636,2.271.508,14.97-17.444,17.655-4.443-9.342,15.625-19.8,8.25-1.391,3.379,3.017,1.511,13.71-5.683-20.37,19.223,2.948,1.369,7.179-3.46-15.59,17.446,2.886,1.249,6.714-3.64.621,8.8,2.486.707,7.318-21.912.272,7.424,2.678,2.487.536-.076,6.758-26.969,1.415,14.394,2.825,2.318.378-.065,1.94-2.759-2.1-21.345,9.337-15.618,4.442,17.65L7.634,1488.6l1.406,3.373,1.613.116,7.264-14.894-2.294,26.689,1.484,1.307,1.464.061,4.217-8.7-.239,22.131,1.55,1.227,1.336.021,3.763-8.5,7.335,5.707,1.168-.651.784-1.815L27.8,1495.293l7.834,5.669,1.261-.747-13.966-24.28,13.451,9.684,1.365-.866-.358-3.636L20.806,1467.51l-4.443-17.652,15.624,9.341,8.251,19.8,3.013,1.513.367-.122,1.39-3.379-5.564-13.349,18.716,20.556.507-.185,1.183-3.459-3.273-6.668,16.818,15.84.628-.25,1-3.515-3.39-6.086,7.635.03,1.952-2.466-.729-1.838-21.262-6.151,7.961-.349,1.95-2.6-.823-1.8-26.222-5.5,14.772-1.482,1.94-2.759-2.824-2.318-21.345,2.1-15.618-9.338,17.651-4.442,21.443,8.28,1.76-1.522-1.406-3.373-13.372-5.5,26.18,2.48,1.816-1.671-1.61-3.281-7.029-2.4,21.5.488,1.856-1.8-.228-1.964-8.251-3.134,5-4.848.056-3.654-2.488-.707-18.712,10.607,5.056-5.442-.134-3.651-2.391-.613-21.89,14.578,9.177-11.179-.358-3.636-2.271-.508L35.4,1435.972l-17.646,4.441,9.337-15.618,19.8-8.254,1.391-3.379-3.016-1.512-13.712,5.687,20.5-17.252-.126-1.974-2.95-1.367L41.8,1400.2l15.817-15.483-.228-1.964-2.886-1.249-6.712,3.641-.625-8.8-2.486-.706-7.315,21.914-.274-7.424-2.678-2.487-.537.076-6.755,26.966L25.7,1400.291l-2.825-2.318-.379.066-1.939,2.759,2.1,21.343-9.341,15.624-4.443-17.652,8.162-19.834-1.406-3.373-1.613-.117-7.264,14.9.809-28-1.464-.062-4.217,8.7L.573,1368.968l-1.335-.021-3.76,8.5-7.338-5.707Z" transform="translate(7.188 -1356.146)" fill="#fcf7f0"/>
  </g>
</svg>
