<svg xmlns="http://www.w3.org/2000/svg" width="22.628" height="30.353" viewBox="0 0 22.628 30.353">
  <g id="Group_1098" data-name="Group 1098" transform="translate(0 0)">
    <g id="Group_1086" data-name="Group 1086">
      <path id="Path_1426" data-name="Path 1426" d="M4.7,6.387a4.711,4.711,0,0,1-.813,2.371A2.283,2.283,0,0,1,1.675,9.7,2.26,2.26,0,0,1,.09,7.989,4.438,4.438,0,0,1,.3,5.576,8.918,8.918,0,0,1,3.881.943,7.9,7.9,0,0,1,5.968,0L5.98,0A10.558,10.558,0,0,1,9.818,7.335,2.488,2.488,0,0,1,8.74,9.991a2.106,2.106,0,0,1-2.024-.167A5.494,5.494,0,0,1,4.7,6.387" transform="translate(9.454 12.494) rotate(-164)" fill="#fd3c59"/>
      <path id="Path_1427" data-name="Path 1427" d="M5.915,4.771A5.93,5.93,0,0,0,4.892,1.787,2.873,2.873,0,0,0,2.108.605a2.844,2.844,0,0,0-2,2.149,5.586,5.586,0,0,0,.26,3.038,11.224,11.224,0,0,0,4.511,5.831,9.94,9.94,0,0,0,2.627,1.183l.015,0a13.288,13.288,0,0,0,4.83-9.233C12.451,2.307,12.287.855,11,.235a2.651,2.651,0,0,0-2.548.21C6.921,1.4,6.391,3.132,5.915,4.771" transform="matrix(0.998, -0.07, 0.07, 0.998, 9.385, 17.574)" fill="#fd3c59"/>
    </g>
  </g>
</svg>
