<svg xmlns="http://www.w3.org/2000/svg" xmlns:xlink="http://www.w3.org/1999/xlink" width="55.341" height="54.745" viewBox="0 0 55.341 54.745">
  <defs>
    <clipPath id="clip-path">
      <path id="Path_1435" data-name="Path 1435" d="M-3833.037,1203.556l-.015,0,0-.015a1.736,1.736,0,0,1-.267-.822,5.4,5.4,0,0,0-3.14-4.419c1.447-3.406-4.185-6.53-4.185-6.53l-2.436-8.174,1.189.177,7.107.318s4.495,4.606,7.4,2.312a5.4,5.4,0,0,0,5.064,1.868,9.251,9.251,0,0,0,1.406-.635,7.547,7.547,0,0,0,2.819,4.341,7.671,7.671,0,0,0,3.767,1.539c-.039.075-.057.157-.092.234-.049.653-.13,3.737,2.858,4.5,0,0-1.061,2.481,2.295,5.19l.148,7.327-5.631-.144c-3.5-2.523-5.691-.739-5.691-.739-1.71-3-5.218-1.523-5.218-1.523a7.678,7.678,0,0,0-2.478-3.229,7.588,7.588,0,0,0-4.49-1.575C-3832.769,1203.673-3832.915,1203.689-3833.037,1203.556Z" transform="translate(3843.076 -1183.594)" fill="none"/>
    </clipPath>
    <clipPath id="clip-path-2">
      <path id="Path_1443" data-name="Path 1443" d="M-3831.76,1234.788l-.016.009c0-.005,0-.012-.006-.017a2.056,2.056,0,0,1-.761-.676,6.365,6.365,0,0,0-5.83-2.608c-.567-4.324-8.15-4.126-8.15-4.126l-7.36-6.843,1.314-.531,7.4-3.925s7.321,1.988,8.9-2.078a6.364,6.364,0,0,0,6.261-1.139,10.817,10.817,0,0,0,1.048-1.485,8.9,8.9,0,0,0,5.458,2.721,9.038,9.038,0,0,0,4.743-.691c.006.1.04.2.046.293.338.692,2.1,3.874,5.593,2.858,0,0,.407,3.153,5.433,3.9l4.53,7.349-5.8,3.22c-5.059-.47-6.22,2.653-6.22,2.653-3.527-2.025-6.206,1.573-6.206,1.573a9.044,9.044,0,0,0-4.444-1.8,8.935,8.935,0,0,0-5.5,1.087C-3831.419,1234.747-3831.556,1234.852-3831.76,1234.788Z" transform="translate(3853.884 -1211.37)" fill="none"/>
    </clipPath>
    <linearGradient id="linear-gradient" x1="37.55" y1="-60.222" x2="37.535" y2="-60.222" gradientUnits="objectBoundingBox">
      <stop offset="0.004" stop-color="#7ca13d"/>
      <stop offset="1" stop-color="#83b540"/>
    </linearGradient>
  </defs>
  <g id="Group_206" data-name="Group 206" transform="translate(12.368 -2.367) rotate(16)">
    <g id="Group_202" data-name="Group 202" transform="translate(8.589)">
      <g id="Group_1088" data-name="Group 1088">
        <g id="Group_1087" data-name="Group 1087" clip-path="url(#clip-path)">
          <g id="Group_201" data-name="Group 201" transform="translate(-0.368 -0.367)">
            <path id="Path_479" data-name="Path 479" d="M-3833.037,1203.556l-.015,0,0-.015a1.736,1.736,0,0,1-.267-.822,5.4,5.4,0,0,0-3.14-4.419c1.447-3.406-4.185-6.53-4.185-6.53l-2.436-8.174,1.189.177,7.107.318s4.495,4.606,7.4,2.312a5.4,5.4,0,0,0,5.064,1.868,9.251,9.251,0,0,0,1.406-.635,7.547,7.547,0,0,0,2.819,4.341,7.671,7.671,0,0,0,3.767,1.539c-.039.075-.057.157-.092.234-.049.653-.13,3.737,2.858,4.5,0,0-1.061,2.481,2.295,5.19l.148,7.327-5.631-.144c-3.5-2.523-5.691-.739-5.691-.739-1.71-3-5.218-1.523-5.218-1.523a7.678,7.678,0,0,0-2.478-3.229,7.588,7.588,0,0,0-4.49-1.575C-3832.769,1203.673-3832.915,1203.689-3833.037,1203.556Z" transform="translate(3843.444 -1183.227)" fill="#96d788"/>
            <path id="Path_1428" data-name="Path 1428" d="M-3809.229,1211.013a.368.368,0,0,0,.288-.138.37.37,0,0,0-.058-.518l-33.973-27.169a.37.37,0,0,0-.518.057.369.369,0,0,0,.058.518l33.972,27.17A.368.368,0,0,0-3809.229,1211.013Z" transform="translate(3843.57 -1183.108)" fill="#0e1f29"/>
            <path id="Path_1429" data-name="Path 1429" d="M-3839.715,1212.261a.33.33,0,0,0,.072-.008.369.369,0,0,0,.29-.433c-.012-.06-1.173-6.055,1.793-8.687a.369.369,0,0,0,.031-.52.367.367,0,0,0-.52-.031c-3.284,2.914-2.08,9.12-2.026,9.383A.367.367,0,0,0-3839.715,1212.261Z" transform="translate(3869.699 -1187.838)" fill="#0e1f29"/>
            <path id="Path_1430" data-name="Path 1430" d="M-3832.564,1215.267a.366.366,0,0,0,.348-.249c1.664-4.865,7.824-3.826,8.085-3.781a.366.366,0,0,0,.428-.3.368.368,0,0,0-.3-.427c-.07-.015-7.042-1.2-8.912,4.267a.367.367,0,0,0,.229.468A.343.343,0,0,0-3832.564,1215.267Z" transform="translate(3850.365 -1189.767)" fill="#0e1f29"/>
            <path id="Path_1431" data-name="Path 1431" d="M-3824.68,1208.892a.367.367,0,0,0,.339-.225c2.257-5.313,9.456-3.789,9.529-3.773a.368.368,0,0,0,.439-.28.368.368,0,0,0-.28-.439c-.078-.019-7.87-1.674-10.366,4.2a.367.367,0,0,0,.195.483A.363.363,0,0,0-3824.68,1208.892Z" transform="translate(3835.072 -1188.194)" fill="#0e1f29"/>
            <path id="Path_1432" data-name="Path 1432" d="M-3818.432,1198.335a.367.367,0,0,0,.261-.107.37.37,0,0,0,0-.521c-4.068-4.066-1.242-10.3-1.212-10.36a.368.368,0,0,0-.178-.489.368.368,0,0,0-.49.177c-.031.067-3.078,6.758,1.359,11.193A.367.367,0,0,0-3818.432,1198.335Z" transform="translate(3835.787 -1184.015)" fill="#0e1f29"/>
            <path id="Path_1433" data-name="Path 1433" d="M-3816.825,1201.966a.37.37,0,0,0,.339-.224c1.606-3.792,9-3.084,9.069-3.074a.371.371,0,0,0,.4-.329.369.369,0,0,0-.329-.4c-.328-.034-8.006-.766-9.823,3.521a.369.369,0,0,0,.2.484A.372.372,0,0,0-3816.825,1201.966Z" transform="translate(3821.78 -1186.71)" fill="#0e1f29"/>
            <path id="Path_1434" data-name="Path 1434" d="M-3809.567,1194.307a.368.368,0,0,0,.317-.18c.976-1.641,5.906-1.481,7.724-1.285a.381.381,0,0,0,.406-.326.367.367,0,0,0-.325-.406c-.715-.08-7.044-.7-8.437,1.641a.368.368,0,0,0,.128.5A.361.361,0,0,0-3809.567,1194.307Z" transform="translate(3810.402 -1185.272)" fill="#0e1f29"/>
          </g>
        </g>
      </g>
    </g>
    <g id="Group_204" data-name="Group 204" transform="translate(0 20.997)">
      <g id="Group_1090" data-name="Group 1090" transform="translate(0 0)">
        <g id="Group_1089" data-name="Group 1089" clip-path="url(#clip-path-2)">
          <g id="Group_203" data-name="Group 203" transform="translate(-0.434)">
            <path id="Path_487" data-name="Path 487" d="M-3831.76,1234.788l-.016.009c0-.005,0-.012-.006-.017a2.056,2.056,0,0,1-.761-.676,6.365,6.365,0,0,0-5.83-2.608c-.567-4.324-8.15-4.126-8.15-4.126l-7.36-6.843,1.314-.531,7.4-3.925s7.321,1.988,8.9-2.078a6.364,6.364,0,0,0,6.261-1.139,10.817,10.817,0,0,0,1.048-1.485,8.9,8.9,0,0,0,5.458,2.721,9.038,9.038,0,0,0,4.743-.691c.006.1.04.2.046.293.338.692,2.1,3.874,5.593,2.858,0,0,.407,3.153,5.433,3.9l4.53,7.349-5.8,3.22c-5.059-.47-6.22,2.653-6.22,2.653-3.527-2.025-6.206,1.573-6.206,1.573a9.044,9.044,0,0,0-4.444-1.8,8.935,8.935,0,0,0-5.5,1.087C-3831.419,1234.747-3831.556,1234.852-3831.76,1234.788Z" transform="translate(3854.318 -1211.37)" fill="url(#linear-gradient)"/>
            <path id="Path_1436" data-name="Path 1436" d="M-3803.3,1231.048a.433.433,0,0,0,.428-.374.433.433,0,0,0-.368-.491l-50.726-7.271a.437.437,0,0,0-.491.368.434.434,0,0,0,.368.491l50.727,7.271A.444.444,0,0,0-3803.3,1231.048Z" transform="translate(3854.458 -1214.186)" fill="#194744"/>
            <path id="Path_1437" data-name="Path 1437" d="M-3841.665,1228.833a.435.435,0,0,0,.291-.11.436.436,0,0,0,.033-.614c-.048-.054-4.814-5.443-3.373-9.891a.435.435,0,0,0-.28-.547.435.435,0,0,0-.547.28c-1.6,4.923,3.342,10.5,3.553,10.738A.434.434,0,0,0-3841.665,1228.833Z" transform="translate(3886.322 -1212.903)" fill="#194744"/>
            <path id="Path_1438" data-name="Path 1438" d="M-3837.99,1240.285a.434.434,0,0,0,.088-.009.433.433,0,0,0,.338-.512c-1.219-5.935,5.653-8.563,5.947-8.672a.435.435,0,0,0,.256-.559.434.434,0,0,0-.557-.256c-.079.029-7.866,2.994-6.5,9.661A.432.432,0,0,0-3837.99,1240.285Z" transform="translate(3870.921 -1215.978)" fill="#194744"/>
            <path id="Path_1439" data-name="Path 1439" d="M-3826.3,1239.427a.383.383,0,0,0,.058,0,.433.433,0,0,0,.374-.487c-.885-6.754,7.334-9.5,7.417-9.527a.434.434,0,0,0,.28-.547.436.436,0,0,0-.547-.28c-.09.03-8.99,3-8.011,10.467A.434.434,0,0,0-3826.3,1239.427Z" transform="translate(3848.841 -1215.566)" fill="#194744"/>
            <path id="Path_1440" data-name="Path 1440" d="M-3812.725,1225.307a.434.434,0,0,0,.42-.326.434.434,0,0,0-.312-.529c-6.56-1.7-7.416-9.711-7.423-9.792a.426.426,0,0,0-.475-.39.433.433,0,0,0-.39.473c.008.087.917,8.7,8.071,10.55A.449.449,0,0,0-3812.725,1225.307Z" transform="translate(3838.523 -1212.077)" fill="#194744"/>
            <path id="Path_1441" data-name="Path 1441" d="M-3814.6,1236.742a.389.389,0,0,0,.058,0,.434.434,0,0,0,.374-.488c-.636-4.8,7.289-8.5,7.369-8.541a.433.433,0,0,0,.212-.576.435.435,0,0,0-.575-.214c-.352.162-8.587,4.009-7.867,9.444A.434.434,0,0,0-3814.6,1236.742Z" transform="translate(3828.369 -1215.156)" fill="#194744"/>
            <path id="Path_1442" data-name="Path 1442" d="M-3803.805,1232.512a.433.433,0,0,0,.434-.432c.011-2.25,5.109-5.038,7.072-5.922a.432.432,0,0,0,.218-.573.433.433,0,0,0-.574-.218c-.775.348-7.569,3.5-7.584,6.708a.433.433,0,0,0,.432.436Z" transform="translate(3809.673 -1214.777)" fill="#194744"/>
          </g>
        </g>
      </g>
    </g>
    <g id="Group_205" data-name="Group 205" transform="translate(30.308 19.455)">
      <circle id="Ellipse_7" data-name="Ellipse 7" cx="9.472" cy="9.472" r="9.472" transform="translate(0)" fill="#fd3c59"/>
      <path id="Path_495" data-name="Path 495" d="M-3843.455,1213.6a9.457,9.457,0,0,1-4.266,12.675,9.451,9.451,0,0,1-4.221.986,9.466,9.466,0,0,0,12.708-4.208,9.466,9.466,0,0,0-4.209-12.707,9.469,9.469,0,0,0-4.267-1.007A9.426,9.426,0,0,1-3843.455,1213.6Z" transform="translate(3857.174 -1209.333)" fill="#ea0137" opacity="0.38" style="isolation: isolate"/>
    </g>
  </g>
</svg>
