<svg xmlns="http://www.w3.org/2000/svg" xmlns:xlink="http://www.w3.org/1999/xlink" width="230" height="52.556" viewBox="0 0 230 52.556">
  <defs>
    <clipPath id="clip-path">
      <path id="Path_1573" data-name="Path 1573" d="M-461.6,842.109a6.732,6.732,0,0,1-4.391.973,9.335,9.335,0,0,0-9.376,4.738,6.359,6.359,0,0,1-3.507,2.814,9.224,9.224,0,0,0-6.223,7.85,6.776,6.776,0,0,1-2.023,4.017,10.011,10.011,0,0,0-3.062,7.27c0,.043,0,.086,0,.129a66.982,66.982,0,0,1,20.792-14.28c12.545-5.624,25.269-7.252,35.043-5.24a6.216,6.216,0,0,1-2.867-2.56,9.334,9.334,0,0,0-9.376-4.738,6.735,6.735,0,0,1-4.392-.973,9.169,9.169,0,0,0-5.309-1.679,9.175,9.175,0,0,0-5.311,1.679" transform="translate(490.178 -840.43)" fill="none"/>
    </clipPath>
    <linearGradient id="linear-gradient" x1="8.508" y1="-3.589" x2="8.525" y2="-3.589" gradientUnits="objectBoundingBox">
      <stop offset="0" stop-color="#6dad19"/>
      <stop offset="0.351" stop-color="#429b22"/>
      <stop offset="0.784" stop-color="#12872d"/>
      <stop offset="1" stop-color="#008032"/>
    </linearGradient>
    <clipPath id="clip-path-2">
      <path id="Path_1574" data-name="Path 1574" d="M-469.385,855.893a66.983,66.983,0,0,0-20.792,14.28,10.161,10.161,0,0,0,8.766,9.937c5.434-6.491,13.412-12.5,23.1-16.847,10.719-4.806,21.573-6.694,30.6-5.885a9.253,9.253,0,0,0-5.991-6.472,6.851,6.851,0,0,1-.64-.253,42.75,42.75,0,0,0-8.594-.828,65.79,65.79,0,0,0-26.449,6.068" transform="translate(490.177 -849.825)" fill="none"/>
    </clipPath>
    <linearGradient id="linear-gradient-2" x1="7.8" y1="-3.386" x2="7.815" y2="-3.386" gradientUnits="objectBoundingBox">
      <stop offset="0" stop-color="#4ca223"/>
      <stop offset="0.267" stop-color="#2c9429"/>
      <stop offset="0.542" stop-color="#14892e"/>
      <stop offset="0.794" stop-color="#058230"/>
      <stop offset="1" stop-color="#008032"/>
    </linearGradient>
  </defs>
  <g id="Group_1179" data-name="Group 1179" transform="translate(490.178 -840.43)">
    <g id="Group_1178" data-name="Group 1178" transform="translate(-490.178 840.43)">
      <g id="Group_1172" data-name="Group 1172" transform="translate(87.6 1.697)">
        <path id="Path_1566" data-name="Path 1566" d="M-399.949,885.761c0-2.868,1.051-5.584,5.081-5.584a9.182,9.182,0,0,1,2.485.368l-.274,1.517a6.162,6.162,0,0,0-2.157-.4c-2.4,0-3.346,1.679-3.346,4.124,0,2.32,1.079,3.769,3.386,3.769a7.8,7.8,0,0,0,2.281-.383l.178,1.529a8.961,8.961,0,0,1-2.526.369c-3.974,0-5.108-2.484-5.108-5.3Zm15.645,5.013-1.38.246a2.8,2.8,0,0,1-.506-1.3,2.671,2.671,0,0,1-2.4,1.337,2.339,2.339,0,0,1-2.567-2.47c0-1.913,1.024-2.486,4.766-2.651v-.532c0-.806-.15-1.339-1.42-1.339a5.144,5.144,0,0,0-2.362.628l-.355-1.365a7.313,7.313,0,0,1,2.909-.628c2.089,0,2.772.874,2.772,2.69v3.085a3.786,3.786,0,0,0,.547,2.3m-5.326-2.226c0,.97.806,1.175,1.352,1.175a1.915,1.915,0,0,0,1.884-1.461v-1.107c-2.486.137-3.237.342-3.237,1.393m10.286,1.12v1.243l-.75.041c-1.352.069-2.226-.422-2.226-1.883v-4.739h-1.256v-1.284h1.256v-1.8l1.612-.41v2.214h1.652v1.284h-1.652v4.123c0,.929.2,1.216.9,1.216Zm5.774-6.869c2.035,0,2.581,1.284,2.581,2.7v5.381h-1.625v-4.971c0-1.011-.341-1.762-1.447-1.762a2.625,2.625,0,0,0-1.953.875v5.858h-1.652V880.04l1.652-.246v3.987a3.555,3.555,0,0,1,2.445-.984m10.989,7.976-1.38.246a2.8,2.8,0,0,1-.5-1.3,2.671,2.671,0,0,1-2.4,1.337,2.34,2.34,0,0,1-2.568-2.47c0-1.913,1.025-2.486,4.766-2.651v-.532c0-.806-.15-1.339-1.419-1.339a5.151,5.151,0,0,0-2.363.628l-.355-1.365a7.317,7.317,0,0,1,2.909-.628c2.089,0,2.773.874,2.773,2.69v3.085a3.794,3.794,0,0,0,.546,2.3m-5.325-2.226c0,.97.806,1.175,1.351,1.175a1.914,1.914,0,0,0,1.884-1.461v-1.107c-2.485.137-3.236.342-3.236,1.393m11.369-5.6h1.8c-.655,1.981-1.9,5.626-2.7,7.648a12.294,12.294,0,0,1-1.925,3.537l-1.6-.711a9.322,9.322,0,0,0,1.939-3.086l-3.086-7.387h1.83l2.076,5.626c.574-1.652,1.256-4.028,1.666-5.626" transform="translate(399.949 -843.274)" fill="#1a1311"/>
        <path id="Path_1567" data-name="Path 1567" d="M-346.185,889.42h4.3v1.461h-5.967V880.393h1.665Zm7.362-7.661h-1.707v-1.5h1.707Zm-.027,9.122H-340.5v-7.934h1.652Zm1.327-6.554v-1.284h1.351v-.328c0-1.311.533-2.949,2.745-2.949a6.022,6.022,0,0,1,1.461.164l-.232,1.338a4.323,4.323,0,0,0-1.024-.136c-.983,0-1.351.491-1.351,1.639v.273h1.761v1.284h-1.761v6.554h-1.6v-6.554Zm9.6,5.393a6.14,6.14,0,0,0,2.308-.45l.3,1.311a6.82,6.82,0,0,1-2.745.533c-2.854,0-4-1.762-4-4.1,0-2.445,1.3-4.343,3.783-4.343,2.2,0,3.073,1.5,3.073,3.578v.956h-5.216a2.236,2.236,0,0,0,2.485,2.513Zm-.533-5.777a2.069,2.069,0,0,0-1.925,2.089h3.674c-.014-1.284-.465-2.089-1.735-2.089Z" transform="translate(398.431 -843.273)" fill="#1a1311"/>
        <path id="Path_1568" data-name="Path 1568" d="M-316.683,890.9h-1.692V880.412h1.692Zm3.619-8.057a4.894,4.894,0,0,1,.259,1.038,3.627,3.627,0,0,1,2.526-1.066c2.048,0,2.6,1.284,2.6,2.7V890.9h-1.64v-4.972c0-1.011-.342-1.761-1.448-1.761a2.767,2.767,0,0,0-1.967.846V890.9h-1.638v-6.214a6.256,6.256,0,0,0-.191-1.639Zm11.7,1.584a4.5,4.5,0,0,0-1.749-.4c-.5,0-1.174.179-1.174.917,0,.532.382.777,1.379,1.255,1.133.532,2.09,1.106,2.09,2.472a2.337,2.337,0,0,1-2.635,2.445,8.88,8.88,0,0,1-2.732-.478l.368-1.394a6.283,6.283,0,0,0,2.2.492c.628,0,1.173-.2,1.173-1,0-.615-.56-.957-1.624-1.447-1.106-.506-1.83-1-1.83-2.267,0-1.872,1.6-2.281,2.785-2.281a6.958,6.958,0,0,1,2.145.355Zm4.686,6.649c-2.047,0-2.594-1.3-2.594-2.717v-5.393h1.64v5c0,1,.327,1.749,1.448,1.749a2.732,2.732,0,0,0,1.951-.847v-5.9h1.652v5.653a8.586,8.586,0,0,0,.233,2.2l-1.543.217a5,5,0,0,1-.247-1,3.747,3.747,0,0,1-2.541,1.037m10.415-8.22-.083,1.461a2.514,2.514,0,0,0-2.376,1.161V890.9h-1.638v-5.914a7.785,7.785,0,0,0-.191-1.939l1.5-.2a5.477,5.477,0,0,1,.272,1.2,2.985,2.985,0,0,1,2.515-1.188m7.486,7.934-1.38.246a2.8,2.8,0,0,1-.506-1.3,2.669,2.669,0,0,1-2.4,1.338,2.341,2.341,0,0,1-2.567-2.471c0-1.913,1.023-2.485,4.765-2.649v-.532c0-.806-.15-1.339-1.42-1.339a5.146,5.146,0,0,0-2.361.627l-.355-1.365a7.33,7.33,0,0,1,2.909-.627c2.088,0,2.771.874,2.771,2.689V888.5a3.78,3.78,0,0,0,.548,2.294m-5.326-2.226c0,.97.807,1.175,1.351,1.175a1.912,1.912,0,0,0,1.884-1.461v-1.106c-2.484.136-3.236.341-3.236,1.392m8.261-5.721a4.781,4.781,0,0,1,.259,1.038,3.633,3.633,0,0,1,2.527-1.066c2.048,0,2.594,1.284,2.594,2.7V890.9h-1.639v-4.972c0-1.011-.341-1.761-1.447-1.761a2.771,2.771,0,0,0-1.968.846V890.9h-1.638v-6.214a6.256,6.256,0,0,0-.191-1.639Zm7.121,4.151c0-2.226.875-4.274,3.933-4.274a6.213,6.213,0,0,1,1.856.286l-.3,1.38a4.637,4.637,0,0,0-1.531-.274c-1.665,0-2.306,1.2-2.306,2.9,0,1.625.709,2.717,2.361,2.717a4.4,4.4,0,0,0,1.584-.286l.231,1.407a6.269,6.269,0,0,1-1.912.286c-3.044,0-3.918-2.008-3.918-4.124Zm10.822,2.745a6.141,6.141,0,0,0,2.309-.451l.3,1.311a6.826,6.826,0,0,1-2.745.533c-2.854,0-4-1.762-4-4.1,0-2.445,1.3-4.343,3.782-4.343,2.2,0,3.074,1.5,3.074,3.578v.956h-5.217a2.236,2.236,0,0,0,2.485,2.513Zm-.531-5.777a2.068,2.068,0,0,0-1.925,2.089h3.673c-.015-1.284-.464-2.089-1.735-2.089Z" transform="translate(397.572 -843.292)" fill="#1a1311"/>
        <path id="Path_1569" data-name="Path 1569" d="M-373.415,842.957h-24.99a1.543,1.543,0,0,0-1.544,1.536v22.419a1.543,1.543,0,0,0,1.535,1.544h24.99a1.535,1.535,0,0,0,1.538-1.533V844.5a1.536,1.536,0,0,0-1.529-1.543m-8.286,1.877h2.153c.111.57.267,1.455.429,2.552h-2.534c-.064-1.179-.059-2.072-.049-2.552m-14.747,0h12.015c.016.481.057,1.375.17,2.552h-12.187Zm21.071,21.748h-21.077l0-17.309h12.4a37.8,37.8,0,0,0,2.619,9.838,18.25,18.25,0,0,1-4.565,4.73.184.184,0,0,0-.043.263l.567,1.085s.084.215.262.082a17.624,17.624,0,0,0,4.786-4.115,17.216,17.216,0,0,0,3.407,4.412.188.188,0,0,0,.28.034l.852-1.01s.114-.09-.016-.207a20.919,20.919,0,0,1-3.112-5.09,34.278,34.278,0,0,0,2.51-4.347c.123-.237-.09-.311-.09-.311l-1.8-.727a.2.2,0,0,0-.277.124,29.81,29.81,0,0,1-1.31,2.726,36.034,36.034,0,0,1-1.533-7.488h4.537s.648,0,.619-.8c-.26-1.423-.521-2.843-.67-3.644h1.65Zm-18.219-8.2,7.1,0a1.537,1.537,0,0,0,1.535-1.537v-4.392a1.536,1.536,0,0,0-1.533-1.538h-7.1a1.536,1.536,0,0,0-1.537,1.536v4.393a1.534,1.534,0,0,0,1.536,1.536m1.86-5.85h3.387l0,4.241-3.388,0Zm6.777,8.68v-1.319a.156.156,0,0,0-.208-.169,43.225,43.225,0,0,1-9.661,1.412h-.013a.292.292,0,0,0-.292.288v2.111a.29.29,0,0,0,.291.286h.025a33.42,33.42,0,0,0,9.68-2.347.292.292,0,0,0,.178-.262" transform="translate(399.949 -842.201)" fill="#1a1311"/>
        <path id="Path_1570" data-name="Path 1570" d="M-266.228,849.512h-24.547a.357.357,0,0,0-.366.349v1.115a.364.364,0,0,0,.366.359h23.49l-.613,2.412a.358.358,0,0,0,.351.365h1.683c.251,0,.253-.153.339-.364,0,0,.643-1.954.816-2.638.16-.618.032-1.6-1.519-1.6m-15.464,11.181h-7.038a1.533,1.533,0,0,0-1.536,1.533v3.313a1.534,1.534,0,0,0,1.536,1.535h7.034a1.535,1.535,0,0,0,1.537-1.533l0-3.313a1.537,1.537,0,0,0-1.535-1.535m-1.857,4.77h-3.323V862.3h3.323Zm-7.259-19.691h10.238v.959h-8.07a.285.285,0,0,0-.285.285v1.249a.285.285,0,0,0,.285.285h19.773a.286.286,0,0,0,.285-.285v-1.249a.286.286,0,0,0-.285-.285h-8.071l0-.959H-266.7a.286.286,0,0,0,.285-.286v-1.249a.286.286,0,0,0-.285-.286h-10.238v-.885a.358.358,0,0,0-.351-.365h-2.928a.357.357,0,0,0-.353.364v.886h-10.238a.286.286,0,0,0-.285.286v1.249a.286.286,0,0,0,.285.286m.829,9.3a.288.288,0,0,0-.286.286v1.253a.288.288,0,0,0,.286.286h22.451a.287.287,0,0,0,.286-.286v-1.253a.287.287,0,0,0-.286-.286h-9.412v-.957h8.07a.285.285,0,0,0,.285-.285v-1.25a.286.286,0,0,0-.285-.285h-19.773a.285.285,0,0,0-.285.285v1.25a.285.285,0,0,0,.285.285h8.07v.957Zm24.865,2.784h-27.294a.287.287,0,0,0-.286.285v1.249a.287.287,0,0,0,.286.285h20.337v1.019h-6.791a.286.286,0,0,0-.285.285v1.249a.286.286,0,0,0,.285.286h2.032l.394,2.684a.28.28,0,0,0,.3.265h2.1a.16.16,0,0,0,.169-.15v0l-.753-2.8h2.551l0,2.853c-.017.774-.148,1.193-1.418,1.193h-.72c-.087,0-.1.057-.1.087v1.362a.438.438,0,0,0,.438.437l1.324,0c3.016,0,3.974-.412,3.976-3.032v-2.9h1.875a.286.286,0,0,0,.286-.286v-1.249a.286.286,0,0,0-.286-.285h-1.875v-1.019h3.467a.286.286,0,0,0,.285-.285v-1.249a.286.286,0,0,0-.285-.285" transform="translate(396.824 -842.193)" fill="#1a1311"/>
        <path id="Path_1571" data-name="Path 1571" d="M-300.07,867.069l-.938,1.193a.4.4,0,0,1-.492.159l-.017-.01,0,0c-7.515-3.064-11.02-9.5-12.649-15.129-1.627,5.626-5.133,12.065-12.649,15.129v0a.075.075,0,0,1-.019.01.4.4,0,0,1-.491-.159l-.937-1.193s-.163-.241.058-.379c.526-.27,1.2-.635,1.738-.968,10.063-6.44,10.346-20.358,10.332-22.36a.242.242,0,0,1,.242-.243h3.456a.242.242,0,0,1,.24.243c-.012,2,.27,15.92,10.334,22.36.54.333,1.21.7,1.737.968.222.138.059.379.059.379" transform="translate(397.862 -842.206)" fill="#1a1311"/>
        <path id="Path_1572" data-name="Path 1572" d="M-349.673,856.673h-1.608a.352.352,0,0,0-.353.348v8.334c-.017.77-.15,1.19-1.411,1.192h-.728c-.119,0-.106.1-.106.1V868a.436.436,0,0,0,.436.437h1.327c3.015,0,3.972-.41,3.975-3.029l0-7.2a1.538,1.538,0,0,0-1.534-1.536m13.631,2.1a19.819,19.819,0,0,1-5.2-3.518h5.2a.288.288,0,0,0,.286-.286v-1.536a.286.286,0,0,0-.286-.286h-17.782c.628-.807,1.208-1.625,1.732-2.43H-339.4a.285.285,0,0,0,.286-.287V848.9a.286.286,0,0,0-.286-.287H-350.81c.492-.87.917-1.691,1.27-2.428h12.481a.286.286,0,0,0,.286-.288v-1.536a.285.285,0,0,0-.286-.285h-11.547c.122-.307.218-.569.286-.765.1-.286.083-.5-.235-.573-.681-.146-2.062-.428-2.468-.533a.5.5,0,0,0-.634.407l-.223.722c-.073.225-.16.476-.255.742h-10.3a.286.286,0,0,0-.286.285v1.536a.287.287,0,0,0,.286.288H-353c-.34.762-.736,1.581-1.19,2.428h-5.957a.286.286,0,0,0-.286.287v1.532a.285.285,0,0,0,.286.287h4.739c-.512.818-1.071,1.638-1.679,2.43h-6.468a.285.285,0,0,0-.284.286v1.536a.286.286,0,0,0,.284.286h4.668a16.271,16.271,0,0,1-4.687,3.511.372.372,0,0,0-.236.555l.335.82a.366.366,0,0,0,.52.186,15.985,15.985,0,0,0,3.111-1.537,41.634,41.634,0,0,1,5.669,2.076.207.207,0,0,0,.3-.06l.825-1.732a.213.213,0,0,0-.091-.322,33.335,33.335,0,0,0-4.737-1.39,23.932,23.932,0,0,0,2.248-2.107h11.143a19.647,19.647,0,0,0,2.244,1.986,17.812,17.812,0,0,1-4.664,1.234c-.154.018-.218.12-.175.3.229.69.3,1.23.53,1.913.076.229.182.223.336.186a23.166,23.166,0,0,0,5.729-2.415,20.953,20.953,0,0,0,3.821,1.881.368.368,0,0,0,.52-.185l.336-.822a.372.372,0,0,0-.236-.555m-16.7,4.722c-.086-.615-.1-.533-.228-1.156a.194.194,0,0,0-.281-.151,43.184,43.184,0,0,1-8.738,3.059.24.24,0,0,0-.164.358c.251.537.676,1.474.855,1.871a.378.378,0,0,0,.477.163,49.586,49.586,0,0,0,7.948-3.764.321.321,0,0,0,.131-.38m14.708,1.874a42.388,42.388,0,0,0-8.213-2.855c-.254-.085-.3.106-.3.106l-.519,1.125a.223.223,0,0,0,.114.321,59.582,59.582,0,0,1,7.227,3.454.576.576,0,0,0,.713-.132c.448-.656.633-.96,1.082-1.621a.275.275,0,0,0-.108-.4" transform="translate(398.898 -842.178)" fill="#1a1311"/>
      </g>
      <g id="Group_1174" data-name="Group 1174">
        <g id="Group_1173" data-name="Group 1173" clip-path="url(#clip-path)">
          <rect id="Rectangle_44" data-name="Rectangle 44" width="58.041" height="61.939" transform="matrix(0.629, -0.777, 0.777, 0.629, -14.413, 17.799)" fill="url(#linear-gradient)"/>
        </g>
      </g>
      <g id="Group_1176" data-name="Group 1176" transform="translate(0.001 9.121)">
        <g id="Group_1175" data-name="Group 1175" clip-path="url(#clip-path-2)">
          <rect id="Rectangle_45" data-name="Rectangle 45" width="62.847" height="67.605" transform="translate(-14.812 18.291) rotate(-51)" fill="url(#linear-gradient-2)"/>
        </g>
      </g>
      <g id="Group_1177" data-name="Group 1177" transform="translate(8.766 16.493)">
        <path id="Path_1575" data-name="Path 1575" d="M-425.193,863a6.787,6.787,0,0,1-2.022-4.017,9.05,9.05,0,0,0-.232-1.38c-9.031-.809-19.883,1.08-30.6,5.886-9.686,4.344-17.665,10.355-23.1,16.845a10.154,10.154,0,0,0,1.393.1h14.585a2.53,2.53,0,0,1,2.509,2.534v.589a2.669,2.669,0,0,1-2.3,2.645l-11.859,2.038a.845.845,0,0,0-.784.774v1.456h43.171v-1.456a.845.845,0,0,0-.784-.774l-11.859-2.038a2.668,2.668,0,0,1-2.3-2.645v-.589a2.53,2.53,0,0,1,2.507-2.534h14.586a10.159,10.159,0,0,0,10.16-10.16,10.013,10.013,0,0,0-3.064-7.27" transform="translate(481.149 -857.418)" fill="#008032"/>
      </g>
    </g>
  </g>
</svg>
