<svg xmlns="http://www.w3.org/2000/svg" viewBox="0 0 41.55 169.96"><defs><style>.cls-1{fill:#5c4242;}</style></defs><g id="snow"><path class="cls-1" d="M41.37,3a116.59,116.59,0,0,1-7,14.66c-1.27,2.23-2.87,5.93-5.09,8.16C42.13,73.26,36,126.66,10.84,168.88c-1.48,2.48-5.15.24-3.83-2.29C29.55,123.51,35.76,76.1,24.57,30c-3.45,0-6.45-3.3-9.11-5.37A141.13,141.13,0,0,1,.73,11.91C-1.49,9.63,1.85,6.58,4.2,8.52c4.71,3.9,9.15,8.12,13.86,12,1.52,1.26,3.47,2.46,5.08,3.87Q20.6,15.14,17.14,6c-1-2.69,3.66-4.55,4.78-1.86q3.16,7.64,5.6,15.56c.7-1.07,1.41-2.11,1.94-3.07,2.68-4.89,5-9.89,7.21-15C37.89-1.22,42.53,0,41.37,3Z"/></g></svg>