<?xml version="1.0" encoding="utf-8"?>
<!-- Generator: Adobe Illustrator 16.0.0, SVG Export Plug-In . SVG Version: 6.00 Build 0)  -->
<!DOCTYPE svg PUBLIC "-//W3C//DTD SVG 1.1//EN" "http://www.w3.org/Graphics/SVG/1.1/DTD/svg11.dtd">
<svg version="1.1" id="圖層_1" xmlns="http://www.w3.org/2000/svg" xmlns:xlink="http://www.w3.org/1999/xlink" x="0px" y="0px"
	 width="595.281px" height="841.89px" viewBox="0 0 595.281 841.89" enable-background="new 0 0 595.281 841.89"
	 xml:space="preserve">
<g id="snow">
	<path fill="#5C4242" d="M195.651,827.102c9.855-24.983,21.441-49.248,34.674-72.618c6.291-11.046,14.217-29.374,25.213-40.42
		C191.885,479.072,222.25,214.556,346.878,5.421c7.332-12.285,25.511-1.189,18.973,11.344
		C254.2,230.16,223.438,465.003,278.868,693.358c17.09,0,31.95,16.347,45.126,26.601c25.742,19.299,50.122,40.352,72.965,63.008
		c10.996,11.294-5.548,26.402-17.188,16.792c-23.331-19.318-45.324-40.222-68.655-59.441c-7.529-6.241-17.188-12.186-25.163-19.17
		c8.389,30.547,18.294,60.911,29.721,91.095c4.953,13.324-18.13,22.538-23.678,9.213c-10.436-25.229-19.682-50.921-27.738-77.075
		c-3.469,5.3-6.984,10.451-9.611,15.207c-13.275,24.222-24.768,48.989-35.713,74.302
		C212.887,848.005,189.905,841.962,195.651,827.102z"/>
</g>
</svg>
