<svg xmlns="http://www.w3.org/2000/svg" width="410.574" height="547.649" viewBox="0 0 410.574 547.649">
  <g id="snow" transform="translate(-0.005 11.831)">
    <path id="Path_4011" data-name="Path 4011" d="M408.25,368.87C424.49,464,353.8,515,258.65,531.2s-178.74-8.35-195-103.5a174.789,174.789,0,1,1,344.592-58.83Z" fill="#fff"/>
    <circle id="Ellipse_283" data-name="Ellipse 283" cx="131.84" cy="131.84" r="131.84" transform="translate(11.32 174.62) rotate(-45)" fill="#fff"/>
    <path id="Path_4014" data-name="Path 4014" d="M158.58,167.1a11.05,11.05,0,1,1-12.76-9,11.05,11.05,0,0,1,12.76,9Z" fill="#5c4242"/>
    <circle id="Ellipse_284" data-name="Ellipse 284" cx="11.05" cy="11.05" r="11.05" transform="translate(239.61 140.33)" fill="#5c4242"/>
    <path id="Path_4015" data-name="Path 4015" d="M186.32,160.12c15.56-4.61,57.89-10.12,59.47-5.43s-21.91,15.86-37.29,21.24c-7.32,2.56-12.26,4.4-16.15,5.55-3.64-1.6-6.58-7.92-7-11.24S184.63,164.12,186.32,160.12Z" fill="#f7a200"/>
    <path id="Path_4016" data-name="Path 4016" d="M196,177.43c-3.15-2.26-5.22-4.4-5.1-8.6.07-2.44,1.81-5,1.09-7.31a.08.08,0,0,0-.11-.06c-3,1.31-3.38,7.29-2.88,10,.59,3.22,2.93,7,6.47,7.33a.79.79,0,0,0,.53-1.36Z" fill="#ea9300"/>
    <path id="Path_4017" data-name="Path 4017" d="M205.83,173.06c-1-1.92-3.05-2.84-4-5-1.07-2.5-.68-5-.12-7.53.14-.64-.82-.94-1.16-.43a9.2,9.2,0,0,0-.8,8c.77,2.22,2.89,5.66,5.54,5.61a.51.51,0,0,0,.54-.65Z" fill="#ea9300"/>
    <path id="Path_4018" data-name="Path 4018" d="M217,169.08c-1.8-1.29-3.53-2.78-4.05-5.05-.46-2,.44-3.69.49-5.64a.24.24,0,0,0-.34-.24c-2.45,1-2.74,4.66-2.17,6.92a7.11,7.11,0,0,0,5.56,5.39.761.761,0,0,0,.51-1.38Z" fill="#ea9300"/>
    <path id="Path_4019" data-name="Path 4019" d="M227.23,165.1a10.52,10.52,0,0,1-2.8-3.32,7.08,7.08,0,0,1-.59-4.67c.09-.24-.28-.46-.42-.22a5.35,5.35,0,0,0-.86,5.62,5.24,5.24,0,0,0,4.24,3.74.64.64,0,0,0,.43-1.15Z" fill="#ea9300"/>
    <path id="Path_4020" data-name="Path 4020" d="M235.14,160.07a5.15,5.15,0,0,1-2.22-3.95.59.59,0,0,0-1-.24,3.92,3.92,0,0,0,2.75,5.59C235.4,161.61,235.74,160.49,235.14,160.07Z" fill="#ea9300"/>
    <path id="Path_4021" data-name="Path 4021" d="M211.91,198.94c-6.92.22-13.75,1.66-20.67.49-8.84-1.49-14.34-6.34-20.47-12.41a1.1,1.1,0,0,0-1.83,1.17c5.15,16.31,30,19.27,43.45,13.54C213.65,201.2,213.4,198.89,211.91,198.94Z" fill="#5c4242"/>
    <circle id="Ellipse_285" data-name="Ellipse 285" cx="13.56" cy="13.56" r="13.56" transform="translate(219.37 306.38)" fill="#5c4242"/>
    <circle id="Ellipse_286" data-name="Ellipse 286" cx="13.56" cy="13.56" r="13.56" transform="translate(231.45 377.18)" fill="#5c4242"/>
    <circle id="Ellipse_287" data-name="Ellipse 287" cx="13.56" cy="13.56" r="13.56" transform="translate(225.41 341.78)" fill="#5c4242"/>
    <path id="Path_4022" data-name="Path 4022" d="M222.12,270.07c3.24-12.5,10.34-24.13,18-34.51a17.28,17.28,0,0,1,5.22-5.14c2.15-1.19,5-1.43,7,0,1.6,1.17,2.34,3.17,2.93,5.07,5.74,18.57,4.85,38.69.58,57.66-.78,3.46-2.34,7.55-5.85,8.08-2,.31-3.9-.7-5.63-1.72a116.1,116.1,0,0,1-22.58-17.08q-6.63,10.94-14,21.38c-1.54,2.19-3.19,4.43-5.55,5.7-4.2,2.26-9.68.71-13.18-2.55s-5.41-7.84-6.92-12.37a110.11,110.11,0,0,1-5.43-28.41c-.37-6.39-.14-13,2.25-18.92.55-1.36,1.33-2.79,2.7-3.31,1.62-.6,3.38.29,4.85,1.21,9.58,6,23.63,15.77,29.55,25.4Z" fill="#ea4e5e"/>
    <path id="Path_4023" data-name="Path 4023" d="M165.66,18.86S109.57-12.89,67.79,6c-49,22.18-55,108.16-53.72,110s19.35,4.84,19.35,4.84S48.44,87.18,74.8,95C91.27,99.88,165.66,18.86,165.66,18.86Z" fill="#e52c47"/>
    <path id="Path_4024" data-name="Path 4024" d="M205.56,41.62c-23.31,1.66-112.71,48.71-127,72.58a1.89,1.89,0,0,1-3.34-.15c-2.5-5.24-6.75-15.19-6.68-22,.26-26.38,40.13-70.19,91.23-78.23C181.72,10.34,217.54,40.77,205.56,41.62Z" fill="#fff" stroke="#fdb4be" stroke-miterlimit="10" stroke-width="3"/>
    <path id="Path_4025" data-name="Path 4025" d="M.2,117.83a20.69,20.69,0,1,0,23.31-17.68A20.69,20.69,0,0,0,.2,117.83Z" fill="#fff"/>
  </g>
</svg>
