<svg xmlns="http://www.w3.org/2000/svg" xmlns:xlink="http://www.w3.org/1999/xlink" viewBox="0 0 53.83 57.22"><defs><style>.cls-1{isolation:isolate;}.cls-2{fill:url(#Nueva_muestra_de_degradado_1);}.cls-3{fill:#ff4545;}.cls-4{fill:#ff8c8c;mix-blend-mode:multiply;}</style><linearGradient id="Nueva_muestra_de_degradado_1" x1="1066.04" y1="877.36" x2="1082" y2="877.36" gradientTransform="translate(-982.99 -943.13) rotate(4.18)" gradientUnits="userSpaceOnUse"><stop offset="0" stop-color="#ffb54a"/><stop offset="0.54" stop-color="#ffe282"/><stop offset="0.63" stop-color="#ffd470"/><stop offset="0.81" stop-color="#ffbd54"/><stop offset="0.91" stop-color="#ffb54a"/><stop offset="1" stop-color="#e98720"/></linearGradient></defs><g class="cls-1"><g id="snow"><path class="cls-2" d="M31.79,17.07,19.23,19.76l-2.51-12A6.43,6.43,0,0,1,21.66.14h0a6.42,6.42,0,0,1,7.62,4.94Z"/><path class="cls-3" d="M43.32,6.61c-4.17-2.17-7.49-2-10.11-.8-4.9,2.33-7.29,8.62-8,11-1.64-1.93-6.3-6.77-11.73-7-2.89-.12-6,1.05-9,4.68a19.73,19.73,0,0,0,1,26.06c9.18,9.84,25.29,15.72,27.78,16.59l.17,0,.12-.11C35.46,55.34,48,43.63,52.6,31A19.76,19.76,0,0,0,43.32,6.61Z"/><path class="cls-4" d="M52.6,31C48,43.63,35.46,55.33,33.5,57.11a.57.57,0,0,1-.12.11l-.18,0a96.27,96.27,0,0,1-12.26-5.4C48.3,31.61,45.54,8.51,45.47,7.91A19.82,19.82,0,0,1,52.6,31Z"/></g></g></svg>