<svg xmlns="http://www.w3.org/2000/svg" xmlns:xlink="http://www.w3.org/1999/xlink" viewBox="0 0 651.63 864.17"><defs><style>.cls-1{isolation:isolate;}.cls-2{fill:#d88a50;}.cls-3{fill:#c85b3d;}.cls-4{fill:#d16447;}.cls-5{fill:url(#未命名漸層_16);}.cls-6{fill:#72d985;mix-blend-mode:multiply;}.cls-7{fill:url(#未命名漸層_16-2);}.cls-8{fill:url(#未命名漸層_16-3);}.cls-9{fill:url(#未命名漸層_16-4);}.cls-10{fill:url(#未命名漸層_16-5);}.cls-11{fill:#fff;}.cls-12{fill:#633b55;}.cls-13{fill:url(#Nueva_muestra_de_degradado_1);}.cls-14{fill:url(#Nueva_muestra_de_degradado_1-2);}.cls-15{fill:url(#Nueva_muestra_de_degradado_1-3);}.cls-16{fill:url(#Nueva_muestra_de_degradado_1-4);}.cls-17{fill:url(#Nueva_muestra_de_degradado_1-5);}.cls-18{fill:url(#Nueva_muestra_de_degradado_1-6);}.cls-19{fill:url(#Nueva_muestra_de_degradado_1-7);}.cls-20{fill:url(#Nueva_muestra_de_degradado_1-8);}.cls-21{fill:url(#Nueva_muestra_de_degradado_1-9);}.cls-22{fill:url(#Nueva_muestra_de_degradado_1-10);}.cls-23{fill:url(#Nueva_muestra_de_degradado_1-11);}.cls-24{fill:url(#Nueva_muestra_de_degradado_1-12);}.cls-25{fill:url(#Nueva_muestra_de_degradado_1-13);}.cls-26{fill:url(#Nueva_muestra_de_degradado_1-14);}.cls-27{fill:url(#Nueva_muestra_de_degradado_1-15);}.cls-28{fill:url(#Nueva_muestra_de_degradado_1-16);}.cls-29{fill:url(#Nueva_muestra_de_degradado_1-17);}.cls-30{fill:url(#Nueva_muestra_de_degradado_1-18);}.cls-31{fill:url(#Nueva_muestra_de_degradado_1-19);}.cls-32{fill:url(#Nueva_muestra_de_degradado_1-20);}.cls-33{fill:url(#Nueva_muestra_de_degradado_1-21);}.cls-34{fill:url(#Nueva_muestra_de_degradado_1-22);}.cls-35{fill:url(#Nueva_muestra_de_degradado_1-23);}.cls-36{fill:url(#Nueva_muestra_de_degradado_1-24);}.cls-37{fill:url(#Nueva_muestra_de_degradado_1-25);}.cls-38{fill:url(#Nueva_muestra_de_degradado_1-26);}.cls-39{fill:url(#Nueva_muestra_de_degradado_1-27);}.cls-40{fill:url(#Nueva_muestra_de_degradado_1-28);}.cls-41{fill:url(#Nueva_muestra_de_degradado_1-29);}.cls-42{fill:url(#Nueva_muestra_de_degradado_1-30);}.cls-43{fill:url(#Nueva_muestra_de_degradado_1-31);}.cls-44{fill:url(#Nueva_muestra_de_degradado_1-32);}.cls-45{fill:url(#Nueva_muestra_de_degradado_1-33);}.cls-46{fill:url(#Nueva_muestra_de_degradado_1-34);}.cls-47{fill:url(#Nueva_muestra_de_degradado_1-35);}.cls-48{fill:url(#Nueva_muestra_de_degradado_1-36);}.cls-49{fill:url(#Nueva_muestra_de_degradado_1-37);}.cls-50{fill:url(#Nueva_muestra_de_degradado_1-38);}.cls-51{fill:url(#Nueva_muestra_de_degradado_1-39);}.cls-52{fill:url(#Nueva_muestra_de_degradado_1-40);}.cls-53{fill:url(#Nueva_muestra_de_degradado_1-41);}.cls-54{fill:url(#Nueva_muestra_de_degradado_1-42);}.cls-55{fill:url(#Nueva_muestra_de_degradado_1-43);}.cls-56{fill:url(#Nueva_muestra_de_degradado_1-44);}.cls-57{fill:url(#Nueva_muestra_de_degradado_1-45);}.cls-58{fill:url(#Nueva_muestra_de_degradado_1-46);}.cls-59{fill:url(#Nueva_muestra_de_degradado_1-47);}.cls-60{fill:url(#Nueva_muestra_de_degradado_1-48);}.cls-100,.cls-101,.cls-102,.cls-103,.cls-104,.cls-105,.cls-106,.cls-107,.cls-108,.cls-109,.cls-61,.cls-62,.cls-63,.cls-64,.cls-65,.cls-66,.cls-67,.cls-68,.cls-69,.cls-71,.cls-73,.cls-74,.cls-75,.cls-76,.cls-78,.cls-79,.cls-81,.cls-82,.cls-84,.cls-85,.cls-86,.cls-87,.cls-88,.cls-89,.cls-90,.cls-91,.cls-92,.cls-94,.cls-95,.cls-97,.cls-98,.cls-99{mix-blend-mode:screen;}.cls-61{fill:url(#未命名漸層_7);}.cls-62{fill:url(#未命名漸層_7-2);}.cls-63{fill:url(#未命名漸層_7-3);}.cls-64{fill:url(#未命名漸層_7-4);}.cls-65{fill:url(#未命名漸層_7-5);}.cls-66{fill:url(#未命名漸層_7-6);}.cls-67{fill:url(#未命名漸層_7-7);}.cls-68{fill:url(#未命名漸層_7-8);}.cls-69{fill:url(#未命名漸層_7-9);}.cls-70{fill:url(#Nueva_muestra_de_degradado_1-49);}.cls-71{fill:url(#未命名漸層_7-10);}.cls-72{fill:url(#Nueva_muestra_de_degradado_1-50);}.cls-73{fill:url(#未命名漸層_7-11);}.cls-74{fill:url(#未命名漸層_7-12);}.cls-75{fill:url(#未命名漸層_7-13);}.cls-76{fill:url(#未命名漸層_7-14);}.cls-77{fill:url(#Nueva_muestra_de_degradado_1-51);}.cls-78{fill:url(#未命名漸層_7-15);}.cls-79{fill:url(#未命名漸層_7-16);}.cls-80{fill:url(#Nueva_muestra_de_degradado_1-52);}.cls-81{fill:url(#未命名漸層_7-17);}.cls-82{fill:url(#未命名漸層_7-18);}.cls-83{fill:url(#Nueva_muestra_de_degradado_1-53);}.cls-84{fill:url(#未命名漸層_7-19);}.cls-85{fill:url(#未命名漸層_7-20);}.cls-86{fill:url(#未命名漸層_7-21);}.cls-87{fill:url(#未命名漸層_7-22);}.cls-88{fill:url(#未命名漸層_7-23);}.cls-89{fill:url(#未命名漸層_7-24);}.cls-90{fill:url(#未命名漸層_7-25);}.cls-91{fill:url(#未命名漸層_7-26);}.cls-92{fill:url(#未命名漸層_7-27);}.cls-93{fill:url(#Nueva_muestra_de_degradado_1-54);}.cls-94{fill:url(#未命名漸層_7-28);}.cls-95{fill:url(#未命名漸層_7-29);}.cls-96{fill:url(#Nueva_muestra_de_degradado_1-55);}.cls-97{fill:url(#未命名漸層_7-30);}.cls-98{fill:url(#未命名漸層_7-31);}.cls-99{fill:url(#Degradado_sin_nombre_6);}.cls-100{fill:url(#未命名漸層_7-32);}.cls-101{fill:url(#未命名漸層_7-33);}.cls-102{fill:url(#未命名漸層_7-34);}.cls-103{fill:url(#未命名漸層_7-35);}.cls-104{fill:url(#未命名漸層_7-36);}.cls-105{fill:url(#未命名漸層_7-37);}.cls-106{fill:url(#未命名漸層_7-38);}.cls-107{fill:url(#未命名漸層_7-39);}.cls-108{fill:url(#未命名漸層_7-40);}.cls-109{fill:url(#未命名漸層_7-41);}.cls-110{fill:#ff4545;}</style><linearGradient id="未命名漸層_16" y1="646.31" x2="651.63" y2="646.31" gradientUnits="userSpaceOnUse"><stop offset="0" stop-color="#68a330"/><stop offset="1" stop-color="#68b730"/></linearGradient><linearGradient id="未命名漸層_16-2" x1="26.96" y1="508.64" x2="589.83" y2="508.64" xlink:href="#未命名漸層_16"/><linearGradient id="未命名漸層_16-3" x1="95.58" y1="395.83" x2="552.97" y2="395.83" xlink:href="#未命名漸層_16"/><linearGradient id="未命名漸層_16-4" x1="169.33" y1="255.08" x2="462.23" y2="255.08" xlink:href="#未命名漸層_16"/><linearGradient id="未命名漸層_16-5" x1="227.85" y1="153.54" x2="401.33" y2="153.54" xlink:href="#未命名漸層_16"/><linearGradient id="Nueva_muestra_de_degradado_1" x1="2199.97" y1="1568.47" x2="2212.37" y2="1575.98" gradientTransform="matrix(0.97, 0.22, -0.22, 0.97, -1701.14, -1460.86)" gradientUnits="userSpaceOnUse"><stop offset="0" stop-color="#ffb54a"/><stop offset="0.54" stop-color="#ffe282"/><stop offset="0.63" stop-color="#ffd470"/><stop offset="0.81" stop-color="#ffbd54"/><stop offset="0.91" stop-color="#ffb54a"/><stop offset="1" stop-color="#e98720"/></linearGradient><linearGradient id="Nueva_muestra_de_degradado_1-2" x1="98.48" y1="542.05" x2="328.72" y2="542.05" gradientTransform="matrix(1, 0, 0, 1, 0, 0)" xlink:href="#Nueva_muestra_de_degradado_1"/><linearGradient id="Nueva_muestra_de_degradado_1-3" x1="1969.45" y1="1373.57" x2="2213.91" y2="1373.57" gradientTransform="translate(-991.82 -1443.84) rotate(21.54)" xlink:href="#Nueva_muestra_de_degradado_1"/><linearGradient id="Nueva_muestra_de_degradado_1-4" x1="199.72" y1="323.74" x2="449.3" y2="323.74" gradientTransform="matrix(1, 0, 0, 1, 0, 0)" xlink:href="#Nueva_muestra_de_degradado_1"/><linearGradient id="Nueva_muestra_de_degradado_1-5" x1="-217.78" y1="131.31" x2="39.99" y2="131.31" gradientTransform="translate(320.25 295.13) rotate(-3.35)" xlink:href="#Nueva_muestra_de_degradado_1"/><linearGradient id="Nueva_muestra_de_degradado_1-6" x1="375.23" y1="351" x2="524.75" y2="351" gradientTransform="matrix(1, 0, 0, 1, 0, 0)" xlink:href="#Nueva_muestra_de_degradado_1"/><linearGradient id="Nueva_muestra_de_degradado_1-7" x1="322.66" y1="246.99" x2="421.39" y2="246.99" gradientTransform="matrix(1, 0, 0, 1, 0, 0)" xlink:href="#Nueva_muestra_de_degradado_1"/><linearGradient id="Nueva_muestra_de_degradado_1-8" x1="856.28" y1="674" x2="868.68" y2="681.51" gradientTransform="translate(-455.32 -485.3) rotate(4.55)" xlink:href="#Nueva_muestra_de_degradado_1"/><linearGradient id="Nueva_muestra_de_degradado_1-9" x1="2284.19" y1="1726.21" x2="2296.59" y2="1733.72" gradientTransform="translate(-1474.22 -1961.92) rotate(17.13)" xlink:href="#Nueva_muestra_de_degradado_1"/><linearGradient id="Nueva_muestra_de_degradado_1-10" x1="2201.23" y1="1826.77" x2="2213.63" y2="1834.28" gradientTransform="translate(-1451.67 -1900.71) rotate(16.38)" xlink:href="#Nueva_muestra_de_degradado_1"/><linearGradient id="Nueva_muestra_de_degradado_1-11" x1="689.86" y1="997.77" x2="702.26" y2="1005.28" gradientTransform="translate(-474.23 -441.58) rotate(4.09)" xlink:href="#Nueva_muestra_de_degradado_1"/><linearGradient id="Nueva_muestra_de_degradado_1-12" x1="103.62" y1="524.05" x2="116.02" y2="531.56" gradientTransform="translate(-2.05 72.36) rotate(-0.91)" xlink:href="#Nueva_muestra_de_degradado_1"/><linearGradient id="Nueva_muestra_de_degradado_1-13" x1="1075.34" y1="1112.1" x2="1087.74" y2="1119.61" gradientTransform="translate(-717.33 -773) rotate(6.92)" xlink:href="#Nueva_muestra_de_degradado_1"/><linearGradient id="Nueva_muestra_de_degradado_1-14" x1="1163.56" y1="1235.12" x2="1175.96" y2="1242.63" gradientTransform="translate(-754.65 -824.73) rotate(7.67)" xlink:href="#Nueva_muestra_de_degradado_1"/><linearGradient id="Nueva_muestra_de_degradado_1-15" x1="2999.28" y1="1822.58" x2="3011.68" y2="1830.09" gradientTransform="translate(-1390.89 -2488.07) rotate(29.21)" xlink:href="#Nueva_muestra_de_degradado_1"/><linearGradient id="Nueva_muestra_de_degradado_1-16" x1="10658.12" y1="805.78" x2="10670.52" y2="813.29" gradientTransform="matrix(-0.97, -0.24, -0.24, 0.97, 10916.09, 2370.63)" xlink:href="#Nueva_muestra_de_degradado_1"/><linearGradient id="Nueva_muestra_de_degradado_1-17" x1="12375.56" y1="-813.21" x2="12387.97" y2="-805.71" gradientTransform="matrix(-0.98, 0.17, 0.17, 0.98, 12658.09, -1113.76)" xlink:href="#Nueva_muestra_de_degradado_1"/><linearGradient id="Nueva_muestra_de_degradado_1-18" x1="12499.27" y1="-745.18" x2="12511.67" y2="-737.67" gradientTransform="matrix(-0.98, 0.17, 0.17, 0.98, 12658.09, -1113.76)" xlink:href="#Nueva_muestra_de_degradado_1"/><linearGradient id="Nueva_muestra_de_degradado_1-19" x1="13824.88" y1="-2752.38" x2="13837.28" y2="-2744.88" gradientTransform="matrix(-0.89, 0.46, 0.46, 0.89, 13689.44, -3413.78)" xlink:href="#Nueva_muestra_de_degradado_1"/><linearGradient id="Nueva_muestra_de_degradado_1-20" x1="4296.9" y1="2345.75" x2="4309.3" y2="2353.25" gradientTransform="translate(-2550.19 -3589.01) rotate(28.56)" xlink:href="#Nueva_muestra_de_degradado_1"/><linearGradient id="Nueva_muestra_de_degradado_1-21" x1="12995.58" y1="-1046.18" x2="13007.98" y2="-1038.67" gradientTransform="matrix(-0.97, 0.25, 0.25, 0.97, 13049.64, -1725.23)" xlink:href="#Nueva_muestra_de_degradado_1"/><linearGradient id="Nueva_muestra_de_degradado_1-22" x1="9937.69" y1="1316.87" x2="9950.09" y2="1324.38" gradientTransform="matrix(-0.94, -0.34, -0.34, 0.94, 10238.49, 2758.39)" xlink:href="#Nueva_muestra_de_degradado_1"/><linearGradient id="Nueva_muestra_de_degradado_1-23" x1="7413.13" y1="2322.12" x2="7425.53" y2="2329.63" gradientTransform="matrix(-0.78, -0.63, -0.63, 0.78, 7700.98, 3545.42)" xlink:href="#Nueva_muestra_de_degradado_1"/><linearGradient id="Nueva_muestra_de_degradado_1-24" x1="7362.64" y1="2286.7" x2="7375.04" y2="2294.2" gradientTransform="matrix(-0.78, -0.63, -0.63, 0.78, 7700.98, 3545.42)" xlink:href="#Nueva_muestra_de_degradado_1"/><linearGradient id="Nueva_muestra_de_degradado_1-25" x1="12396.17" y1="-688.88" x2="12408.57" y2="-681.37" gradientTransform="matrix(-0.98, 0.17, 0.17, 0.98, 12658.09, -1113.76)" xlink:href="#Nueva_muestra_de_degradado_1"/><linearGradient id="Nueva_muestra_de_degradado_1-26" x1="88.9" y1="-20.11" x2="101.3" y2="-12.6" gradientTransform="translate(284.26 274.42) rotate(-2.66)" xlink:href="#Nueva_muestra_de_degradado_1"/><linearGradient id="Nueva_muestra_de_degradado_1-27" x1="61.47" y1="91.24" x2="73.87" y2="98.74" gradientTransform="translate(284.26 274.42) rotate(-2.66)" xlink:href="#Nueva_muestra_de_degradado_1"/><linearGradient id="Nueva_muestra_de_degradado_1-28" x1="-166.67" y1="149.33" x2="-154.26" y2="156.84" gradientTransform="translate(335.82 312.51) rotate(-3.41)" xlink:href="#Nueva_muestra_de_degradado_1"/><linearGradient id="Nueva_muestra_de_degradado_1-29" x1="-99.95" y1="134.3" x2="-87.55" y2="141.81" gradientTransform="translate(335.82 312.51) rotate(-3.41)" xlink:href="#Nueva_muestra_de_degradado_1"/><linearGradient id="Nueva_muestra_de_degradado_1-30" x1="-123.53" y1="312.71" x2="-111.13" y2="320.22" gradientTransform="translate(284.26 274.42) rotate(-2.66)" xlink:href="#Nueva_muestra_de_degradado_1"/><linearGradient id="Nueva_muestra_de_degradado_1-31" x1="1029.15" y1="677.96" x2="1041.55" y2="685.47" gradientTransform="translate(-368.75 -188.39) rotate(11.82)" xlink:href="#Nueva_muestra_de_degradado_1"/><linearGradient id="Nueva_muestra_de_degradado_1-32" x1="-19.06" y1="278.29" x2="-6.66" y2="285.8" gradientTransform="translate(284.26 274.42) rotate(-2.66)" xlink:href="#Nueva_muestra_de_degradado_1"/><linearGradient id="Nueva_muestra_de_degradado_1-33" x1="1703.95" y1="1191.64" x2="1716.35" y2="1199.15" gradientTransform="translate(-828.19 -1084.22) rotate(18.88)" xlink:href="#Nueva_muestra_de_degradado_1"/><linearGradient id="Nueva_muestra_de_degradado_1-34" x1="10703.73" y1="876.95" x2="10716.13" y2="884.45" gradientTransform="matrix(-0.99, -0.12, -0.12, 0.99, 11144.38, 669.82)" xlink:href="#Nueva_muestra_de_degradado_1"/><linearGradient id="Nueva_muestra_de_degradado_1-35" x1="10730" y1="916.31" x2="10742.4" y2="923.82" gradientTransform="matrix(-0.99, -0.12, -0.12, 0.99, 11144.38, 669.82)" xlink:href="#Nueva_muestra_de_degradado_1"/><linearGradient id="Nueva_muestra_de_degradado_1-36" x1="-261.27" y1="-377.37" x2="-248.87" y2="-369.87" gradientTransform="translate(686.57 669.82) rotate(-6.85)" xlink:href="#Nueva_muestra_de_degradado_1"/><linearGradient id="Nueva_muestra_de_degradado_1-37" x1="10831.28" y1="983.92" x2="10843.68" y2="991.43" gradientTransform="matrix(-0.99, -0.12, -0.12, 0.99, 11144.38, 669.82)" xlink:href="#Nueva_muestra_de_degradado_1"/><linearGradient id="Nueva_muestra_de_degradado_1-38" x1="10709.69" y1="967.77" x2="10722.09" y2="975.27" gradientTransform="matrix(-0.99, -0.12, -0.12, 0.99, 11144.38, 669.82)" xlink:href="#Nueva_muestra_de_degradado_1"/><linearGradient id="Nueva_muestra_de_degradado_1-39" x1="10630.1" y1="1006.69" x2="10642.5" y2="1014.2" gradientTransform="matrix(-0.99, -0.12, -0.12, 0.99, 11144.38, 669.82)" xlink:href="#Nueva_muestra_de_degradado_1"/><linearGradient id="Nueva_muestra_de_degradado_1-40" x1="-1510.23" y1="-2078.49" x2="-1497.83" y2="-2070.98" gradientTransform="translate(2590.7 1747.76) rotate(-21.19)" xlink:href="#Nueva_muestra_de_degradado_1"/><linearGradient id="Nueva_muestra_de_degradado_1-41" x1="-713.2" y1="-630.9" x2="-700.8" y2="-623.4" gradientTransform="translate(1138.46 915.87) rotate(-9.79)" xlink:href="#Nueva_muestra_de_degradado_1"/><linearGradient id="Nueva_muestra_de_degradado_1-42" x1="-1695.46" y1="-1959.88" x2="-1683.06" y2="-1952.37" gradientTransform="translate(2590.7 1747.76) rotate(-21.19)" xlink:href="#Nueva_muestra_de_degradado_1"/><linearGradient id="Nueva_muestra_de_degradado_1-43" x1="-212.43" y1="-526.38" x2="-200.02" y2="-518.87" gradientTransform="matrix(1, 0.01, -0.01, 1, 776.09, 1133.15)" xlink:href="#Nueva_muestra_de_degradado_1"/><linearGradient id="Nueva_muestra_de_degradado_1-44" x1="8685.05" y1="2029.29" x2="8697.45" y2="2036.8" gradientTransform="matrix(-0.93, -0.36, -0.36, 0.93, 9158.73, 1747.76)" xlink:href="#Nueva_muestra_de_degradado_1"/><linearGradient id="Nueva_muestra_de_degradado_1-45" x1="-1974.54" y1="-3284.52" x2="-1962.14" y2="-3277.01" gradientTransform="translate(3791.06 2178.14) rotate(-29.92)" xlink:href="#Nueva_muestra_de_degradado_1"/><linearGradient id="Nueva_muestra_de_degradado_1-46" x1="267.71" y1="155.13" x2="371.99" y2="155.13" gradientTransform="matrix(1, 0, 0, 1, 0, 0)" xlink:href="#Nueva_muestra_de_degradado_1"/><linearGradient id="Nueva_muestra_de_degradado_1-47" x1="806.01" y1="588.81" x2="818.42" y2="596.32" gradientTransform="translate(-455.32 -485.3) rotate(4.55)" xlink:href="#Nueva_muestra_de_degradado_1"/><linearGradient id="Nueva_muestra_de_degradado_1-48" x1="12348.43" y1="-877.8" x2="12360.83" y2="-870.29" gradientTransform="matrix(-0.98, 0.17, 0.17, 0.98, 12658.09, -1113.76)" xlink:href="#Nueva_muestra_de_degradado_1"/><radialGradient id="未命名漸層_7" cx="13150.1" cy="-61.01" r="18.05" gradientTransform="translate(248.17 -12980.17) rotate(89.87)" gradientUnits="userSpaceOnUse"><stop offset="0.07" stop-color="#e8b12b"/><stop offset="0.12" stop-color="#e59e27"/><stop offset="0.16" stop-color="#e18b23"/><stop offset="0.19" stop-color="#d08020" stop-opacity="0.92"/><stop offset="0.27" stop-color="#9f6319" stop-opacity="0.71"/><stop offset="0.35" stop-color="#754812" stop-opacity="0.52"/><stop offset="0.44" stop-color="#51320d" stop-opacity="0.36"/><stop offset="0.53" stop-color="#332008" stop-opacity="0.23"/><stop offset="0.62" stop-color="#1d1204" stop-opacity="0.13"/><stop offset="0.73" stop-color="#0c0802" stop-opacity="0.06"/><stop offset="0.84" stop-color="#030200" stop-opacity="0.01"/><stop offset="1" stop-opacity="0"/></radialGradient><radialGradient id="未命名漸層_7-2" cx="13148.57" cy="-28.9" r="18.05" xlink:href="#未命名漸層_7"/><radialGradient id="未命名漸層_7-3" cx="13217.78" cy="-45.34" r="18.05" xlink:href="#未命名漸層_7"/><radialGradient id="未命名漸層_7-4" cx="13237.25" cy="-72.05" r="18.05" xlink:href="#未命名漸層_7"/><radialGradient id="未命名漸層_7-5" cx="13232.28" cy="-99.86" r="18.05" xlink:href="#未命名漸層_7"/><radialGradient id="未命名漸層_7-6" cx="13282.47" cy="-96.77" r="18.05" xlink:href="#未命名漸層_7"/><radialGradient id="未命名漸層_7-7" cx="13308.76" cy="-109.69" r="18.05" xlink:href="#未命名漸層_7"/><radialGradient id="未命名漸層_7-8" cx="13336.16" cy="-159.07" r="18.05" xlink:href="#未命名漸層_7"/><radialGradient id="未命名漸層_7-9" cx="13384.7" cy="-184.83" r="18.05" xlink:href="#未命名漸層_7"/><linearGradient id="Nueva_muestra_de_degradado_1-49" x1="11348.14" y1="499.61" x2="11360.54" y2="507.12" gradientTransform="matrix(-1, 0.07, 0.07, 1, 11785.79, -843.35)" xlink:href="#Nueva_muestra_de_degradado_1"/><radialGradient id="未命名漸層_7-10" cx="12794.13" cy="466.3" r="18.05" gradientTransform="translate(-1446.51 -12243.16) rotate(79.21)" xlink:href="#未命名漸層_7"/><linearGradient id="Nueva_muestra_de_degradado_1-50" x1="12049.13" y1="-259.67" x2="12061.53" y2="-252.16" gradientTransform="matrix(-0.96, 0.28, 0.28, 0.96, 12166.69, -2713.01)" xlink:href="#Nueva_muestra_de_degradado_1"/><radialGradient id="未命名漸層_7-11" cx="13336.05" cy="-110.68" r="18.05" xlink:href="#未命名漸層_7"/><radialGradient id="未命名漸層_7-12" cx="13345.12" cy="-77.17" r="18.05" xlink:href="#未命名漸層_7"/><radialGradient id="未命名漸層_7-13" cx="13343.81" cy="-46.35" r="18.05" xlink:href="#未命名漸層_7"/><radialGradient id="未命名漸層_7-14" cx="13337.65" cy="11.6" r="18.05" xlink:href="#未命名漸層_7"/><linearGradient id="Nueva_muestra_de_degradado_1-51" x1="10802.51" y1="976.66" x2="10814.91" y2="984.17" gradientTransform="matrix(-0.99, -0.12, -0.12, 0.99, 11144.38, 669.82)" xlink:href="#Nueva_muestra_de_degradado_1"/><radialGradient id="未命名漸層_7-15" cx="13333.94" cy="-17.84" r="18.05" xlink:href="#未命名漸層_7"/><radialGradient id="未命名漸層_7-16" cx="13359.09" cy="-2.92" r="18.05" gradientTransform="translate(126.89 -12940.49) rotate(89.12)" xlink:href="#未命名漸層_7"/><linearGradient id="Nueva_muestra_de_degradado_1-52" x1="-740.36" y1="-622.04" x2="-727.96" y2="-614.53" gradientTransform="translate(1138.46 915.87) rotate(-9.79)" xlink:href="#Nueva_muestra_de_degradado_1"/><radialGradient id="未命名漸層_7-17" cx="13372.05" cy="22.54" r="18.05" gradientTransform="translate(126.89 -12940.49) rotate(89.12)" xlink:href="#未命名漸層_7"/><radialGradient id="未命名漸層_7-18" cx="13395.36" cy="82.19" r="18.05" gradientTransform="translate(126.89 -12940.49) rotate(89.12)" xlink:href="#未命名漸層_7"/><linearGradient id="Nueva_muestra_de_degradado_1-53" x1="-68.68" y1="124.24" x2="-56.28" y2="131.75" gradientTransform="translate(335.82 312.51) rotate(-3.41)" xlink:href="#Nueva_muestra_de_degradado_1"/><radialGradient id="未命名漸層_7-19" cx="13383.94" cy="51.39" r="18.05" gradientTransform="translate(126.89 -12940.49) rotate(89.12)" xlink:href="#未命名漸層_7"/><radialGradient id="未命名漸層_7-20" cx="13482.24" cy="-41.62" r="18.05" xlink:href="#未命名漸層_7"/><radialGradient id="未命名漸層_7-21" cx="13513.4" cy="-28.81" r="18.05" xlink:href="#未命名漸層_7"/><radialGradient id="未命名漸層_7-22" cx="13535.85" cy="-4.97" r="18.05" xlink:href="#未命名漸層_7"/><radialGradient id="未命名漸層_7-23" cx="14368.98" cy="-1698.93" r="18.05" gradientTransform="matrix(-0.37, 0.93, -0.93, -0.37, 4005.48, -13426.06)" xlink:href="#未命名漸層_7"/><radialGradient id="未命名漸層_7-24" cx="14384.2" cy="-1734.75" r="18.05" gradientTransform="matrix(-0.37, 0.93, -0.93, -0.37, 4005.48, -13426.06)" xlink:href="#未命名漸層_7"/><radialGradient id="未命名漸層_7-25" cx="14372.25" cy="-1766.46" r="18.05" gradientTransform="matrix(-0.37, 0.93, -0.93, -0.37, 4005.48, -13426.06)" xlink:href="#未命名漸層_7"/><radialGradient id="未命名漸層_7-26" cx="14368.53" cy="-1805.18" r="18.05" gradientTransform="matrix(-0.37, 0.93, -0.93, -0.37, 4005.48, -13426.06)" xlink:href="#未命名漸層_7"/><radialGradient id="未命名漸層_7-27" cx="14417.11" cy="-1861.64" r="18.05" gradientTransform="matrix(-0.37, 0.93, -0.93, -0.37, 4005.48, -13426.06)" xlink:href="#未命名漸層_7"/><linearGradient id="Nueva_muestra_de_degradado_1-54" x1="10161.33" y1="1651.96" x2="10173.74" y2="1659.47" gradientTransform="matrix(-1, -0.1, -0.1, 1, 10737.04, 7.28)" xlink:href="#Nueva_muestra_de_degradado_1"/><radialGradient id="未命名漸層_7-28" cx="12945.3" cy="554.09" r="18.05" gradientTransform="translate(-1685.25 -12132.52) rotate(78.04)" xlink:href="#未命名漸層_7"/><radialGradient id="未命名漸層_7-29" cx="14419.45" cy="-1894.46" r="18.05" gradientTransform="matrix(-0.37, 0.93, -0.93, -0.37, 4005.48, -13426.06)" xlink:href="#未命名漸層_7"/><linearGradient id="Nueva_muestra_de_degradado_1-55" x1="1076.35" y1="632.61" x2="1088.75" y2="640.12" gradientTransform="translate(-368.75 -188.39) rotate(11.82)" xlink:href="#Nueva_muestra_de_degradado_1"/><radialGradient id="未命名漸層_7-30" cx="14366.86" cy="-1933.44" r="18.05" gradientTransform="matrix(-0.37, 0.93, -0.93, -0.37, 4005.48, -13426.06)" xlink:href="#未命名漸層_7"/><radialGradient id="未命名漸層_7-31" cx="14398.8" cy="-1920.98" r="18.05" gradientTransform="matrix(-0.37, 0.93, -0.93, -0.37, 4005.48, -13426.06)" xlink:href="#未命名漸層_7"/><radialGradient id="Degradado_sin_nombre_6" cx="13538.13" cy="39.77" r="18.05" gradientTransform="translate(248.17 -12980.17) rotate(89.87)" gradientUnits="userSpaceOnUse"><stop offset="0" stop-color="#fff"/><stop offset="0.01" stop-color="#fefcf7"/><stop offset="0.02" stop-color="#fcf4e2"/><stop offset="0.03" stop-color="#f8e7be"/><stop offset="0.05" stop-color="#f3d58e"/><stop offset="0.06" stop-color="#ecbf50"/><stop offset="0.07" stop-color="#e8b12b"/><stop offset="0.12" stop-color="#e59e27"/><stop offset="0.16" stop-color="#e18b23"/><stop offset="0.19" stop-color="#d08020" stop-opacity="0.92"/><stop offset="0.27" stop-color="#9f6319" stop-opacity="0.71"/><stop offset="0.35" stop-color="#754812" stop-opacity="0.52"/><stop offset="0.44" stop-color="#51320d" stop-opacity="0.36"/><stop offset="0.53" stop-color="#332008" stop-opacity="0.23"/><stop offset="0.62" stop-color="#1d1204" stop-opacity="0.13"/><stop offset="0.73" stop-color="#0c0802" stop-opacity="0.06"/><stop offset="0.84" stop-color="#030200" stop-opacity="0.01"/><stop offset="1" stop-opacity="0"/></radialGradient><radialGradient id="未命名漸層_7-32" cx="13551.47" cy="69.26" r="18.05" xlink:href="#未命名漸層_7"/><radialGradient id="未命名漸層_7-33" cx="13574.72" cy="97.88" r="18.05" xlink:href="#未命名漸層_7"/><radialGradient id="未命名漸層_7-34" cx="13585.9" cy="130.86" r="18.05" xlink:href="#未命名漸層_7"/><radialGradient id="未命名漸層_7-35" cx="13544.27" cy="182.19" r="18.05" xlink:href="#未命名漸層_7"/><radialGradient id="未命名漸層_7-36" cx="13510.91" cy="172.94" r="18.05" xlink:href="#未命名漸層_7"/><radialGradient id="未命名漸層_7-37" cx="13404.33" cy="110.72" r="18.05" gradientTransform="translate(126.89 -12940.49) rotate(89.12)" xlink:href="#未命名漸層_7"/><radialGradient id="未命名漸層_7-38" cx="13413.26" cy="148.18" r="18.05" gradientTransform="translate(126.89 -12940.49) rotate(89.12)" xlink:href="#未命名漸層_7"/><radialGradient id="未命名漸層_7-39" cx="13344.77" cy="73.56" r="18.05" xlink:href="#未命名漸層_7"/><radialGradient id="未命名漸層_7-40" cx="13306.53" cy="64.87" r="18.05" xlink:href="#未命名漸層_7"/><radialGradient id="未命名漸層_7-41" cx="13246.32" cy="-127.63" r="18.05" xlink:href="#未命名漸層_7"/></defs><g class="cls-1"><g id="snow"><rect class="cls-2" x="297.35" y="629.86" width="57.07" height="202.41"/><polygon class="cls-3" points="366.06 864.17 285.57 864.17 263.76 787.2 387.88 787.2 366.06 864.17"/><polygon class="cls-4" points="340.63 864.17 311.01 864.17 302.98 787.2 348.65 787.2 340.63 864.17"/><path class="cls-5" d="M628.84,709.91c-12.36,1.89-24.67-2.69-36.34-7.18,8.26,4.11,8,17.18,1.37,23.63s-16.65,7.72-25.88,7.48a110.27,110.27,0,0,1-52.32-15c6.2,3.46,4.7,13.79-1.2,17.77s-13.72,3.28-20.65,1.69c-16.43-3.74-31.29-9.6-44-20.63,7.32,6.89,9.72,18.62,5.41,27.71s-14.44,14.57-24.5,15.06-19.94-3.45-28.24-9.15-12.83-10.49-19.71-17.83c4.13,8.42-4,16.75-12.62,20.37s-18.9,1.14-26.73-4-14.92-12.53-20.66-20a34.78,34.78,0,1,1-69.47-.81c-1.81,9.25-12.83,15.31-21.73,12.22s-14.93-14.46-11.43-23.2a74.38,74.38,0,0,1-28.73,35c-8.74,5.61-19.57,9.39-29.48,6.32-9.41-2.9-16.44-13.94-12.95-22.85a10.46,10.46,0,0,1-18.8-9.11A143.43,143.43,0,0,1,29.92,739.31c-11-2.77-22.73-7.75-27.67-18-6-12.56.88-28.07,11.51-37.08s24.2-13.56,36.66-19.8a139.65,139.65,0,0,0,38.3-28.34,142.56,142.56,0,0,0,35.68-64.55,577.06,577.06,0,0,1,165.34-41.93,562.29,562.29,0,0,1,99.94-1.06q18.15,1.41,36.31,4c22.29,3.19,45.24,8.05,63.21,21.63,17.24,13,28,32.57,41.68,49.28a168.86,168.86,0,0,0,14.84,15.9,172.67,172.67,0,0,0,69.92,40.06c7.48,2.17,15.19,3.86,22,7.6s12.77,10,13.83,17.75C653.15,697.16,641.2,708,628.84,709.91Z"/><path class="cls-6" d="M545.72,619.37a30.82,30.82,0,0,1-17.44,1.14c-9-2-17-7-24.83-11.91a20.8,20.8,0,0,1-36,13.42c8.35,15.69.45,36.86-14.76,46.05s-35.3,7.6-50.91-.92-27.18-23-35.68-38.63a27.67,27.67,0,0,1-48.47-9.11c-3.23,12.61-8.09,25.11-16.63,35s-21.17,16.69-34.16,15.86-25.55-10.71-27.22-23.62c-7.42,6.85-21.43,3.47-24.91-6a152.85,152.85,0,0,1-96.43,11.24c-9.86-2.09-19.92-5.43-26.94-12.64a27,27,0,0,1-2.62-3.13,142.56,142.56,0,0,0,35.68-64.55,577.06,577.06,0,0,1,165.34-41.93l99.94-1.06q18.15,1.41,36.31,4c22.29,3.19,45.24,8.05,63.21,21.63,17.24,13,28,32.57,41.68,49.28A168.86,168.86,0,0,0,545.72,619.37Z"/><path class="cls-7" d="M580.12,582.11c-11.1,12.36-28.64,17.3-45.25,16.79s-32.65-5.75-48.41-11c4.15,1.41,4.41,7.85,1.3,10.92s-8,3.52-12.36,3.23a51.61,51.61,0,0,1-30.7-12.89c5.61,4.84,11,10.19,14.09,16.92s3.37,15.14-.9,21.18c-6.14,8.7-18.6,9.4-29.23,8.74-12.18-.79-24.48-2.31-35.74-7-10.33-4.35-19.73-11.75-24.83-21.67,1.34,4.84-1.4,10.73-5.92,13.35-5.42,3.14-12.28,2.53-18.15.33-13.11-5-23.38-15.19-24.56-29.15-3.84,9.71-7.75,19.59-14.29,27.73S289,634,278.55,634s-21-8-21.75-18.36c-5,3.38-10.07,6.85-15.94,8.2s-12.71.16-16.49-4.5a11.51,11.51,0,0,1-1.59-10.77A91.84,91.84,0,0,1,119,628.83c-5.37-2.38-11.1-6.1-12-11.92-1.08-7.38,6.22-13.19,13.11-16s15.27-4.51,19.14-10.87a63.18,63.18,0,0,1-26.82,4.75c-4.37-.2-8.86-.89-12.52-3.27s-6.29-6.77-5.47-11a8,8,0,0,1,3.19-4.82,131.59,131.59,0,0,1-50.89-4.55C38.34,568.63,29,564,27.24,555.39c-1.44-6.95,3-14,8.85-18s13-5.43,20-6.87c24-5,48.49-10.92,69.23-24.08a91.43,91.43,0,0,0,26.45-25.27c7-10.22,11.47-21.91,11.93-34.27.78-21.43,16.35-38.92,35.38-50a103,103,0,0,1,15.47-7.36c25.31-9.53,53.09-9.76,80.11-8.52A805.7,805.7,0,0,1,403,393.39c16.37,3,33.2,6.77,46.92,16.09.63.4,1.24.83,1.85,1.28,18.1,13.23,27.65,34.86,37.51,55,2.73,5.59,5.64,11.23,8.89,16.67,8.42,14.17,19,26.94,33.77,33.53,17,7.54,38.71,6.63,50.89,20.66C593.7,549.15,591.24,569.75,580.12,582.11Z"/><path class="cls-6" d="M498.15,482.42a23.58,23.58,0,0,1-6.77,7.26c-5.61,3.86-12.61,5-19.4,5.47-20.47,1.44-40.27-4-58.84-12.75,3.54,15.48-5.42,32.25-19.19,40.18s-31.21,7.82-46.09,2.21-27.42-16.2-37.87-28.18c.14,5.09-4.56,9.44-9.6,10.05s-10.07-1.81-13.77-5.31-6.24-8-8.74-12.42c-1.66,15.21-13.82,28.28-28.48,32.61s-31.11.55-43.51-8.4-21-22.6-25.45-37.22c-8.75,3.31-18,6.67-27.25,5.49-.47-.06-.95-.14-1.42-.23,7-10.22,11.47-21.91,11.93-34.27.78-21.43,16.35-38.92,35.38-50,43.39-4.06,87.12-3.21,130.71-1.81,29.15.94,58.43,2.1,87,7.89,10.45,2.12,22,3.86,33.1,6.49.63.4,1.24.83,1.85,1.28,18.1,13.23,27.65,34.86,37.51,55C492,471.34,494.9,477,498.15,482.42Z"/><path class="cls-8" d="M548.53,441.48c-4,4.43-10.09,6.34-16,7.56a109.71,109.71,0,0,1-70.57-9,19.64,19.64,0,0,1-2.87,35.71c-6.34,2.27-13.37,1.13-19.92-.39-24.44-5.69-47.31-15.64-67.3-30.82,5.27,6.46,10.31,13.4,12.47,21.45s.95,17.46-5,23.3c-4.89,4.79-12.05,6.46-18.88,6.58a53.16,53.16,0,0,1-45.81-25.74c.73,6-4.55,12-10.57,12.06s-10.78-4.65-14.41-9.37a93.22,93.22,0,0,1-14-25.54c-.25,15-5.57,30.3-16.55,40.5s-28,14.34-41.62,8.17a31,31,0,0,1-15.23-14.82,26.87,26.87,0,0,1-.81-21.08,66.35,66.35,0,0,1-34.28,6.61,22.5,22.5,0,0,1-9.57-2.44c-2.89-1.63-5.23-4.56-5.39-7.87a10.37,10.37,0,0,1,3.78-7.87,27.67,27.67,0,0,1,7.2-4.65,87.18,87.18,0,0,1-50.95-6.73c-5.07-2.36-10.07-5.33-13.38-9.84S94.35,416.43,97,411.53c3.8-7,13-8.19,20.88-9.37,32.06-4.82,61.5-23.53,80.51-49.69a116,116,0,0,0,16.32-31.17c26.31-11.69,56.32-22.59,84.85-26.49,39.88-5.45,80.85,1.16,120.84,5.71a67.4,67.4,0,0,0,20.31,35.09c1,.92,2,1.81,3.09,2.65,18.08,14.51,42.39,18.7,61.91,31.18,3.74,2.38,7.34,5.11,9.84,8.77s3.72,8.39,2.4,12.62-5.53,9.35-9.92,8.77c8.05.81,16.2,1.66,23.79,4.41s14.76,7.64,18.56,14.78S554,435.48,548.53,441.48Z"/><path class="cls-6" d="M440.73,335.61a23.7,23.7,0,0,1-13.29,2.65c-8.12-.72-15.52-4.74-22.67-8.66a8.65,8.65,0,0,1-13,10.79c-.57,11.9-9.31,22.61-20.39,27s-24,2.85-34.59-2.56-19.07-14.46-25.31-24.62A29.87,29.87,0,0,1,258,336.73c-8.91,11-21.41,19.76-35.48,21.33a37.41,37.41,0,0,1-24.15-5.59,116,116,0,0,0,16.32-31.17c26.31-11.69,56.32-22.59,84.85-26.49,39.88-5.45,80.85,1.16,120.84,5.71A67.4,67.4,0,0,0,440.73,335.61Z"/><path class="cls-9" d="M449.27,316.05c-9.15,5.29-20.59,5.35-30.76,2.51s-19.41-8.3-28.5-13.71c1.81,4,3.25,8.38,2.91,12.79s-2.81,8.87-6.9,10.53-11.16.16-12.18-4.15c1.25,5.64-1.91,11.65-6.72,14.87s-10.9,4-16.64,3.39c-16-1.64-30.27-14-34.17-29.6-2.22,5.92-4.92,11.77-9,16.59s-9.7,8.58-16,9.41a20.74,20.74,0,0,1-18.8-7.78c-4.15-5.43-6.71-13.63-4.42-20.09a56.18,56.18,0,0,1-43.36,33.95c-7.71,1.06-15.9.41-22.73-3.33S190,330.55,189.89,322.76c-.06-6.56,4.15-13.09,10.1-15.45a8.77,8.77,0,0,1-9.15-9.41c.23-3.36,2.42-6.36,5.13-8.38s4.9-2.58,8.09-3.74c-7.95,1.3-16.39,2.14-23.77-1s-13-11.79-10.24-19.35c1.74-4.7,6.26-7.91,11-9.53s9.82-2,14.78-2.73a85.67,85.67,0,0,0,47.71-24.54,81.76,81.76,0,0,0,10.29-12.89A85.51,85.51,0,0,0,267,180.35c9.21-7.75,21.09-13.73,33.08-14.93s24.06,0,36,1.24c7.48.77,15.39,1.71,21.25,6.41,7,5.59,9.19,15,12,23.5a111.89,111.89,0,0,0,7.3,17A117.93,117.93,0,0,0,430.32,265c6.16,2.89,12.61,5.25,18.36,8.89s10.9,8.8,12.79,15.33C464.42,299.42,458.42,310.73,449.27,316.05Z"/><path class="cls-6" d="M376.67,213.61a16.23,16.23,0,0,1-5.43-.17c-4-.79-7.56-2.8-11.06-4.79.82,7.34,1.55,15.28-2.15,21.67-4.88,8.42-15.94,11.26-25.62,10.21a47.44,47.44,0,0,1-36.45-25,6.61,6.61,0,0,1-12-1.81c-3.92,3.07-8.31,5.73-13.17,6.85s-10.27.55-14.34-2.34a13.9,13.9,0,0,1-2.64-2.5A85.51,85.51,0,0,0,267,180.35c9.21-7.75,21.09-13.73,33.08-14.93s24.06,0,36,1.24c7.48.77,15.39,1.71,21.25,6.41,7,5.59,9.19,15,12,23.5A111.89,111.89,0,0,0,376.67,213.61Z"/><path class="cls-10" d="M397.46,176.18c-3.63-4.43-8.79-7.26-13.59-10.36a113.48,113.48,0,0,1-25.57-22.67C350.54,133.84,344.79,123,340,112c-3.65-8.34-8.09-18.62-18.06-20.59a17,17,0,0,0-2.41-.28c-.28,0-.56,0-.83,0h-.17l-.72,0-.38,0c-7.69.62-14.07,6.66-17,13.81l0,.06c-3.71,9-6.46,18.32-10.88,27-5.86,11.5-13.87,22.53-24.26,30.32-10.05,7.53-20.94,13.83-31.66,20.35-2.79,1.7-6,4.11-5.65,7.37s4,5.11,7.19,5.87a40.24,40.24,0,0,0,30.47-5.15c-3.09,4.05-6.66,6.8-4.65,11.49a9.46,9.46,0,0,0,7,5.12,21.23,21.23,0,0,0,8.92-.57,59.22,59.22,0,0,0,19.51-8.51,4.21,4.21,0,1,0,7.63,1.37c4.8,7,11.7,12.85,19.87,15.24s17.63,1,24.08-4.54,9.17-15.44,5.5-23.12c9.39,8.59,22.42,13.56,34.94,11.3,4.45-.81,9.1-2.6,11.48-6.45C402.8,187.23,401.08,180.61,397.46,176.18Z"/><path class="cls-11" d="M197,306.15c-3.79,1.54-6.33,3.37-8.26,7.08A27.28,27.28,0,0,0,185.62,326c.2,10.76,9.78,17.5,18.94,20.82,21.47,7.8,45.84-5.35,60.58-20.59,8.18-8.46-2.35-23-12.8-16.59-11.73,7.23-23.36,17.49-37.89,17.16-2.57-.05-9.56-1.28-11.58-3.37-2.24-2.31-2-9.14-.86-12.3,1-2.74-2.15-6.15-5-5Z"/><path class="cls-11" d="M159.79,442.36c-6.62-.6-11.27,6.76-11.66,12.66-.47,7.17,5.27,12.75,11.39,15.48,8.41,3.76,18.93,1.46,27.39-1.13a103.14,103.14,0,0,0,13.16-5.15c.78-.39,1.58-.77,2.37-1.13q-3.37-5.68-3-1.73a17.47,17.47,0,0,0-.31,4.85c.13,17.82,14.51,31.53,31.68,33.43,16.6,1.83,35.55-8.58,39.45-25.48,1.68-7.23-8.11-14.63-13.58-7.9-6.66,8.2-14,17.18-25.79,15.55a17.75,17.75,0,0,1-12.78-8.19c-3-4.89-2.05-9.5-2.64-14.89-.78-7.29-6.35-12.27-13.75-11.68-6.52.52-12.78,5.2-19,7.22-5.09,1.65-12.61,4.84-18,2.89-4.11-1.5-5.71-5.1-2.6-9a3.43,3.43,0,0,0-2.39-5.76Z"/><path class="cls-11" d="M372.83,445.5c16.85,21.29,46,36.68,73.56,34,11.6-1.15,24.62-5.38,30.23-16.58,6.83-13.63-.76-27.45-9.56-37.92l-10.37,10.38c11,8.78,21.57,16.11,35.65,19.08,13.7,2.89,27.84,2.22,40.88-3.05,4.44-1.8,7.58-5.91,6.2-10.92-1.16-4.21-6.45-8-10.92-6.2a62.21,62.21,0,0,1-31.77,4.24c-10.31-1.43-22.42-5.75-29.67-13.53-5.67-6.09-15.89,1.79-11.52,8.89,3.84,6.24,11.58,16.57,5.29,23.61-5.77,6.45-17.17,6.61-25,6.15-22.29-1.31-40.24-12.93-60-21.94a2.45,2.45,0,0,0-2.95,3.83Z"/><path class="cls-11" d="M318.9,589.46c-6.34,14.88,3.19,32.9,17.89,38.23,7.65,2.76,15.69,1.58,22.86-1.91a49.22,49.22,0,0,0,9.65-6.54c.95-.79,3.84-2.45,4.11-3.55,0,.09.92-.66.55-.48-1.27.63-1.06-.88,0,.75,17.72,27.6,58.66,33.4,83.62,12.65,6.82-5.67,11.6-13.74,12-22.72.43-10.25-5.52-19.32-13.62-25-5.7-4-14.05,2.64-11.85,9.11,1.84,5.39,7.51,12.5,5.21,18.43-2.2,5.71-9,9.49-14.36,11.58a40.26,40.26,0,0,1-40.92-7c-5.48-4.83-9.09-12.24-16.52-14.39-9.17-2.66-15.27,4.55-21.93,9.25-5.58,3.94-10.92,5.8-17.09,2.05-7.14-4.35-8.17-12.19-10.9-19.38-1.25-3.31-6.9-5.3-8.68-1.14Z"/><path class="cls-11" d="M509.87,592.31c14.13,8.53,31.29,12.26,47.37,7.6,15-4.33,29.88-15.12,34.26-30.65a8.92,8.92,0,0,0-5.17-10.54c-4.47-1.8-8.37,0-11.16,3.66-6.75,8.82-13.08,17.64-23.52,22.39-11.7,5.32-25.57,5.24-36.86-.88-5.52-3-10.3,5.16-4.92,8.42Z"/><path class="cls-11" d="M138.3,590.3c-4.68-2.87-12.93.37-17.28,2.91a26.18,26.18,0,0,0-11.89,14.42c-4.73,15.13,7.94,24.23,20.84,27.8,14,3.88,29.07,3.48,43.12,0,13.75-3.42,29-9.63,37-21.87,3.1-4.72-2-9.9-6.85-8.9-10,2.07-18.69,7.75-28.23,11.22a75.77,75.77,0,0,1-30.64,4.8c-4.85-.29-20.34-1.2-20.31-8.25,0-9.26,13.77-10.24,15.92-18a3.77,3.77,0,0,0-1.7-4.16Z"/><path class="cls-11" d="M29.49,539.51c-6.52,10.79-1.43,23.11,8.09,30.12,11,8.13,25.39,9,38.57,7.82,9.79-.85,10.14-15.35,0-15.5-8.9-.13-18.62.83-27-2.82-6.9-3-12.5-10.09-12.78-17.76a3.72,3.72,0,0,0-6.87-1.86Z"/><path class="cls-11" d="M1.24,712.49c-3.33,22.33,23,30.28,40.39,32.77,22.19,3.19,46.07,1.22,67.07-6.72,3.41-1.29,5.7-4.17,5.19-8-.44-3.26-3.53-6.65-7.12-6.28-18.34,1.89-36.24,6.13-54.77,6.15-14.11,0-40.21-1.24-45.22-18-.74-2.49-5.1-3-5.54,0Z"/><path class="cls-11" d="M252.57,731.79c1.28,10.05,3.21,20.09,9.79,28.09A36.83,36.83,0,0,0,289.65,773c25.08.55,35.46-26,39.28-46.4l-12.23,3.22c9.79,10.58,18.63,22,33.26,26,13.18,3.58,27.13-.77,34.74-12.34,5.67-8.62-8.18-16.65-13.82-8.07-4.4,6.7-13.67,6.8-20.44,4.2-8.84-3.39-16.6-11.27-22.25-18.66-3.67-4.79-11.49-4.82-13.37,1.75-3.78,13.17-8.29,32.79-24.74,34.89-15.2,1.95-28.74-13.32-32.84-26.45-.76-2.42-5-2.14-4.67.63Z"/><path class="cls-11" d="M375.76,736.61c6.14,9.79,11.55,20.62,21.94,26.68,11.76,6.85,26.78,9.63,39.81,5,11.11-4,20.91-12.81,23.54-24.67,2.39-10.81-1.25-29.57-15-30.23-4.95-.24-7.7,4.72-6.87,9,.69,3.6,3.54,6.33,4.69,9.79a14.44,14.44,0,0,1-.11,9.47c-2.49,6.79-9.84,10.92-16.7,11.92-8.88,1.3-19.16-1.43-26.7-6.16-7.22-4.52-12.87-10.91-20.54-14.79-2.49-1.25-5.67,1.39-4,4Z"/><path class="cls-11" d="M516.12,719.33c2.5,4.16,7.76,6.82,12,9a65.2,65.2,0,0,0,14.74,5.82,85.27,85.27,0,0,0,32.94,1.91c9.67-1.38,19.52-6,24.67-14.67,4.57-7.73,5.87-24.28-5.7-26.67-4-.83-7.16,1.73-7.51,5.73-.25,2.85,1.08,5.4,1,8.17a11.11,11.11,0,0,1-3.79,7.6c-5,4.41-13.14,5.82-19.56,6.46A83.8,83.8,0,0,1,541,721.45a110.49,110.49,0,0,1-11.61-2.73c-3.67-1.1-7.21-3.06-11.06-3.25a2.59,2.59,0,0,0-2.22,3.86Z"/><path class="cls-11" d="M332.1,336.92c15.71,18.8,46.1,5.11,45.63-18.48l-8.52,4.89c7.84,3.6,16.06,7.83,24.32,2.62,8.62-5.44,7.87-16.32,4.65-24.62L389.52,308c17.15,12.67,41.59,21.95,61.71,10.24,7.26-4.23.83-15.13-6.56-11.23s-16.41,3.63-24.37,2.4c-8.52-1.32-17.85-4-23.64-10.67-4.25-4.9-10.71.53-9.85,5.74.51,3.08,2.23,9.08-.85,11.36s-8.36-.68-11-2.28c-4-2.38-8.16.77-8.53,4.89C365,334.24,348,341,335,333.19c-2.43-1.47-4.53,1.74-2.87,3.73Z"/><path class="cls-11" d="M297.84,203.12c10.87,11.17,24.41,21.3,41,17,15.35-3.92,20.06-20.18,20.58-34.17l-8.86,3.67c10.18,12.51,27.7,18.06,42.63,11.21,4.9-2.25,2.6-10.95-2.81-10.37-11.55,1.25-23.51-.06-32.48-8.18-2.58-2.34-8-1.83-8.67,2.29-1.48,9.73-4.38,21.25-15.16,24.13-11.24,3-23.45-4.83-32.92-9.95a2.76,2.76,0,0,0-3.33,4.32Z"/><path class="cls-12" d="M98.85,563.38l-2.62-.6,1.08-4.69a1.34,1.34,0,0,1,1.61-1h0a1.35,1.35,0,0,1,1,1.61Z"/><path class="cls-13" d="M101.7,560.11a3.83,3.83,0,0,0-3.87,1.72,3.86,3.86,0,0,0-2.73-3.24c-2.17-.49-4.21,1.16-4.78,3.63-.74,3.25,1.58,5.94,4.67,10.72a.39.39,0,0,0,.54.12c4.86-2.95,8.13-4.35,8.88-7.61C105,563,103.86,560.61,101.7,560.11Z"/><path class="cls-14" d="M145.22,599.31c-13.89,0-27.33-5.35-36.19-14.66-14.22-14.92-12.63-38.73-3.72-54.53,4.2-7.46,10.4-13.41,16.39-19.17,2.44-2.35,5-4.78,7.32-7.27l.73.69c-2.37,2.5-4.9,4.94-7.36,7.3-5.94,5.71-12.08,11.61-16.21,18.94-8.73,15.48-10.31,38.78,3.57,53.35,10,10.53,26.07,15.88,41.85,14,16.79-2,34-11.57,49.77-27.54.93-.94,1.85-1.89,2.79-2.86,7.68-7.92,15.62-16.11,26.38-17.51,5.9-.76,11.75.74,17.42,2.19a67.75,67.75,0,0,0,12.09,2.33c10.53.7,22.1-4,31.75-12.83,8.76-8,15.16-18.27,21.36-28.18.1-.19,11.9-21.7,14.62-28.72l.94.36C326,492.25,314.14,513.81,314,514c-6.24,10-12.69,20.29-21.54,28.41-9.85,9-21.69,13.8-32.5,13.09a68.9,68.9,0,0,1-12.27-2.36c-5.57-1.43-11.34-2.91-17.05-2.16-10.41,1.35-18.23,9.41-25.79,17.21-.93,1-1.86,1.92-2.79,2.86-15.93,16.13-33.35,25.76-50.36,27.83A52.63,52.63,0,0,1,145.22,599.31Z"/><path class="cls-15" d="M514.22,683.92a51.2,51.2,0,0,1-25.66-7c-12.65-7.38-23.34-20-31.78-37.53a145.21,145.21,0,0,1-5.48-14.47c-4.61-13.43-10.35-30.13-19.25-33.54-8.27-3.16-17.16-1-26.58,1.4-5.37,1.33-10.93,2.72-16.34,3-25.44,1.3-44.61-22.46-50.4-46.58l1-.24c5.7,23.73,24.48,47.05,49.38,45.82,5.32-.27,10.82-1.64,16.15-3,9.15-2.28,18.61-4.64,27.18-1.36,9.33,3.57,14.91,19.81,19.83,34.14a148.92,148.92,0,0,0,5.44,14.37c8.35,17.34,18.91,29.82,31.38,37.09,14.75,8.6,32.6,9.19,46.58,1.54,12.55-6.87,22.87-20.35,29.06-38,5.54-15.75,7.23-32.47,8.86-48.63l1,.1c-1.63,16.22-3.33,33-8.9,48.87-6.28,17.84-16.76,31.52-29.53,38.5A45.52,45.52,0,0,1,514.22,683.92Z"/><path class="cls-16" d="M226.12,364.76c-6.08,0-12.17-1.45-17.33-5.47a23.6,23.6,0,0,1,3.8-39.61l.46.89a22.59,22.59,0,0,0-3.65,37.93c12.38,9.66,30.47,3.88,40.15-.43,2.55-1.14,5.14-2.38,7.65-3.58,10.43-5,21.22-10.13,32.8-9.67,9.06.39,17.52,4.24,25.7,8,1.67.75,3.33,1.51,5,2.23,8.17,3.57,20.26,7.86,30.95,4a49.18,49.18,0,0,0,8.46-4.39,58.19,58.19,0,0,1,7.26-3.93c10.61-4.51,22.45-2.43,33.9-.42,1.12.2,2.23.4,3.33.58,10.53,1.8,25.65,3.2,35.44-5.32,7.88-6.86,12-22,4.06-36.43-5.38-9.8-14.92-17.9-30-25.48l.44-.89c15.31,7.67,25,15.9,30.46,25.89,6.11,11.15,6.69,28.13-4.28,37.66-10.11,8.8-25.53,7.38-36.25,5.56l-3.34-.58c-11.31-2-23-4-33.34.35a59.19,59.19,0,0,0-7.14,3.87A49.63,49.63,0,0,1,352,360c-11,4-23.36-.39-31.69-4q-2.49-1.1-5-2.24c-8.09-3.68-16.47-7.49-25.34-7.87-11.32-.48-22,4.63-32.32,9.57-2.51,1.21-5.11,2.45-7.67,3.59C244.06,361.6,235.1,364.76,226.12,364.76Z"/><path class="cls-17" d="M150.48,470.64a121,121,0,0,1-18.56-1.38c-10.44-1.62-17-5.46-19.53-11.41-3.46-8.19,2.29-17.51,9.61-21.45,8.25-4.43,20.26-5.11,26.7-5.11v1c-6.34,0-18.17.66-26.22,5-6.94,3.73-12.41,12.51-9.16,20.18,2.37,5.61,8.68,9.25,18.76,10.81,26.26,4.08,52.94-1.68,75.57-7.85a558.67,558.67,0,0,0,157.71-70.66l.54.83a559.25,559.25,0,0,1-158,70.8C190.5,466.13,170.69,470.64,150.48,470.64Z"/><path class="cls-18" d="M501.8,406.58c-13.6,0-29.94-5.78-30.1-5.84a176.7,176.7,0,0,1-76.36-64.4c-.16-.26-16-25.61-20.11-40.65l1-.26c4.1,14.89,19.83,40.12,20,40.37a175.67,175.67,0,0,0,75.88,64c.14.05,16.31,5.77,29.74,5.77h.35a32.07,32.07,0,0,0,17.93-5.21,8.19,8.19,0,0,0,3.66-6.33c.14-3.48-1.79-6.47-5.73-8.87l.52-.85c5.33,3.24,6.32,7.1,6.21,9.76a9.2,9.2,0,0,1-4.09,7.11,33.05,33.05,0,0,1-18.49,5.39Z"/><path class="cls-19" d="M415.2,261.5c-6.63,0-13.22-3.55-18-6.57l-1.69-1.07c-6.64-4.21-13.51-8.57-21.11-8.08a35.82,35.82,0,0,0-9.49,2.43c-1.79.63-3.64,1.29-5.51,1.77-14.21,3.66-30.34-3.84-36.71-17.06l.9-.44c6.17,12.81,21.79,20.08,35.57,16.53,1.82-.47,3.65-1.12,5.42-1.75a36.56,36.56,0,0,1,9.76-2.48c7.93-.51,14.93,3.94,21.71,8.24l1.69,1.07c6.12,3.84,15.2,8.58,23.31,5.32l.37.93A16.56,16.56,0,0,1,415.2,261.5Z"/><path class="cls-12" d="M352,256.7l-2.68-.21.38-4.8a1.34,1.34,0,0,1,1.45-1.23h0a1.34,1.34,0,0,1,1.23,1.44Z"/><path class="cls-20" d="M354.35,253.05a3.85,3.85,0,0,0-3.58,2.27,3.86,3.86,0,0,0-3.17-2.81c-2.22-.17-4,1.76-4.2,4.28-.26,3.33,2.43,5.65,6.18,9.93a.39.39,0,0,0,.56,0c4.38-3.63,7.41-5.49,7.67-8.82C358,255.42,356.56,253.23,354.35,253.05Z"/><path class="cls-12" d="M206.76,364.22l-2.57-.79,1.42-4.6a1.34,1.34,0,0,1,1.68-.89h0a1.34,1.34,0,0,1,.88,1.68Z"/><path class="cls-21" d="M209.84,361.17a3.84,3.84,0,0,0-4,1.43,3.85,3.85,0,0,0-2.48-3.43c-2.13-.65-4.29.85-5,3.27-1,3.19,1.14,6,3.87,11a.39.39,0,0,0,.53.17c5.07-2.59,8.43-3.76,9.41-6.95C212.9,364.28,212,361.82,209.84,361.17Z"/><path class="cls-12" d="M151.55,476.39l-2.58-.76,1.36-4.62a1.34,1.34,0,0,1,1.66-.91h0a1.34,1.34,0,0,1,.91,1.67Z"/><path class="cls-22" d="M154.59,473.3a3.84,3.84,0,0,0-4,1.48,3.83,3.83,0,0,0-2.53-3.39c-2.13-.63-4.27.9-5,3.32-1,3.21,1.21,6,4,11a.4.4,0,0,0,.53.16c5-2.66,8.38-3.86,9.32-7.07C157.68,476.37,156.71,473.92,154.59,473.3Z"/><path class="cls-12" d="M149.9,605l-2.68-.19.34-4.81A1.36,1.36,0,0,1,149,598.8h0a1.34,1.34,0,0,1,1.24,1.44Z"/><path class="cls-23" d="M152.21,601.37a3.86,3.86,0,0,0-3.56,2.29,3.85,3.85,0,0,0-3.19-2.77c-2.22-.16-4,1.79-4.16,4.31-.24,3.33,2.47,5.63,6.26,9.88a.39.39,0,0,0,.55,0c4.35-3.67,7.36-5.56,7.6-8.89C155.89,603.71,154.42,601.53,152.21,601.37Z"/><path class="cls-12" d="M117.24,596.24l-2.68,0-.08-4.82a1.34,1.34,0,0,1,1.32-1.36h0a1.34,1.34,0,0,1,1.37,1.32Z"/><path class="cls-24" d="M119.23,592.39a3.83,3.83,0,0,0-3.35,2.6,3.83,3.83,0,0,0-3.42-2.49c-2.22,0-3.81,2.13-3.77,4.66,0,3.34,3,5.39,7.1,9.29a.38.38,0,0,0,.55,0c4-4,6.85-6.17,6.8-9.51C123.1,594.4,121.45,592.35,119.23,592.39Z"/><path class="cls-12" d="M223.18,463.15l-2.67-.32.59-4.78a1.33,1.33,0,0,1,1.49-1.17h0a1.34,1.34,0,0,1,1.17,1.5Z"/><path class="cls-25" d="M225.67,459.6a3.87,3.87,0,0,0-3.67,2.12,3.83,3.83,0,0,0-3.05-2.93c-2.21-.27-4.06,1.59-4.37,4.1-.4,3.32,2.19,5.74,5.76,10.18a.4.4,0,0,0,.56.06c4.52-3.44,7.62-5.18,8-8.5C229.23,462.12,227.87,459.87,225.67,459.6Z"/><path class="cls-12" d="M240.67,557.28l-2.66-.36.64-4.77a1.35,1.35,0,0,1,1.51-1.15h0a1.35,1.35,0,0,1,1.15,1.51Z"/><path class="cls-26" d="M243.21,553.77a3.84,3.84,0,0,0-3.7,2.06,3.85,3.85,0,0,0-3-3c-2.2-.3-4.08,1.54-4.42,4-.44,3.31,2.12,5.77,5.63,10.25a.4.4,0,0,0,.55.07c4.58-3.39,7.7-5.08,8.15-8.4C246.73,556.33,245.4,554.06,243.21,553.77Z"/><path class="cls-12" d="M343,571.08l-2.34-1.32,2.35-4.2a1.34,1.34,0,0,1,1.82-.51h0a1.34,1.34,0,0,1,.52,1.82Z"/><path class="cls-27" d="M346.54,569.26a3.84,3.84,0,0,0-4.2.57,3.84,3.84,0,0,0-1.71-3.87c-1.94-1.09-4.37-.07-5.6,2.14-1.63,2.91-.15,6.14,1.47,11.6a.4.4,0,0,0,.49.27c5.49-1.47,9-1.9,10.65-4.82C348.88,573,348.47,570.35,346.54,569.26Z"/><path class="cls-12" d="M368.15,597.28l2.61.65,1.15-4.68a1.34,1.34,0,0,0-1-1.62h0a1.34,1.34,0,0,0-1.62,1Z"/><path class="cls-28" d="M367.08,593.08a3.82,3.82,0,0,1,2.68,3.28,3.85,3.85,0,0,1,3.9-1.66c2.16.54,3.23,2.94,2.63,5.39-.8,3.24-4.09,4.59-9,7.47a.39.39,0,0,1-.54-.14c-3-4.83-5.29-7.55-4.49-10.8C362.86,594.17,364.93,592.55,367.08,593.08Z"/><path class="cls-12" d="M322.4,237.29l2.65-.47-.84-4.74a1.35,1.35,0,0,0-1.55-1.09h0a1.35,1.35,0,0,0-1.09,1.56Z"/><path class="cls-29" d="M319.72,233.88a3.83,3.83,0,0,1,3.78,1.92,3.86,3.86,0,0,1,2.89-3.1c2.19-.38,4.15,1.38,4.59,3.86.58,3.3-1.88,5.86-5.21,10.48a.4.4,0,0,1-.55.09c-4.71-3.2-7.9-4.76-8.48-8.06C316.3,236.59,317.54,234.26,319.72,233.88Z"/><path class="cls-12" d="M212.39,325.78l2.64-.47-.83-4.74a1.35,1.35,0,0,0-1.56-1.09h0a1.36,1.36,0,0,0-1.09,1.56Z"/><path class="cls-30" d="M209.71,322.37a3.84,3.84,0,0,1,3.78,1.91,3.86,3.86,0,0,1,2.89-3.09c2.19-.39,4.14,1.37,4.58,3.86.58,3.29-1.88,5.85-5.21,10.47a.39.39,0,0,1-.54.1c-4.71-3.2-7.9-4.77-8.48-8.06C206.29,325.07,207.53,322.75,209.71,322.37Z"/><path class="cls-12" d="M124,442.94l2.39-1.22-2.19-4.29a1.34,1.34,0,0,0-1.81-.58h0a1.34,1.34,0,0,0-.58,1.81Z"/><path class="cls-31" d="M120.4,440.47a3.83,3.83,0,0,1,4.17.72,3.85,3.85,0,0,1,1.86-3.81c2-1,4.36.1,5.51,2.34,1.52,3-.07,6.15-1.9,11.54a.39.39,0,0,1-.49.26c-5.44-1.68-9-2.23-10.47-5.21C117.93,444.06,118.42,441.48,120.4,440.47Z"/><path class="cls-12" d="M107.8,530.67l-2.36-1.28,2.3-4.23a1.33,1.33,0,0,1,1.82-.53h0a1.34,1.34,0,0,1,.54,1.82Z"/><path class="cls-32" d="M111.42,528.29a3.84,3.84,0,0,0-4.19.62,3.87,3.87,0,0,0-1.76-3.86c-2-1.06-4.36,0-5.57,2.21-1.6,2.93-.08,6.14,1.61,11.58a.39.39,0,0,0,.48.27c5.48-1.54,9-2,10.6-4.94C113.8,532,113.37,529.35,111.42,528.29Z"/><path class="cls-12" d="M208.53,571l2.6-.69-1.23-4.65a1.34,1.34,0,0,0-1.64-1h0a1.35,1.35,0,0,0-1,1.64Z"/><path class="cls-33" d="M205.58,567.78a3.83,3.83,0,0,1,3.92,1.6,3.87,3.87,0,0,1,2.63-3.33c2.15-.56,4.24,1,4.88,3.48.85,3.23-1.39,6-4.33,10.86a.38.38,0,0,1-.53.14c-5-2.8-8.26-4.1-9.11-7.33C202.39,570.76,203.43,568.34,205.58,567.78Z"/><path class="cls-12" d="M439.56,608.28l2.53.92,1.64-4.53a1.34,1.34,0,0,0-.81-1.72h0a1.35,1.35,0,0,0-1.72.81Z"/><path class="cls-34" d="M438.94,604a3.82,3.82,0,0,1,2.32,3.54,3.83,3.83,0,0,1,4.05-1.23c2.09.75,2.91,3.26,2.05,5.63-1.14,3.14-4.55,4.14-9.74,6.48a.41.41,0,0,1-.53-.19c-2.48-5.12-4.46-8.07-3.32-11.22C434.63,604.63,436.86,603.23,438.94,604Z"/><path class="cls-12" d="M474.8,673.93l2.09,1.7,3-3.74a1.34,1.34,0,0,0-.2-1.89h0a1.34,1.34,0,0,0-1.89.2Z"/><path class="cls-35" d="M475.62,669.67a3.84,3.84,0,0,1,1,4.11,3.85,3.85,0,0,1,4.23.16c1.73,1.4,1.68,4,.09,6-2.11,2.6-5.66,2.42-11.33,2.93a.39.39,0,0,1-.43-.35c-.66-5.65-1.57-9.09.54-11.68C471.34,668.87,473.9,668.28,475.62,669.67Z"/><path class="cls-12" d="M536.33,678.24l2.08,1.69,3-3.74a1.35,1.35,0,0,0-.2-1.89h0a1.35,1.35,0,0,0-1.89.2Z"/><path class="cls-36" d="M537.15,674a3.86,3.86,0,0,1,1,4.11,3.85,3.85,0,0,1,4.23.16c1.72,1.4,1.68,4,.08,6-2.1,2.59-5.65,2.41-11.32,2.92a.39.39,0,0,1-.43-.35c-.67-5.64-1.57-9.08.53-11.68C532.86,673.17,535.43,672.58,537.15,674Z"/><path class="cls-12" d="M323.7,363.31l2.65-.46-.84-4.74A1.35,1.35,0,0,0,324,357h0a1.33,1.33,0,0,0-1.08,1.55Z"/><path class="cls-37" d="M321,359.9a3.85,3.85,0,0,1,3.78,1.92,3.84,3.84,0,0,1,2.89-3.09c2.19-.39,4.15,1.37,4.58,3.86.58,3.29-1.88,5.85-5.2,10.47a.39.39,0,0,1-.55.09c-4.71-3.19-7.9-4.76-8.48-8C317.6,362.61,318.84,360.29,321,359.9Z"/><path class="cls-12" d="M379.52,251.54l-2.68.12-.22-4.81a1.33,1.33,0,0,1,1.28-1.4h0a1.34,1.34,0,0,1,1.4,1.28Z"/><path class="cls-38" d="M381.39,247.62a3.86,3.86,0,0,0-3.27,2.7,3.81,3.81,0,0,0-3.5-2.38c-2.22.1-3.74,2.24-3.62,4.77.15,3.33,3.11,5.3,7.38,9.07a.38.38,0,0,0,.55,0c3.89-4.16,6.66-6.39,6.5-9.72C385.32,249.51,383.6,247.52,381.39,247.62Z"/><path class="cls-12" d="M357.29,364l-2.69.13-.22-4.81a1.34,1.34,0,0,1,1.28-1.4h0a1.33,1.33,0,0,1,1.4,1.28Z"/><path class="cls-39" d="M359.15,360.12a3.82,3.82,0,0,0-3.26,2.7,3.86,3.86,0,0,0-3.51-2.39c-2.21.11-3.74,2.25-3.62,4.77.16,3.34,3.12,5.3,7.38,9.08a.39.39,0,0,0,.55,0c3.89-4.15,6.66-6.38,6.51-9.72C363.08,362,361.37,360,359.15,360.12Z"/><path class="cls-12" d="M185.74,472.7l-2.68.16-.29-4.8a1.34,1.34,0,0,1,1.26-1.42h0a1.34,1.34,0,0,1,1.42,1.26Z"/><path class="cls-40" d="M187.55,468.76a3.87,3.87,0,0,0-3.23,2.74,3.84,3.84,0,0,0-3.53-2.33c-2.22.13-3.71,2.29-3.56,4.82.2,3.33,3.18,5.25,7.49,9a.4.4,0,0,0,.56,0c3.83-4.2,6.57-6.47,6.38-9.8C191.51,470.6,189.76,468.63,187.55,468.76Z"/><path class="cls-12" d="M251.44,453.74l-2.68.16-.29-4.81a1.35,1.35,0,0,1,1.26-1.42h0a1.34,1.34,0,0,1,1.42,1.26Z"/><path class="cls-41" d="M253.25,449.8a3.86,3.86,0,0,0-3.23,2.74,3.83,3.83,0,0,0-3.53-2.34c-2.22.13-3.71,2.3-3.56,4.82.2,3.34,3.18,5.26,7.49,9a.4.4,0,0,0,.56,0c3.83-4.2,6.57-6.46,6.38-9.8C257.21,451.64,255.46,449.67,253.25,449.8Z"/><path class="cls-12" d="M182.76,593.85l-2.68.12-.23-4.81a1.35,1.35,0,0,1,1.28-1.4h0a1.36,1.36,0,0,1,1.41,1.28Z"/><path class="cls-42" d="M184.63,589.93a3.86,3.86,0,0,0-3.27,2.7,3.84,3.84,0,0,0-3.5-2.38c-2.22.1-3.74,2.25-3.62,4.77.15,3.34,3.11,5.3,7.37,9.07a.4.4,0,0,0,.56,0c3.89-4.15,6.66-6.38,6.5-9.72C188.55,591.83,186.84,589.83,184.63,589.93Z"/><path class="cls-12" d="M506.47,689.21l-2.63-.55,1-4.71a1.34,1.34,0,0,1,1.59-1h0a1.35,1.35,0,0,1,1,1.59Z"/><path class="cls-43" d="M509.26,685.89a3.84,3.84,0,0,0-3.84,1.79,3.85,3.85,0,0,0-2.79-3.18c-2.18-.46-4.19,1.24-4.71,3.71-.68,3.27,1.7,5.91,4.88,10.63a.38.38,0,0,0,.54.12c4.8-3.05,8-4.52,8.73-7.79C512.59,688.7,511.42,686.34,509.26,685.89Z"/><path class="cls-12" d="M285.52,554.62l-2.68.12-.22-4.81a1.34,1.34,0,0,1,1.28-1.4h0a1.34,1.34,0,0,1,1.4,1.28Z"/><path class="cls-44" d="M287.39,550.7a3.83,3.83,0,0,0-3.26,2.7,3.85,3.85,0,0,0-3.51-2.38c-2.21.1-3.74,2.25-3.62,4.77.16,3.34,3.12,5.3,7.38,9.07a.38.38,0,0,0,.55,0c3.89-4.15,6.66-6.38,6.51-9.72C291.32,552.6,289.6,550.6,287.39,550.7Z"/><path class="cls-12" d="M404.74,598.74l-2.54-.86,1.55-4.56a1.35,1.35,0,0,1,1.71-.83h0a1.34,1.34,0,0,1,.83,1.7Z"/><path class="cls-45" d="M407.91,595.79a3.85,3.85,0,0,0-4,1.31,3.82,3.82,0,0,0-2.38-3.5c-2.1-.72-4.3.71-5.12,3.1-1.08,3.17.95,6.08,3.53,11.15a.38.38,0,0,0,.52.18c5.15-2.43,8.54-3.49,9.62-6.65C410.87,599,410,596.51,407.91,595.79Z"/><path class="cls-12" d="M405,265.32l2.67.32.57-4.78a1.34,1.34,0,0,0-1.17-1.49h0a1.35,1.35,0,0,0-1.49,1.17Z"/><path class="cls-46" d="M403.39,261.28a3.86,3.86,0,0,1,3.06,2.93,3.86,3.86,0,0,1,3.66-2.12c2.21.26,3.57,2.52,3.27,5-.4,3.32-3.5,5.06-8,8.52a.4.4,0,0,1-.55-.07c-3.58-4.43-6.18-6.85-5.78-10.17C399.33,262.88,401.19,261,403.39,261.28Z"/><path class="cls-12" d="M374.19,301.28l2.66.32.58-4.78a1.34,1.34,0,0,0-1.18-1.49h0a1.34,1.34,0,0,0-1.49,1.17Z"/><path class="cls-47" d="M372.61,297.24a3.83,3.83,0,0,1,3.06,2.93,3.83,3.83,0,0,1,3.67-2.12c2.2.26,3.56,2.51,3.26,5-.4,3.32-3.49,5.06-8,8.51a.39.39,0,0,1-.55-.07c-3.57-4.42-6.17-6.85-5.78-10.16C368.56,298.84,370.41,297,372.61,297.24Z"/><path class="cls-12" d="M389.65,327.06l-2.67.32-.57-4.78a1.35,1.35,0,0,1,1.17-1.49h0a1.35,1.35,0,0,1,1.5,1.17Z"/><path class="cls-48" d="M391.23,323a3.86,3.86,0,0,0-3.06,2.93,3.87,3.87,0,0,0-3.67-2.12c-2.2.26-3.57,2.52-3.26,5,.39,3.32,3.49,5.06,8,8.52a.4.4,0,0,0,.55-.07c3.57-4.43,6.17-6.85,5.77-10.17C395.28,324.62,393.43,322.76,391.23,323Z"/><path class="cls-12" d="M265.57,356.33l2.66.32.58-4.78a1.35,1.35,0,0,0-1.18-1.49h0a1.35,1.35,0,0,0-1.49,1.17Z"/><path class="cls-49" d="M264,352.29a3.84,3.84,0,0,1,3.06,2.93,3.85,3.85,0,0,1,3.67-2.12c2.2.26,3.56,2.51,3.26,5-.4,3.32-3.49,5.06-8,8.51a.39.39,0,0,1-.55-.06c-3.57-4.43-6.17-6.85-5.78-10.17C259.94,353.89,261.79,352,264,352.29Z"/><path class="cls-12" d="M388.22,354.78l2.67.32.57-4.77a1.35,1.35,0,0,0-1.17-1.5h0a1.35,1.35,0,0,0-1.5,1.18Z"/><path class="cls-50" d="M386.64,350.74a3.86,3.86,0,0,1,3.06,2.93,3.87,3.87,0,0,1,3.67-2.12c2.2.27,3.57,2.52,3.26,5-.39,3.31-3.49,5.05-8,8.51a.4.4,0,0,1-.55-.07c-3.57-4.42-6.17-6.85-5.77-10.17C382.59,352.34,384.44,350.48,386.64,350.74Z"/><path class="cls-12" d="M462.6,402.92l2.66.32.58-4.78a1.33,1.33,0,0,0-1.17-1.49h0a1.34,1.34,0,0,0-1.5,1.17Z"/><path class="cls-51" d="M461,398.88a3.83,3.83,0,0,1,3.06,2.93,3.86,3.86,0,0,1,3.67-2.13c2.2.27,3.56,2.52,3.26,5-.39,3.32-3.49,5.05-8,8.51a.4.4,0,0,1-.55-.07c-3.57-4.42-6.17-6.85-5.77-10.17C457,400.48,458.82,398.61,461,398.88Z"/><path class="cls-12" d="M438.83,354.44l-2.51,1-1.74-4.49a1.36,1.36,0,0,1,.77-1.74h0a1.36,1.36,0,0,1,1.74.77Z"/><path class="cls-52" d="M439.35,350.13a3.86,3.86,0,0,0-2.24,3.6,3.84,3.84,0,0,0-4.07-1.15c-2.07.8-2.83,3.32-1.92,5.68,1.21,3.11,4.64,4,9.88,6.26a.39.39,0,0,0,.51-.2c2.37-5.17,4.29-8.17,3.08-11.28C443.68,350.68,441.42,349.33,439.35,350.13Z"/><path class="cls-12" d="M335.87,415.82l-2.64.46-.82-4.75A1.34,1.34,0,0,1,333.5,410h0a1.36,1.36,0,0,1,1.56,1.1Z"/><path class="cls-53" d="M337.24,411.7a3.86,3.86,0,0,0-2.91,3.09,3.85,3.85,0,0,0-3.77-1.94c-2.18.38-3.43,2.7-3,5.19.57,3.29,3.75,4.87,8.45,8.09a.4.4,0,0,0,.55-.1c3.34-4.6,5.81-7.16,5.24-10.45C341.37,413.09,339.42,411.33,337.24,411.7Z"/><path class="cls-12" d="M309,532l-2.5,1-1.74-4.49a1.33,1.33,0,0,1,.76-1.73h0a1.34,1.34,0,0,1,1.74.76Z"/><path class="cls-54" d="M309.51,527.67a3.82,3.82,0,0,0-2.24,3.59,3.88,3.88,0,0,0-4.08-1.15c-2.07.81-2.83,3.32-1.92,5.68,1.21,3.11,4.64,4,9.88,6.26a.4.4,0,0,0,.52-.2c2.36-5.17,4.28-8.17,3.07-11.28C313.83,528.21,311.57,526.86,309.51,527.67Z"/><path class="cls-12" d="M574.28,607.17l-2.69,0,0-4.81A1.36,1.36,0,0,1,573,601h0a1.35,1.35,0,0,1,1.34,1.35Z"/><path class="cls-55" d="M576.35,603.36a3.83,3.83,0,0,0-3.4,2.52,3.86,3.86,0,0,0-3.38-2.57c-2.21,0-3.85,2.05-3.86,4.58,0,3.34,2.83,5.45,6.88,9.45a.4.4,0,0,0,.56,0c4.1-3.94,7-6,7-9.36C580.17,605.45,578.56,603.37,576.35,603.36Z"/><path class="cls-12" d="M319.87,500.11l2.5,1,1.74-4.49a1.34,1.34,0,0,0-.77-1.74h0a1.34,1.34,0,0,0-1.73.77Z"/><path class="cls-56" d="M319.34,495.8a3.85,3.85,0,0,1,2.24,3.6,3.83,3.83,0,0,1,4.08-1.15c2.07.8,2.83,3.32,1.92,5.68-1.21,3.11-4.64,4-9.88,6.26a.4.4,0,0,1-.52-.2c-2.37-5.18-4.29-8.17-3.08-11.29C315,496.35,317.28,495,319.34,495.8Z"/><path class="cls-12" d="M448.66,313.9l-2.32,1.34-2.4-4.17a1.34,1.34,0,0,1,.49-1.83h0a1.34,1.34,0,0,1,1.83.49Z"/><path class="cls-57" d="M448.53,309.57a3.86,3.86,0,0,0-1.67,3.89,3.83,3.83,0,0,0-4.2-.51c-1.92,1.1-2.3,3.71-1,5.9,1.67,2.89,5.2,3.28,10.72,4.69a.4.4,0,0,0,.48-.28c1.55-5.47,3-8.72,1.33-11.62C452.89,309.45,450.45,308.46,448.53,309.57Z"/><path class="cls-58" d="M283.62,174.17h-.46a15.52,15.52,0,0,1-10.89-5.3,16.86,16.86,0,0,1-4.52-12.33c.57-8.52,8-16,16.84-17.12l.12,1c-8.41,1-15.42,8.13-16,16.18a15.82,15.82,0,0,0,4.26,11.6,14.55,14.55,0,0,0,10.18,5c6.26.21,11.41-3.5,16.86-7.4,4.65-3.32,9.47-6.77,15.07-7.63,5-.77,10,.63,14.77,2,1.41.4,2.86.8,4.28,1.14a57.3,57.3,0,0,0,24.42.51c4.6-.91,10.42-3,12-8,1.41-4.38-1.31-9-4.44-11.49-3.58-2.81-8.26-4.06-12.39-5.17l.25-1c4.23,1.13,9,2.41,12.75,5.35,3.4,2.66,6.34,7.74,4.79,12.58-1.75,5.45-7.92,7.74-12.79,8.7a58.34,58.34,0,0,1-24.85-.51c-1.44-.35-2.89-.76-4.31-1.15-4.7-1.32-9.56-2.68-14.35-1.95-5.37.83-10.08,4.2-14.64,7.46C295.41,170.31,290,174.17,283.62,174.17Z"/><path class="cls-12" d="M308.66,167.79l-2.68-.21.38-4.8a1.34,1.34,0,0,1,1.45-1.23h0A1.35,1.35,0,0,1,309,163Z"/><path class="cls-59" d="M311,164.14a3.85,3.85,0,0,0-3.58,2.27,3.85,3.85,0,0,0-3.17-2.8c-2.22-.18-4,1.76-4.2,4.28-.26,3.33,2.43,5.64,6.18,9.92a.4.4,0,0,0,.56.05c4.38-3.63,7.4-5.5,7.67-8.83C314.66,166.51,313.21,164.32,311,164.14Z"/><path class="cls-12" d="M337.91,169l2.64-.46-.83-4.74a1.35,1.35,0,0,0-1.56-1.09h0a1.34,1.34,0,0,0-1.09,1.55Z"/><path class="cls-60" d="M335.23,165.56a3.86,3.86,0,0,1,3.78,1.92,3.84,3.84,0,0,1,2.89-3.09c2.19-.39,4.14,1.37,4.58,3.86.58,3.29-1.88,5.85-5.21,10.47a.39.39,0,0,1-.54.1c-4.71-3.2-7.9-4.77-8.48-8.06C331.81,168.27,333.05,166,335.23,165.56Z"/><path class="cls-61" d="M339.4,187.62a18,18,0,1,1,18-18.09A18,18,0,0,1,339.4,187.62Z"/><path class="cls-62" d="M307.3,186.16a18,18,0,1,1,18-18.08A18,18,0,0,1,307.3,186.16Z"/><path class="cls-63" d="M323.9,255.34a18.05,18.05,0,1,1,18-18.09A18,18,0,0,1,323.9,255.34Z"/><path class="cls-64" d="M350.65,274.75a18.05,18.05,0,1,1,18-18.09A18,18,0,0,1,350.65,274.75Z"/><path class="cls-65" d="M378.45,269.71a18.05,18.05,0,1,1,18-18.09A18,18,0,0,1,378.45,269.71Z"/><path class="cls-66" d="M375.47,319.91a18.05,18.05,0,1,1,18-18.09A18,18,0,0,1,375.47,319.91Z"/><path class="cls-67" d="M388.45,346.16a18,18,0,1,1,18-18.08A18,18,0,0,1,388.45,346.16Z"/><path class="cls-68" d="M437.89,373.46a18.05,18.05,0,1,1,18-18.09A18,18,0,0,1,437.89,373.46Z"/><path class="cls-69" d="M463.77,421.93a18,18,0,1,1,18-18.08A18,18,0,0,1,463.77,421.93Z"/><path class="cls-12" d="M488.72,411.24l2.67-.17-.32-4.81a1.33,1.33,0,0,0-1.42-1.25h0a1.34,1.34,0,0,0-1.25,1.43Z"/><path class="cls-70" d="M486.42,407.56a3.85,3.85,0,0,1,3.55,2.32,3.85,3.85,0,0,1,3.21-2.77c2.21-.14,4,1.82,4.14,4.34.22,3.33-2.5,5.61-6.31,9.85a.4.4,0,0,1-.56,0c-4.33-3.68-7.33-5.59-7.55-8.92C482.73,409.89,484.21,407.71,486.42,407.56Z"/><path class="cls-71" d="M493.38,429.72a18,18,0,1,1,14.35-21.11A18.06,18.06,0,0,1,493.38,429.72Z"/><path class="cls-12" d="M518.51,408.63l2.58-.75-1.34-4.62a1.36,1.36,0,0,0-1.67-.92h0a1.35,1.35,0,0,0-.91,1.67Z"/><path class="cls-72" d="M515.48,405.53a3.84,3.84,0,0,1,4,1.49,3.86,3.86,0,0,1,2.54-3.38c2.14-.62,4.27.91,5,3.34.93,3.21-1.24,6-4.05,11a.39.39,0,0,1-.53.16c-5-2.67-8.36-3.89-9.3-7.09C512.38,408.59,513.35,406.15,515.48,405.53Z"/><path class="cls-73" d="M389.5,373.46a18.05,18.05,0,1,1,18-18.09A18,18,0,0,1,389.5,373.46Z"/><path class="cls-74" d="M356,382.6a18.05,18.05,0,1,1,18-18.09A18,18,0,0,1,356,382.6Z"/><path class="cls-75" d="M325.2,381.36a18,18,0,1,1,18-18.09A18,18,0,0,1,325.2,381.36Z"/><path class="cls-76" d="M267.23,375.34a18.05,18.05,0,1,1,18-18.09A18.06,18.06,0,0,1,267.23,375.34Z"/><path class="cls-12" d="M295,352.55l2.66.32.58-4.78a1.35,1.35,0,0,0-1.18-1.49h0a1.35,1.35,0,0,0-1.49,1.17Z"/><path class="cls-77" d="M293.42,348.51a3.86,3.86,0,0,1,3.06,2.93,3.87,3.87,0,0,1,3.67-2.12c2.2.26,3.56,2.52,3.26,5-.4,3.32-3.49,5.06-8,8.52a.4.4,0,0,1-.55-.07c-3.57-4.43-6.17-6.85-5.78-10.17C289.37,350.11,291.22,348.25,293.42,348.51Z"/><path class="cls-78" d="M296.66,371.56a18.05,18.05,0,1,1,18-18.09A18.06,18.06,0,0,1,296.66,371.56Z"/><path class="cls-79" d="M335,434.85a18,18,0,1,1,17.77-18.32A18.06,18.06,0,0,1,335,434.85Z"/><path class="cls-12" d="M310.62,429.17l-2.64.46-.82-4.75a1.34,1.34,0,0,1,1.09-1.55h0a1.35,1.35,0,0,1,1.55,1.1Z"/><path class="cls-80" d="M312,425.05a3.86,3.86,0,0,0-2.91,3.09,3.83,3.83,0,0,0-3.77-1.93c-2.18.37-3.43,2.69-3,5.18.57,3.29,3.75,4.87,8.45,8.09a.39.39,0,0,0,.54-.1c3.35-4.6,5.82-7.15,5.25-10.45C316.12,426.44,314.17,424.68,312,425.05Z"/><path class="cls-81" d="M309.7,448.2a18,18,0,1,1,17.78-18.32A18,18,0,0,1,309.7,448.2Z"/><path class="cls-82" d="M250.41,472.43a18,18,0,1,1,17.78-18.32A18.06,18.06,0,0,1,250.41,472.43Z"/><path class="cls-12" d="M282.06,441.84l-2.68.16-.29-4.8a1.34,1.34,0,0,1,1.26-1.42h0a1.34,1.34,0,0,1,1.42,1.26Z"/><path class="cls-83" d="M283.87,437.9a3.86,3.86,0,0,0-3.23,2.74,3.82,3.82,0,0,0-3.53-2.33c-2.21.13-3.71,2.29-3.56,4.81.2,3.34,3.19,5.26,7.5,9a.38.38,0,0,0,.55,0c3.83-4.2,6.58-6.47,6.38-9.8C287.83,439.74,286.09,437.77,283.87,437.9Z"/><path class="cls-84" d="M281,460.53a18,18,0,1,1,17.77-18.32A18.06,18.06,0,0,1,281,460.53Z"/><path class="cls-85" d="M320.78,519.8a18,18,0,1,1,18-18.08A18.05,18.05,0,0,1,320.78,519.8Z"/><path class="cls-86" d="M308,551a18.05,18.05,0,1,1,18-18.09A18.06,18.06,0,0,1,308,551Z"/><path class="cls-87" d="M284.26,573.49a18,18,0,1,1,18-18.08A18,18,0,0,1,284.26,573.49Z"/><path class="cls-88" d="M334.86,588a18,18,0,1,1,23.39-10.21A18,18,0,0,1,334.86,588Z"/><path class="cls-89" d="M362.65,615.24A18,18,0,1,1,386,605,18.06,18.06,0,0,1,362.65,615.24Z"/><path class="cls-90" d="M396.53,615.69a18,18,0,1,1,23.39-10.21A18,18,0,0,1,396.53,615.69Z"/><path class="cls-91" d="M433.93,626.36a18,18,0,1,1,23.4-10.21A18,18,0,0,1,433.93,626.36Z"/><path class="cls-92" d="M468.76,692.2A18,18,0,1,1,492.15,682,18,18,0,0,1,468.76,692.2Z"/><path class="cls-12" d="M454.58,645.41l2.67.26.48-4.79a1.34,1.34,0,0,0-1.21-1.46h0a1.34,1.34,0,0,0-1.47,1.2Z"/><path class="cls-93" d="M452.92,641.4a3.85,3.85,0,0,1,3.12,2.87,3.84,3.84,0,0,1,3.62-2.2c2.21.22,3.62,2.44,3.37,5-.33,3.32-3.4,5.12-7.85,8.67a.39.39,0,0,1-.55-.06c-3.67-4.35-6.32-6.72-6-10C448.9,643.08,450.71,641.18,452.92,641.4Z"/><path class="cls-94" d="M459.58,664a18,18,0,1,1,13.92-21.39A18,18,0,0,1,459.58,664Z"/><path class="cls-95" d="M498.46,706.36a18,18,0,1,1,23.39-10.21A18,18,0,0,1,498.46,706.36Z"/><path class="cls-12" d="M562,654.49l-2.62-.55,1-4.71a1.34,1.34,0,0,1,1.59-1h0a1.34,1.34,0,0,1,1,1.59Z"/><path class="cls-96" d="M564.75,651.17a3.85,3.85,0,0,0-3.84,1.79,3.82,3.82,0,0,0-2.79-3.18c-2.17-.46-4.18,1.24-4.7,3.71-.69,3.27,1.69,5.91,4.87,10.63a.38.38,0,0,0,.54.12c4.81-3,8-4.52,8.73-7.79C568.08,654,566.92,651.62,564.75,651.17Z"/><path class="cls-97" d="M554,671.64a18,18,0,1,1,23.39-10.21A18,18,0,0,1,554,671.64Z"/><path class="cls-98" d="M530.69,696.82a18,18,0,1,1,23.39-10.21A18,18,0,0,1,530.69,696.82Z"/><path class="cls-99" d="M239.52,575.88a18,18,0,1,1,18-18.09A18,18,0,0,1,239.52,575.88Z"/><path class="cls-100" d="M210.06,589.28a18,18,0,1,1,18-18.09A18,18,0,0,1,210.06,589.28Z"/><path class="cls-101" d="M181.49,612.6a18.05,18.05,0,1,1,18-18.09A18,18,0,0,1,181.49,612.6Z"/><path class="cls-102" d="M148.54,623.85a18,18,0,1,1,18-18.08A18,18,0,0,1,148.54,623.85Z"/><path class="cls-103" d="M97.12,582.34a18,18,0,1,1,18-18.08A18,18,0,0,1,97.12,582.34Z"/><path class="cls-104" d="M106.29,549a18,18,0,1,1,18-18.08A18,18,0,0,1,106.29,549Z"/><path class="cls-105" d="M222,481.83a18,18,0,1,1,17.77-18.32A18,18,0,0,1,222,481.83Z"/><path class="cls-106" d="M184.71,491.33A18,18,0,1,1,202.48,473,18,18,0,0,1,184.71,491.33Z"/><path class="cls-107" d="M205.29,382.6a18.05,18.05,0,1,1,18-18.09A18,18,0,0,1,205.29,382.6Z"/><path class="cls-108" d="M213.88,344.34a18.05,18.05,0,1,1,18-18.09A18,18,0,0,1,213.88,344.34Z"/><path class="cls-109" d="M406.25,283.69a18,18,0,1,1,18-18.09A18,18,0,0,1,406.25,283.69Z"/><path class="cls-11" d="M345.53,119.36l-41.12-9.61,27.52-10.27a1.5,1.5,0,0,0,0-2.81L311.5,89l10.44-8.27a1.5,1.5,0,0,0,.45-1.78l-3.18-7.23L318.9,71c18.35-16,31.23-24.59,31.23-38.18,0-10.35-7.38-18.83-17.48-18.83-7,0-12.22,4.3-15.43,10.41C314,18.29,308.8,14,301.79,14c-10.1,0-17.48,8.48-17.48,18.83,0,13.64,13,22.22,31.44,38.36a1.58,1.58,0,0,0,.09.31l.1.22,3.23,7.38-11.61,9.19a1.53,1.53,0,0,0-.55,1.41,1.5,1.5,0,0,0,.95,1.17l19.17,7.21-28.42,10.6a1.5,1.5,0,0,0,.19,2.87l39.37,9.2-51.79,10.9a1.5,1.5,0,0,0,.31,3l.31,0,58.4-12.29a1.5,1.5,0,0,0,0-2.93Z"/><path class="cls-11" d="M332.65,14c10.1,0,17.48,8.48,17.48,18.83C350.13,46.41,337.25,55,318.9,71l.31.71,3.18,7.23a1.5,1.5,0,0,1-.45,1.78L311.5,89l20.44,7.68a1.5,1.5,0,0,1,0,2.81l-27.52,10.27,41.12,9.61a1.5,1.5,0,0,1,0,2.93l-58.4,12.29-.31,0a1.5,1.5,0,0,1-.31-3l51.79-10.9-39.37-9.2a1.5,1.5,0,0,1-.19-2.87l28.42-10.6L308,90.86a1.5,1.5,0,0,1-.95-1.17,1.53,1.53,0,0,1,.55-1.41l11.61-9.19-3.23-7.38-.1-.22a1.58,1.58,0,0,1-.09-.31C297.27,55,284.31,46.46,284.31,32.82c0-10.35,7.38-18.83,17.48-18.83,7,0,12.22,4.3,15.43,10.41C320.43,18.29,325.63,14,332.65,14m0-2c-6.19,0-11.57,3-15.43,8.55C313.36,15,308,12,301.79,12c-10.92,0-19.48,9.15-19.48,20.83,0,12.5,9.61,20.66,24.16,33,2.42,2.05,4.92,4.18,7.56,6.48l.09.21,2.6,5.94-10.4,8.23A3.58,3.58,0,0,0,305,90a3.51,3.51,0,0,0,2.22,2.74l14.18,5.33L298,106.79a3.47,3.47,0,0,0-2.26,3.5,3.51,3.51,0,0,0,2.7,3.2l30.6,7.15-43,9a3.52,3.52,0,0,0-2.71,4.15,3.54,3.54,0,0,0,3.43,2.78,3.14,3.14,0,0,0,.68-.07l58.44-12.29a3.5,3.5,0,0,0,.07-6.84l-34.67-8.1,21.32-8a3.5,3.5,0,0,0,0-6.55l-17.13-6.44,7.66-6.07a3.5,3.5,0,0,0,1.05-4.14l-2.91-6.61c2.31-2,4.52-3.87,6.66-5.69,14.54-12.37,24.15-20.53,24.15-33,0-11.68-8.55-20.83-19.48-20.83Z"/><path class="cls-110" d="M317.22,65.49,332.1,53.25c12.15-10,19.37-17.61,19.37-27.4S344.48,7,333.28,7s-16.06,10.42-16.06,10.42S312.38,7,301.17,7,283,16.06,283,25.85s7.23,17.4,19.38,27.4Z"/><path class="cls-11" d="M333.28,7c11.2,0,18.19,9.06,18.19,18.85s-7.22,17.4-19.37,27.4L317.22,65.49,302.35,53.25C290.2,43.25,283,35.64,283,25.85S290,7,301.17,7s16.05,10.42,16.05,10.42S322.07,7,333.28,7m0-7a23.92,23.92,0,0,0-16.06,6.18A23.91,23.91,0,0,0,301.17,0a24.54,24.54,0,0,0-18.5,8.06A26.46,26.46,0,0,0,276,25.85c0,13.63,10.37,23.3,21.93,32.8l14.88,12.24a7,7,0,0,0,8.89,0l14.88-12.24c11.55-9.5,21.92-19.17,21.92-32.8a26.46,26.46,0,0,0-6.7-17.79A24.54,24.54,0,0,0,333.28,0Z"/></g></g></svg>