<svg xmlns="http://www.w3.org/2000/svg" width="500" height="104.225" viewBox="0 0 500 104.225">
  <g id="Group_1242" data-name="Group 1242" transform="translate(861.998 -575.979)">
    <g id="Group_1190" data-name="Group 1190" transform="translate(-861.998 575.979)">
      <g id="Group_1186" data-name="Group 1186">
        <g id="Group_1184" data-name="Group 1184">
          <path id="Path_1576" data-name="Path 1576" d="M-862,604.565a557.443,557.443,0,0,1,102.745-28.586q2.014,33.542,4.025,67.085A532.646,532.646,0,0,0-853.4,670.379q4.611-19.04,9.554-38Q-852.775,618.315-862,604.565Z" transform="translate(861.998 -575.979)" fill="#ea4e5e"/>
        </g>
        <g id="Group_1185" data-name="Group 1185" transform="translate(9.299 7.987)">
          <path id="Path_1577" data-name="Path 1577" d="M-766.381,582.017a554.727,554.727,0,0,0-88.587,24.46c4.437,6.714,8.836,13.507,13.135,20.279l1.754,2.763-.87,3.34c-2.25,8.627-4.471,17.359-6.634,26.083a538.208,538.208,0,0,1,84.435-23.069Z" transform="translate(854.968 -582.017)" fill="none" stroke="#fff" stroke-miterlimit="10" stroke-width="0.75"/>
        </g>
        <path id="Path_1578" data-name="Path 1578" d="M-820.505,606.8c15.709-11.143,31.615-21.189,47.859-30.824.4,6.708.806,14.205,1.208,20.914C-787.863,599.781-804.172,602.319-820.505,606.8Z" transform="translate(875.391 -575.979)" fill="#b60932"/>
      </g>
      <g id="Group_1189" data-name="Group 1189" transform="translate(393.23)">
        <g id="Group_1187" data-name="Group 1187">
          <path id="Path_1579" data-name="Path 1579" d="M-457.949,604.565a557.433,557.433,0,0,0-102.743-28.586q-2.014,33.542-4.026,67.085a532.657,532.657,0,0,1,98.176,27.315q-4.611-19.04-9.556-38Q-467.172,618.315-457.949,604.565Z" transform="translate(564.719 -575.979)" fill="#ea4e5e"/>
        </g>
        <g id="Group_1188" data-name="Group 1188" transform="translate(5.652 7.987)">
          <path id="Path_1580" data-name="Path 1580" d="M-560.446,635.875a538.283,538.283,0,0,1,84.435,23.069c-2.168-8.741-4.388-17.475-6.632-26.083l-.872-3.34,1.754-2.763c4.306-6.782,8.705-13.575,13.134-20.279a554.709,554.709,0,0,0-88.586-24.46Z" transform="translate(560.446 -582.017)" fill="none" stroke="#fff" stroke-miterlimit="10" stroke-width="0.75"/>
        </g>
        <path id="Path_1581" data-name="Path 1581" d="M-513.522,606.8c-15.709-11.143-31.614-21.189-47.858-30.824-.4,6.708-.806,14.205-1.209,20.914C-546.164,599.781-529.854,602.319-513.522,606.8Z" transform="translate(565.406 -575.979)" fill="#b60932"/>
      </g>
      <path id="Path_1582" data-name="Path 1582" d="M-430.174,603.854a825.441,825.441,0,0,0-390.331,0q3.9,37.453,7.787,74.907a792.5,792.5,0,0,1,374.758,0Q-434.067,641.308-430.174,603.854Z" transform="translate(875.391 -574.536)" fill="#f27775"/>
      <path id="Path_1583" data-name="Path 1583" d="M-626.793,585.908A828.087,828.087,0,0,0-816,608.015l6.419,61.762a803.733,803.733,0,0,1,182.788-21.257,803.742,803.742,0,0,1,182.788,21.257l6.419-61.762A828.09,828.09,0,0,0-626.793,585.908Z" transform="translate(876.844 -572.774)" fill="none" stroke="#fff" stroke-miterlimit="10" stroke-width="0.75"/>
    </g>
    <g id="Group_1192" data-name="Group 1192" transform="translate(-790.45 605.33)">
      <g id="Group_1191" data-name="Group 1191">
        <path id="Path_1584" data-name="Path 1584" d="M-789.65,619.328l-16.045,3.136a1.614,1.614,0,0,1-2.157-1.421,1.614,1.614,0,0,1,1.463-2.128l3.585-.7-.776-3.975a1.773,1.773,0,0,1,1.6-2.341,1.775,1.775,0,0,1,2.37,1.563l.778,3.976,5.147-1.007-1.069-5.467a1.854,1.854,0,0,1,1.656-2.462,1.871,1.871,0,0,1,2.5,1.649l.09.46,8.8-1.72a1.405,1.405,0,0,1,1.866,1.255,1.422,1.422,0,0,1-1.25,1.9l-8.8,1.722.361,1.847,11.643-2.278a1.616,1.616,0,0,1,2.157,1.421,1.614,1.614,0,0,1-1.463,2.13l-2.521.493q.912.335,1.686.7.7.379.1,1.27l.994-.194a1.582,1.582,0,0,1,2.086,1.434,1.582,1.582,0,0,1-1.393,2.115l-7.986,1.563a44.194,44.194,0,0,0,2.676,6.146,21.547,21.547,0,0,0,1.131-4.016,1.933,1.933,0,0,1,2.178-1.864q2.107.03,1.8,2.228a30.786,30.786,0,0,1-2.593,7.474q2.131,2.419,3.729,2.107c.331-.063.534-.411.607-1.04a5.284,5.284,0,0,1,.31-2.566q.438-.97,1.591-.532a1.788,1.788,0,0,1,1,1.167,5.933,5.933,0,0,1,.41,1.91,5.9,5.9,0,0,1-.854,3.447,4.2,4.2,0,0,1-2.622,1.4q-3.086.6-6.224-2.431a29.315,29.315,0,0,1-2.532,3.074,2.174,2.174,0,0,1-2.952.357c-.7-.552-1.03-1.065-1-1.536a2.639,2.639,0,0,1,1.085-1.614,23.833,23.833,0,0,0,2.847-3.542,41.341,41.341,0,0,1-4.388-9.425l-11.5,2.25a.784.784,0,0,0-.721,1.025l.381,1.953a41.985,41.985,0,0,1,.8,6.515,10.5,10.5,0,0,0,1.061-2.861,1.573,1.573,0,0,1,1.689-1.546q1.659.008,1.417,1.787a18.021,18.021,0,0,1-.977,3.1,2.182,2.182,0,0,1-1.282,1.081,2.359,2.359,0,0,1-1.75-.192l-.042-.028a.1.1,0,0,0-.079-.022,19.231,19.231,0,0,1-.71,5.225,1.874,1.874,0,0,1-2.638,1.4q-2.059-.74-1.17-3.163,1.018-4.03-.267-10.6l-.763-3.906a2.406,2.406,0,0,1,.3-1.845,2.307,2.307,0,0,1,1.577-.99l13.6-2.659A22.644,22.644,0,0,1-789.65,619.328Zm-7.906,8.954,7.811-1.526a1.341,1.341,0,0,1,1.781,1.2,1.341,1.341,0,0,1-1.2,1.782l-2.059.4.917,4.685a13.191,13.191,0,0,0,.77-2.287,1.69,1.69,0,0,1,1.779-1.639q1.824-.1,1.525,1.766-1.5,6.669-8.026,10.783a1.809,1.809,0,0,1-2.34-.1q-.693-.712-.566-1.2t1.022-.992a22.06,22.06,0,0,0,2.79-2.13l-.071.015a.733.733,0,0,1-.779-.4,1.935,1.935,0,0,1-.5-1.321q.038-.653.825-.77l.037-.007c.212-.042.3-.181.249-.419l-1.041-5.324-2.343.459a1.342,1.342,0,0,1-1.782-1.2A1.342,1.342,0,0,1-797.556,628.282Zm16.437-8.3q-.73-.337-2.309-.876-.587-.18-.045-.985l-2.378.466q.361,1.476.578,2.208Z" transform="translate(807.908 -594.855)" fill="#fff"/>
        <path id="Path_1585" data-name="Path 1585" d="M-749.751,611.485l-11.624,1.746.72,4.794,9.98-1.5a1.9,1.9,0,0,1,2.433,1.828,1.9,1.9,0,0,1-1.788,2.463l-7.582,1.141a33,33,0,0,0,10.913,6.661,3.286,3.286,0,0,1,1.995,1.345,2.447,2.447,0,0,1-.439,2.189,2.706,2.706,0,0,1-1.388,1.232,2.889,2.889,0,0,1-1.862-.232,40.488,40.488,0,0,1-11.136-7.654l1.467,9.765a2.013,2.013,0,0,1-1.914,2.591,2.046,2.046,0,0,1-2.664-1.9l-1.425-9.479a39.038,39.038,0,0,1-8.339,10.47,2.706,2.706,0,0,1-1.689.8,2.565,2.565,0,0,1-1.671-.774q-1.149-1.07-1.021-1.931a3.143,3.143,0,0,1,1.443-1.827,35.6,35.6,0,0,0,8.646-9.893l-7.583,1.139a1.9,1.9,0,0,1-2.434-1.828,1.9,1.9,0,0,1,1.788-2.464l9.693-1.456-.721-4.792-11.3,1.7a1.933,1.933,0,0,1-2.474-1.858,1.934,1.934,0,0,1,1.818-2.505l11.3-1.7-.495-3.291a2.045,2.045,0,0,1,1.985-2.6,2.014,2.014,0,0,1,2.593,1.914l.495,3.29,11.624-1.746a1.95,1.95,0,0,1,2.509,1.853A1.95,1.95,0,0,1-749.751,611.485Z" transform="translate(816.989 -596.409)" fill="#fff"/>
        <path id="Path_1586" data-name="Path 1586" d="M-719.062,618.392l-11.294,1.19c-.026.221-.078.53-.157.926a6.768,6.768,0,0,0-.132.813l8.668-.913a1.859,1.859,0,0,1,1.808.591,2.784,2.784,0,0,1,.238,2.247,16.1,16.1,0,0,1-2.774,5.094,25.8,25.8,0,0,0,3.79.765q3.117.252,1.8,2.61a2.339,2.339,0,0,1-2.574,1.109,23.557,23.557,0,0,1-5.995-1.66,20.057,20.057,0,0,1-4.476,2.726,2.019,2.019,0,0,1-2.714-.55q-.8-1.042-.521-1.672a2.637,2.637,0,0,1,1.537-1.126,21.9,21.9,0,0,0,2.472-1.389,14.085,14.085,0,0,1-2.676-2.263,21.475,21.475,0,0,1-3.865,6.808,2.026,2.026,0,0,1-3.015.392,2.263,2.263,0,0,1-1.04-1.583,2.641,2.641,0,0,1,.984-1.721,21.036,21.036,0,0,0,4.43-10.759l-2.985.313a1.582,1.582,0,0,1-1.953-1.612,1.565,1.565,0,0,1,1.577-1.947l3.705-.392c.036-.343.056-.964.058-1.86l-2.339.245a2.078,2.078,0,0,1-1.587-.4,2.084,2.084,0,0,1-.718-1.47l-.053-.5a20.24,20.24,0,0,0-1.877-.894l1.521,14.425a2.418,2.418,0,0,1-.463,1.813,2.311,2.311,0,0,1-1.657.847l-5.611.593a2.318,2.318,0,0,1-1.8-.485,2.408,2.408,0,0,1-.831-1.675l-2.1-19.892a2.353,2.353,0,0,1,.466-1.8,2.355,2.355,0,0,1,1.659-.829l5.611-.59a2.342,2.342,0,0,1,1.795.466,2.343,2.343,0,0,1,.829,1.659l.436,4.135a21.717,21.717,0,0,0,2.274-6.021,2.382,2.382,0,0,1,.942-1.591,2.1,2.1,0,0,1,1.764-.331,65.356,65.356,0,0,0,9.75-2.738,2.45,2.45,0,0,1,1.188-.124,3.152,3.152,0,0,1,1.042.581q2.256,1.726-.153,2.672a65.179,65.179,0,0,1-10.769,2.734A35.5,35.5,0,0,1-736.7,610.5q-.357.764.544.669l5.36-.563a19,19,0,0,0-2.014-3.571q-.683-.946.4-1.425,2.1-1.091,3.5,1.123,1.486,2.389-.652,3.488l-.62.32,6.978-.737q.865-.091.431-.735a21.106,21.106,0,0,0-2.664-2.848q-1.488-1.369.062-2.516a1.726,1.726,0,0,1,2.261.053,18.393,18.393,0,0,1,2.619,2.415,1.781,1.781,0,0,1,.433,1.519,2.375,2.375,0,0,1-.958,1.446l-.6.5.216-.023a1.568,1.568,0,0,1,1.95,1.577,1.566,1.566,0,0,1-1.577,1.948l-8.922.94c0,.194-.012.5-.028.931s-.037.737-.066.934l10.613-1.119a1.566,1.566,0,0,1,1.947,1.577A1.581,1.581,0,0,1-719.062,618.392Zm-25.189-4-.591-5.611a.8.8,0,0,0-.993-.806l-1.044.111a.8.8,0,0,0-.8.993l.59,5.612Zm-2.443,4.076.622,5.9a.782.782,0,0,0,.989.769l1.044-.11a.784.784,0,0,0,.808-.958l-.622-5.9Zm16.951,5.888a13.285,13.285,0,0,0,3.273,2.419,11.281,11.281,0,0,0,2.193-2.995Z" transform="translate(826.053 -597.789)" fill="#fff"/>
        <path id="Path_1587" data-name="Path 1587" d="M-716.5,614.066a38.833,38.833,0,0,1-2.036,10.667q-.9,1.869-2.955.869-2.206-1.137-1.238-3.079a27.725,27.725,0,0,0,1.841-8.517q.135-2.544,2.439-2.213A1.975,1.975,0,0,1-716.5,614.066Zm15.466,17.255-5.993.362q-3.431.208-4.753-1t-1.534-4.708l-.926-15.307a2.015,2.015,0,0,1,2.176-2.378,1.981,1.981,0,0,1,2.373,2.1l.926,15.307a2.623,2.623,0,0,0,.445,1.659,2.464,2.464,0,0,0,1.627.245l5.054-.3a1.748,1.748,0,0,0,1.187-.452,2.626,2.626,0,0,0,.548-1.429,8.019,8.019,0,0,1,.761-3.325,1.417,1.417,0,0,1,1.993-.862,2.133,2.133,0,0,1,1.18,1.523,7.072,7.072,0,0,1,.294,2.446,8.034,8.034,0,0,1-1.462,4.618A5.427,5.427,0,0,1-701.034,631.322Zm-2.889-25.008a43.59,43.59,0,0,0-8.324-4.026q-2.409-.869-.872-3.028a2.152,2.152,0,0,1,2.66-.958,55.08,55.08,0,0,1,9.31,4.148c.679.418,1.036.861,1.077,1.329a2.674,2.674,0,0,1-.64,1.688,2.922,2.922,0,0,1-1.443,1.3A2.255,2.255,0,0,1-703.923,606.313Zm9.279,3.642a37.24,37.24,0,0,1,5.546,9.63,2.136,2.136,0,0,1-1.172,2.788,2.862,2.862,0,0,1-2.065.614q-.808-.187-1.217-1.538a44.951,44.951,0,0,0-4.729-8.7q-1.5-2.01.636-3.263A2.122,2.122,0,0,1-694.644,609.955Z" transform="translate(835.306 -598.168)" fill="#fff"/>
        <path id="Path_1588" data-name="Path 1588" d="M-683.394,627.044l-3.037.073a1.827,1.827,0,0,1-1.987-1.4l-7.677-23.08a2.126,2.126,0,0,1,.151-1.975,2.142,2.142,0,0,1,1.808-.786l.868-.021a2.619,2.619,0,0,1,1.659.5,2.509,2.509,0,0,1,.956,1.423l3.38,11.281q.432,1.436,1.208,4.331t1.282,4.474l.217-.005q.4-1.53,1.052-4.439t1.052-4.474l2.7-11.173a2.752,2.752,0,0,1,2.84-2.311q3.218-.075,2.353,3.093l-6.3,22.545a2.5,2.5,0,0,1-.926,1.4A2.7,2.7,0,0,1-683.394,627.044Z" transform="translate(843.945 -597.751)" fill="#fff"/>
        <path id="Path_1589" data-name="Path 1589" d="M-670.968,602.181l.052,21.918a2.43,2.43,0,0,1-2.742,2.755,2.428,2.428,0,0,1-2.755-2.742l-.053-21.918a2.431,2.431,0,0,1,2.743-2.755A2.43,2.43,0,0,1-670.968,602.181Z" transform="translate(850.333 -597.758)" fill="#fff"/>
        <path id="Path_1590" data-name="Path 1590" d="M-664.368,599.467l6.582.134q10.74.218,10.565,8.826a8.073,8.073,0,0,1-3.086,6.721,12.091,12.091,0,0,1-7.694,2.14l-3.652-.076-.142,6.98a2.431,2.431,0,0,1-2.806,2.692,2.43,2.43,0,0,1-2.692-2.8l.454-22.24a2.374,2.374,0,0,1,.7-1.74A2.369,2.369,0,0,1-664.368,599.467Zm2.985,4.4-.184,9.005,3.292.068q5.568.111,5.665-4.625A3.72,3.72,0,0,0-653.953,605a7.7,7.7,0,0,0-4.319-1.066Z" transform="translate(853.294 -597.749)" fill="#fff"/>
        <path id="Path_1591" data-name="Path 1591" d="M-642.279,627.218a24.173,24.173,0,0,1-3.1,2.247,2.38,2.38,0,0,1-3.1-.253q-1.2-1.085-1.03-1.889t1.669-1.624a30.565,30.565,0,0,0,4.282-3.23,2.47,2.47,0,0,1,2.96-.443q2.649,1.169.761,3.124A22.433,22.433,0,0,1-642.279,627.218Zm11.443-6.762-.533,9.171a2.011,2.011,0,0,1-2.406,2.142,2.046,2.046,0,0,1-2.216-2.41l.525-9.026q-2.5-.071-6.656-.188L-647.4,620a1.787,1.787,0,0,1-1.435-.554,2.687,2.687,0,0,1-.428-1.656,2.525,2.525,0,0,1,.46-1.693,1.942,1.942,0,0,1,1.587-.507q.869.016,2.73.1t2.8.144q.561-.329,2.634-1.694a60.549,60.549,0,0,0-5.273-4.654q-1.875-1.413-.008-2.971a2.3,2.3,0,0,1,3.034.139,43.712,43.712,0,0,0,3.459-3.422q-3.365-.05-6.765-.176a2.133,2.133,0,0,1-2.25-1.8q-.484-2.312,2.23-2.226a158.091,158.091,0,0,0,22.826-.631,2.045,2.045,0,0,1,1.275.182,3.22,3.22,0,0,1,1.011,1q1.885,2.5-1,2.913-4.961.548-11.38.68l.1.079a73.475,73.475,0,0,1-6.282,5.866q1.385,1.1,2.691,2.331a85.429,85.429,0,0,0,7.24-6.138,2.219,2.219,0,0,1,3.061-.292q2.308,1.474.278,3.311a109.411,109.411,0,0,1-10.158,7.745q4.95.214,9.942.358-.137-.151-.426-.459c-.193-.2-.336-.357-.426-.459q-1.641-1.689.57-2.975a2.086,2.086,0,0,1,2.628.3,55.353,55.353,0,0,1,5.718,6.346,2,2,0,0,1,.431,1.618,2.6,2.6,0,0,1-1.251,1.269,2.117,2.117,0,0,1-3.29-.735c-.046-.074-.135-.2-.27-.378a4.555,4.555,0,0,1-.267-.377q-1.518-.052-4.6-.085Zm6.919,2.5q3.121,2.429,5.491,4.668a2.034,2.034,0,0,1,.664,1.651,2.623,2.623,0,0,1-1.278,1.429,3.148,3.148,0,0,1-1.669.646,2.352,2.352,0,0,1-1.471-.864,46.555,46.555,0,0,0-4.6-4.361q-2.069-1.788.222-3.212A2.2,2.2,0,0,1-623.916,622.958Z" transform="translate(859.026 -598.099)" fill="#fff"/>
        <path id="Path_1592" data-name="Path 1592" d="M-617,599.971l13.96,1.438a1.79,1.79,0,0,1,1.807,2.222,1.806,1.806,0,0,1-2.226,1.843l-5.9-.607q-.5,1.3-1.713,3.933l6.081.626q2.516.26,1.669,3.553-4.317,14.028-13.4,19.273a2.352,2.352,0,0,1-1.6.344,2.934,2.934,0,0,1-1.274-1.04q-.895-1.218-.638-1.938a3.215,3.215,0,0,1,1.677-1.444,20.566,20.566,0,0,0,6.131-5.513,54.426,54.426,0,0,0-4.692-4.23,7.514,7.514,0,0,1-.9.926,1.781,1.781,0,0,1-2.865-.077,2.558,2.558,0,0,1-.757-1.64,2.322,2.322,0,0,1,.9-1.544A32.385,32.385,0,0,0-613.86,604.4l-3.561-.368a1.823,1.823,0,0,1-1.841-2.262A1.808,1.808,0,0,1-617,599.971Zm6.872,19.069a38.1,38.1,0,0,0,2.491-5.815l-5.434-.56q-.361.691-1.616,2.632Q-611.093,618.143-610.131,619.04Zm7.995,3.225,1.642-15.939a1.9,1.9,0,0,1,2.344-1.94,1.918,1.918,0,0,1,1.936,2.381l-1.642,15.939a1.918,1.918,0,0,1-2.381,1.936A1.9,1.9,0,0,1-602.136,622.265Zm14.8-18-2.716,26.373a7.187,7.187,0,0,1-.745,2.814,2.859,2.859,0,0,1-1.679,1.3,11.69,11.69,0,0,1-4.508.336,4.152,4.152,0,0,1-1.972-.622,2.237,2.237,0,0,1-1.048-1.471,1.691,1.691,0,0,1,.559-1.9,3.567,3.567,0,0,1,2.4-.335l1.619.167q.974.064,1.061-.763l2.713-26.337a1.934,1.934,0,0,1,2.417-1.933A1.9,1.9,0,0,1-587.338,604.262Z" transform="translate(868.03 -597.593)" fill="#fff"/>
        <path id="Path_1593" data-name="Path 1593" d="M-593.247,630.6q3.619-4.181,5.754-7.009,1.544-2.038,3.115-.051a2.21,2.21,0,0,1,.094,2.829q-3.208,4.389-5.541,7.3-1.593,1.887-3.3.061a2.833,2.833,0,0,1-.828-1.566A2.3,2.3,0,0,1-593.247,630.6ZM-588,618.4q-.458-.357-1.425-1.123t-1.489-1.172q-1.647-1.23-.094-2.829a1.835,1.835,0,0,1,2.61-.344q1.562,1.072,3.374,2.4a1.864,1.864,0,0,1,.861,1.353,2.206,2.206,0,0,1-.767,1.476,2.434,2.434,0,0,1-1.489.931A2.25,2.25,0,0,1-588,618.4Zm3.093-9.779q-1.167-1.014-2.807-2.28-1.712-1.276-.053-2.86a1.892,1.892,0,0,1,2.641-.3q.825.6,3.291,2.461a1.818,1.818,0,0,1,.819,1.382,2.312,2.312,0,0,1-.837,1.466Q-583.44,610.041-584.911,608.617Zm18.912,29.6-14.134-2.091a2.407,2.407,0,0,1-1.64-.9,2.306,2.306,0,0,1-.408-1.816l1.266-8.552A2.368,2.368,0,0,1-580,623.22a2.374,2.374,0,0,1,1.833-.406l5.009.742.682-4.616-7.55-1.116a1.853,1.853,0,0,1-1.767-2.382,1.855,1.855,0,0,1,2.382-1.768l7.549,1.118.636-4.294q-2.629-.024-5.32-.13a2.735,2.735,0,0,1-1.5-.478,2.043,2.043,0,0,1-.679-1.344q-.337-2.171,2.21-2.086a65.478,65.478,0,0,0,13.528-.741,2.43,2.43,0,0,1,1.406.135,3.426,3.426,0,0,1,1.049,1.07q1.824,2.5-1.1,2.98-2.385.307-5.369.45l-.746,5.045,7.119,1.054a1.853,1.853,0,0,1,1.769,2.381,1.853,1.853,0,0,1-2.381,1.769l-7.12-1.054-.684,4.616,5.009.741a2.38,2.38,0,0,1,1.639.919,2.371,2.371,0,0,1,.4,1.832l-1.265,8.552a2.318,2.318,0,0,1-.915,1.62A2.413,2.413,0,0,1-566,638.216Zm-11.155-5.672,9.16,1.354a.782.782,0,0,0,.991-.767l.534-3.614a.783.783,0,0,0-.725-1.021l-9.16-1.356a.8.8,0,0,0-1.028.762l-.534,3.614A.8.8,0,0,0-577.155,632.544Z" transform="translate(876.965 -596.683)" fill="#fff"/>
        <path id="Path_1594" data-name="Path 1594" d="M-537.592,618.385l5.576,1.077a1.406,1.406,0,0,1,1.156.978,6.075,6.075,0,0,1-.154,2.79q-2.319,10.677-3.491,14.835t-2.208,5.135a3.972,3.972,0,0,1-2.128,1.192,12.5,12.5,0,0,1-3.193-.156,3.238,3.238,0,0,1-1.75-.946,2.406,2.406,0,0,1-.615-1.685.143.143,0,0,0,0-.074.148.148,0,0,1,0-.075,1.349,1.349,0,0,1,.271-1.4,1.846,1.846,0,0,1,1.642-.107q.49.131,1.236.275a1.452,1.452,0,0,0,1.361-.364q1.3-1.187,4.291-15.159a2.893,2.893,0,0,0,.09-1.419.746.746,0,0,0-.607-.484l-2.343-.454a55.244,55.244,0,0,1-4.106,11.713,20.249,20.249,0,0,1-6.267,7.464,2.21,2.21,0,0,1-1.835.347,2.352,2.352,0,0,1-1.45-1.275,11.519,11.519,0,0,0-.737-1.138q-11.512-1.046-13.032-1.19a1.588,1.588,0,0,1-1.184-.542,2.129,2.129,0,0,1-.247-1.393,2.155,2.155,0,0,1,.459-1.421,1.467,1.467,0,0,1,1.345-.294q.072.014,5.722.7l.426-2.2-4.831-.935a1.373,1.373,0,0,1-1.232-1.82,1.374,1.374,0,0,1,1.823-1.233l4.828.932.275-1.419-3.872-.749a2.339,2.339,0,0,1-1.581-.968,2.344,2.344,0,0,1-.309-1.828l1.263-6.535a2.348,2.348,0,0,1,.967-1.582,2.347,2.347,0,0,1,1.829-.308l3.87.746.275-1.419-5.541-1.07a1.407,1.407,0,0,1-1.261-1.865A1.407,1.407,0,0,1-561,611.8l5.541,1.07.282-1.456q-3.274-.411-4.736-.656a1.714,1.714,0,0,1-1.6-1.635q-.161-1.837,1.848-1.56a115.555,115.555,0,0,0,12.6.962,1.629,1.629,0,0,1,1.115.325,2.5,2.5,0,0,1,.639,1.081q.766,2.137-1.413,2.159-2.524-.081-4.52-.247l-.341,1.775,5.041.976a1.9,1.9,0,0,1,1.29.764,1.907,1.907,0,0,1,.23,1.48l-.021.107,3.374.651q.369-1.732,1.1-5.5a1.87,1.87,0,0,1,2.464-1.7,1.871,1.871,0,0,1,1.656,2.492Q-536.848,614.918-537.592,618.385ZM-557.67,624.3l-2.841-.549-.185.959a.606.606,0,0,0,.545.8l2.167.419Zm.8-4.155-2.271-.439a.512.512,0,0,0-.679.458l-.2,1.032,2.84.547Zm11.6-2.07-6.925-1.336-.274,1.42,4.012.775a2.41,2.41,0,0,1,1.6.972,2.32,2.32,0,0,1,.328,1.832l-1.262,6.533a2.325,2.325,0,0,1-.987,1.58,2.417,2.417,0,0,1-1.847.306l-4.012-.775-.275,1.419,5.007.968a1.376,1.376,0,0,1,1.233,1.823,1.374,1.374,0,0,1-1.822,1.23l-5.008-.966-.357,1.845q2.266.292,6.346.712a18.758,18.758,0,0,0,4.128-6.017,50.545,50.545,0,0,0,2.832-8.848l-1.741-.336a1.373,1.373,0,0,1-1.23-1.823Zm-8.847,8.606,2.238.432a.512.512,0,0,0,.678-.458l.205-1.066-2.806-.541Zm3.25-5.376L-553,620.9l-.308,1.6,2.806.542.178-.923A.608.608,0,0,0-550.866,621.309Z" transform="translate(885.557 -595.148)" fill="#fff"/>
      </g>
    </g>
  </g>
</svg>
