<svg xmlns="http://www.w3.org/2000/svg" xmlns:xlink="http://www.w3.org/1999/xlink" width="53.713" height="45.126" viewBox="0 0 53.713 45.126">
  <defs>
    <clipPath id="clip-path">
      <path id="Path_1435" data-name="Path 1435" d="M-3834.941,1199.768l-.012,0,0-.012a1.418,1.418,0,0,1-.216-.666,4.375,4.375,0,0,0-2.544-3.58c1.172-2.76-3.391-5.291-3.391-5.291l-1.974-6.623.963.143,5.759.258s3.642,3.732,6,1.874a4.376,4.376,0,0,0,4.1,1.514,7.5,7.5,0,0,0,1.139-.515,6.116,6.116,0,0,0,2.285,3.517,6.215,6.215,0,0,0,3.052,1.247c-.031.061-.046.127-.075.189-.04.529-.1,3.028,2.315,3.648,0,0-.859,2.01,1.86,4.2l.12,5.937-4.562-.116c-2.834-2.044-4.612-.6-4.612-.6-1.385-2.431-4.228-1.234-4.228-1.234a6.222,6.222,0,0,0-2.007-2.616,6.148,6.148,0,0,0-3.638-1.276C-3834.724,1199.863-3834.842,1199.876-3834.941,1199.768Z" transform="translate(3843.076 -1183.594)" fill="none"/>
    </clipPath>
    <clipPath id="clip-path-2">
      <path id="Path_1443" data-name="Path 1443" d="M-3835.958,1230.345l-.013.007s0-.01,0-.014a1.665,1.665,0,0,1-.617-.548,5.158,5.158,0,0,0-4.723-2.113c-.46-3.5-6.6-3.343-6.6-3.343l-5.963-5.544,1.065-.431,6-3.18s5.932,1.611,7.208-1.684a5.155,5.155,0,0,0,5.073-.922,8.735,8.735,0,0,0,.849-1.2,7.209,7.209,0,0,0,4.422,2.2,7.324,7.324,0,0,0,3.843-.56c0,.081.032.158.038.238.274.561,1.7,3.139,4.531,2.316,0,0,.329,2.555,4.4,3.156l3.671,5.955-4.7,2.609c-4.1-.381-5.04,2.149-5.04,2.149-2.858-1.641-5.029,1.274-5.029,1.274a7.328,7.328,0,0,0-3.6-1.455,7.238,7.238,0,0,0-4.456.881C-3835.681,1230.311-3835.792,1230.4-3835.958,1230.345Z" transform="translate(3853.884 -1211.37)" fill="none"/>
    </clipPath>
    <linearGradient id="linear-gradient" x1="37.55" y1="-60.222" x2="37.535" y2="-60.222" gradientUnits="objectBoundingBox">
      <stop offset="0.004" stop-color="#7ca13d"/>
      <stop offset="1" stop-color="#83b540"/>
    </linearGradient>
  </defs>
  <g id="Group_1092" data-name="Group 1092" transform="translate(-81.388 -330.69)">
    <g id="Group_1091" data-name="Group 1091" transform="matrix(0.951, 0.309, -0.309, 0.951, 118.109, -21.728)">
      <g id="Group_202" data-name="Group 202" transform="translate(90.959 341)">
        <g id="Group_1088" data-name="Group 1088">
          <g id="Group_1087" data-name="Group 1087" clip-path="url(#clip-path)">
            <g id="Group_201" data-name="Group 201" transform="translate(-0.298 -0.298)">
              <path id="Path_479" data-name="Path 479" d="M-3834.941,1199.768l-.012,0,0-.012a1.418,1.418,0,0,1-.216-.666,4.375,4.375,0,0,0-2.544-3.58c1.172-2.76-3.391-5.291-3.391-5.291l-1.974-6.623.963.143,5.759.258s3.642,3.732,6,1.874a4.376,4.376,0,0,0,4.1,1.514,7.5,7.5,0,0,0,1.139-.515,6.116,6.116,0,0,0,2.285,3.517,6.215,6.215,0,0,0,3.052,1.247c-.031.061-.046.127-.075.189-.04.529-.1,3.028,2.315,3.648,0,0-.859,2.01,1.86,4.2l.12,5.937-4.562-.116c-2.834-2.044-4.612-.6-4.612-.6-1.385-2.431-4.228-1.234-4.228-1.234a6.222,6.222,0,0,0-2.007-2.616,6.148,6.148,0,0,0-3.638-1.276C-3834.724,1199.863-3834.842,1199.876-3834.941,1199.768Z" transform="translate(3843.374 -1183.296)" fill="#96d788"/>
              <path id="Path_1428" data-name="Path 1428" d="M-3815.746,1205.718a.3.3,0,0,0,.233-.111.3.3,0,0,0-.047-.42l-27.526-22.014a.3.3,0,0,0-.419.047.3.3,0,0,0,.046.42l27.526,22.015A.3.3,0,0,0-3815.746,1205.718Z" transform="translate(3843.57 -1183.108)" fill="#0e1f29"/>
              <path id="Path_1429" data-name="Path 1429" d="M-3839.833,1210.406a.277.277,0,0,0,.059-.006.3.3,0,0,0,.234-.351c-.01-.049-.951-4.906,1.453-7.039a.3.3,0,0,0,.025-.421.3.3,0,0,0-.421-.025c-2.661,2.361-1.685,7.39-1.642,7.6A.3.3,0,0,0-3839.833,1210.406Z" transform="translate(3864.127 -1190.618)" fill="#0e1f29"/>
              <path id="Path_1430" data-name="Path 1430" d="M-3832.634,1214.343a.3.3,0,0,0,.282-.2c1.348-3.941,6.34-3.1,6.551-3.064a.3.3,0,0,0,.347-.241.3.3,0,0,0-.241-.346c-.057-.012-5.706-.972-7.221,3.458a.3.3,0,0,0,.186.379A.279.279,0,0,0-3832.634,1214.343Z" transform="translate(3847.057 -1193.681)" fill="#0e1f29"/>
              <path id="Path_1431" data-name="Path 1431" d="M-3824.75,1207.953a.3.3,0,0,0,.274-.182c1.829-4.3,7.662-3.07,7.721-3.057a.3.3,0,0,0,.355-.227.3.3,0,0,0-.227-.356c-.063-.015-6.376-1.357-8.4,3.406a.3.3,0,0,0,.158.391A.3.3,0,0,0-3824.75,1207.953Z" transform="translate(3833.17 -1191.183)" fill="#0e1f29"/>
              <path id="Path_1432" data-name="Path 1432" d="M-3818.938,1196.151a.3.3,0,0,0,.211-.087.3.3,0,0,0,0-.423c-3.3-3.295-1.006-8.344-.982-8.394a.3.3,0,0,0-.145-.4.3.3,0,0,0-.4.144c-.025.055-2.494,5.476,1.1,9.069A.3.3,0,0,0-3818.938,1196.151Z" transform="translate(3833 -1184.547)" fill="#0e1f29"/>
              <path id="Path_1433" data-name="Path 1433" d="M-3816.895,1201.188a.3.3,0,0,0,.275-.182c1.3-3.072,7.29-2.5,7.348-2.491a.3.3,0,0,0,.328-.267.3.3,0,0,0-.266-.328c-.266-.027-6.488-.62-7.959,2.853a.3.3,0,0,0,.158.392A.3.3,0,0,0-3816.895,1201.188Z" transform="translate(3820.909 -1188.827)" fill="#0e1f29"/>
              <path id="Path_1434" data-name="Path 1434" d="M-3809.637,1193.864a.3.3,0,0,0,.257-.146c.791-1.329,4.786-1.2,6.258-1.041a.309.309,0,0,0,.329-.265.3.3,0,0,0-.264-.329c-.58-.065-5.707-.568-6.836,1.329a.3.3,0,0,0,.1.409A.294.294,0,0,0-3809.637,1193.864Z" transform="translate(3810.313 -1186.544)" fill="#0e1f29"/>
            </g>
          </g>
        </g>
      </g>
      <g id="Group_204" data-name="Group 204" transform="translate(84 358.013)">
        <g id="Group_1090" data-name="Group 1090" transform="translate(0 0)">
          <g id="Group_1089" data-name="Group 1089" clip-path="url(#clip-path-2)">
            <g id="Group_203" data-name="Group 203" transform="translate(-0.351)">
              <path id="Path_487" data-name="Path 487" d="M-3835.958,1230.345l-.013.007s0-.01,0-.014a1.665,1.665,0,0,1-.617-.548,5.158,5.158,0,0,0-4.723-2.113c-.46-3.5-6.6-3.343-6.6-3.343l-5.963-5.544,1.065-.431,6-3.18s5.932,1.611,7.208-1.684a5.155,5.155,0,0,0,5.073-.922,8.735,8.735,0,0,0,.849-1.2,7.209,7.209,0,0,0,4.422,2.2,7.324,7.324,0,0,0,3.843-.56c0,.081.032.158.038.238.274.561,1.7,3.139,4.531,2.316,0,0,.329,2.555,4.4,3.156l3.671,5.955-4.7,2.609c-4.1-.381-5.04,2.149-5.04,2.149-2.858-1.641-5.029,1.274-5.029,1.274a7.328,7.328,0,0,0-3.6-1.455,7.238,7.238,0,0,0-4.456.881C-3835.681,1230.311-3835.792,1230.4-3835.958,1230.345Z" transform="translate(3854.235 -1211.37)" fill="url(#linear-gradient)"/>
              <path id="Path_1436" data-name="Path 1436" d="M-3813.005,1229.5a.352.352,0,0,0,.347-.3.351.351,0,0,0-.3-.4l-41.1-5.892a.354.354,0,0,0-.4.3.352.352,0,0,0,.3.4l41.1,5.892A.361.361,0,0,0-3813.005,1229.5Z" transform="translate(3854.459 -1215.842)" fill="#194744"/>
              <path id="Path_1437" data-name="Path 1437" d="M-3842.46,1226.711a.353.353,0,0,0,.235-.089.353.353,0,0,0,.027-.5c-.039-.044-3.9-4.411-2.733-8.014a.352.352,0,0,0-.227-.443.353.353,0,0,0-.443.227c-1.293,3.989,2.708,8.51,2.878,8.7A.353.353,0,0,0-3842.46,1226.711Z" transform="translate(3878.644 -1213.803)" fill="#194744"/>
              <path id="Path_1438" data-name="Path 1438" d="M-3838.1,1238.381a.359.359,0,0,0,.072-.007.351.351,0,0,0,.274-.415c-.988-4.809,4.58-6.938,4.818-7.027a.352.352,0,0,0,.207-.453.352.352,0,0,0-.451-.208c-.064.024-6.374,2.426-5.263,7.828A.351.351,0,0,0-3838.1,1238.381Z" transform="translate(3864.784 -1218.686)" fill="#194744"/>
              <path id="Path_1439" data-name="Path 1439" d="M-3826.4,1237.366a.314.314,0,0,0,.047,0,.351.351,0,0,0,.3-.395c-.718-5.472,5.943-7.7,6.009-7.719a.352.352,0,0,0,.227-.443.353.353,0,0,0-.443-.227c-.073.024-7.284,2.434-6.49,8.481A.351.351,0,0,0-3826.4,1237.366Z" transform="translate(3844.66 -1218.032)" fill="#194744"/>
              <path id="Path_1440" data-name="Path 1440" d="M-3814.278,1223.212a.352.352,0,0,0,.34-.264.352.352,0,0,0-.253-.429c-5.315-1.374-6.009-7.868-6.015-7.934a.346.346,0,0,0-.385-.316.351.351,0,0,0-.316.383c.007.07.742,7.049,6.54,8.548A.368.368,0,0,0-3814.278,1223.212Z" transform="translate(3835.18 -1212.493)" fill="#194744"/>
              <path id="Path_1441" data-name="Path 1441" d="M-3814.69,1234.871a.305.305,0,0,0,.047,0,.352.352,0,0,0,.3-.4c-.515-3.89,5.906-6.891,5.971-6.92a.351.351,0,0,0,.172-.467.353.353,0,0,0-.466-.173c-.285.131-6.958,3.248-6.375,7.652A.352.352,0,0,0-3814.69,1234.871Z" transform="translate(3825.846 -1217.381)" fill="#194744"/>
              <path id="Path_1442" data-name="Path 1442" d="M-3803.887,1231.149a.351.351,0,0,0,.352-.35c.009-1.823,4.14-4.082,5.73-4.8a.35.35,0,0,0,.177-.464.351.351,0,0,0-.464-.176c-.628.282-6.133,2.834-6.146,5.435a.351.351,0,0,0,.35.353Z" transform="translate(3808.642 -1216.779)" fill="#194744"/>
            </g>
          </g>
        </g>
      </g>
    </g>
    <g id="Group_196" data-name="Group 196" transform="translate(68.037 307.6)">
      <path id="Path_459" data-name="Path 459" d="M45.576,70.525l.15-.578a16.964,16.964,0,0,0-1.7-12.339A8.869,8.869,0,1,1,60.7,53.221a16.827,16.827,0,0,0,5.182,11.557l.112.11Z" transform="translate(0 -6.099)" fill="#fa0"/>
      <path id="Path_460" data-name="Path 460" d="M48.451,95.179l20.29-5.6a.878.878,0,0,0,.613-1.08h0a.878.878,0,0,0-1.08-.613l-20.291,5.6a.877.877,0,0,0-.612,1.079h0A.877.877,0,0,0,48.451,95.179Z" transform="translate(-2.322 -29.085)" fill="#fa0"/>
      <path id="Path_461" data-name="Path 461" d="M49.983,36.65a2.862,2.862,0,1,0,2-3.52A2.862,2.862,0,0,0,49.983,36.65Zm1.237-.341a1.579,1.579,0,1,1,1.942,1.1A1.579,1.579,0,0,1,51.219,36.309Z" transform="translate(-3.669)" fill="#fa0"/>
      <path id="Path_462" data-name="Path 462" d="M67.28,58.815c.423-5.314-2.365-10.4-6.268-14.238a8.851,8.851,0,0,1,9.264,8.667A16.827,16.827,0,0,0,75.458,64.8l.112.11-.043.012a.878.878,0,0,1,.467,1.693L66.626,69.2a12.816,12.816,0,0,0-.2-6.059C66.079,61.875,67,60.258,67.28,58.815Z" transform="translate(-9.575 -6.123)" fill="#fa0" opacity="0.27" style="mix-blend-mode: multiply;isolation: isolate"/>
      <path id="Path_463" data-name="Path 463" d="M49.894,49.685a7.012,7.012,0,0,0-2.965,6.286.546.546,0,0,0,.431.488l.572.125s-.9-2.878,2.644-6.049a.544.544,0,0,0-.007-.81h0A.543.543,0,0,0,49.894,49.685Z" transform="translate(-2.094 -8.785)" fill="#fa0"/>
      <path id="Path_464" data-name="Path 464" d="M47.611,69.361A.55.55,0,1,0,48,68.683.55.55,0,0,0,47.611,69.361Z" transform="translate(-2.455 -18.905)" fill="#fa0"/>
    </g>
  </g>
</svg>
